<svg width="471" height="432" viewBox="0 0 471 432" fill="none" xmlns="http://www.w3.org/2000/svg">
<path d="M263.051 139.073H236.538V165.586H263.051V139.073Z" fill="url(#paint0_linear_57_1640)"/>
<path d="M294.919 139.073H268.406V165.586H294.919V139.073Z" fill="url(#paint1_linear_57_1640)"/>
<path d="M263.051 172.84H236.538V199.354H263.051V172.84Z" fill="url(#paint2_linear_57_1640)"/>
<path d="M294.919 172.84H268.406V199.354H294.919V172.84Z" fill="url(#paint3_linear_57_1640)"/>
<path d="M63.9303 212.05L247.107 78.5324C254.793 72.9188 265.156 73.0915 272.67 78.8778L426.656 197.541C430.369 200.391 434.946 201.945 439.61 201.945C459.905 201.945 480.373 156.259 464.396 143.823L277.075 1.92826C269.647 -3.85807 247.538 15.9191 239.852 21.4463L1.14429 192.273L63.9303 211.963V212.05Z" fill="#001242"/>
<path d="M210.197 310.849L210.223 396.435C210.223 406.367 206.768 414.83 199.945 421.653C193.123 428.476 184.659 431.93 174.727 431.93C164.796 431.93 156.764 428.476 149.855 421.653C143.032 414.83 139.578 406.367 139.578 396.435L139.552 42.0004C139.552 32.3277 143.007 24.0369 149.829 17.1278C156.652 10.3051 164.943 6.85059 174.702 6.85059C184.461 6.85059 193.097 10.3051 199.92 17.1278C206.743 23.9505 210.197 32.2414 210.197 42.0004V245.04H321.26V123.873C321.26 114.2 324.715 105.909 331.538 99.0001C338.36 92.1774 346.651 88.7229 356.41 88.7229C366.169 88.7229 374.806 92.1774 381.628 99.0001C388.451 105.823 391.905 114.114 391.905 123.873V396.435C391.905 406.367 388.451 414.83 381.628 421.653C374.806 428.476 366.342 431.93 356.41 431.93C346.478 431.93 338.447 428.476 331.538 421.653C324.715 414.83 321.26 406.367 321.26 396.435V310.849H210.197Z" fill="#001242"/>
<path d="M1.14624 192.193L64.0492 211.742C64.0492 211.742 8.19522 243.632 1.14624 192.193Z" fill="#001242"/>
<defs>
<linearGradient id="paint0_linear_57_1640" x1="237.671" y1="148.104" x2="260.283" y2="164.448" gradientUnits="userSpaceOnUse">
<stop stop-color="#F7D55A"/>
<stop offset="1" stop-color="#F1483D"/>
</linearGradient>
<linearGradient id="paint1_linear_57_1640" x1="269.539" y1="148.104" x2="292.151" y2="164.448" gradientUnits="userSpaceOnUse">
<stop stop-color="#F7D55A"/>
<stop offset="1" stop-color="#F1483D"/>
</linearGradient>
<linearGradient id="paint2_linear_57_1640" x1="237.671" y1="181.872" x2="260.283" y2="198.216" gradientUnits="userSpaceOnUse">
<stop stop-color="#F7D55A"/>
<stop offset="1" stop-color="#F1483D"/>
</linearGradient>
<linearGradient id="paint3_linear_57_1640" x1="269.539" y1="181.872" x2="292.151" y2="198.216" gradientUnits="userSpaceOnUse">
<stop stop-color="#F7D55A"/>
<stop offset="1" stop-color="#F1483D"/>
</linearGradient>
</defs>
</svg>
