<?xml version="1.0" encoding="UTF-8"?>
<svg id="Layer_2" data-name="Layer 2" xmlns="http://www.w3.org/2000/svg" viewBox="0 0 575.92 664.07">
  <defs>
    <style>
      .cls-1 {
        fill: #000032;
      }
    </style>
  </defs>
  <g id="Layer_1-2" data-name="Layer 1">
    <g id="Add_Favorite" data-name="Add Favorite">
      <g>
        <rect class="cls-1" x="287.77" y="171.93" width="33.75" height="33.75"/>
        <rect class="cls-1" x="328.31" y="171.93" width="33.75" height="33.75"/>
        <rect class="cls-1" x="287.77" y="214.93" width="33.75" height="33.75"/>
        <rect class="cls-1" x="328.31" y="214.93" width="33.75" height="33.75"/>
        <path class="cls-1" d="m568.88,175.57L338.77,1.29c-9.14-7.1-36.25,17.2-45.66,23.94l-36.53,26.15c-.87-10.15-5.02-18.95-12.47-26.39-8.43-8.43-18.77-12.64-30.99-12.64s-22.07,4.22-30.5,12.64c-8.43,8.43-12.64,18.6-12.64,30.5v57.89L0,235.06l.79.25c8.54,58.14,67.4,28.75,76.29,23.95h.04s.18-.12.18-.12c.59-.32.91-.51.91-.51l-.15-.05,91.91-66.98v428.83c0,12.23,4.21,22.56,12.64,30.99,8.43,8.43,18.6,12.64,30.5,12.64s22.56-4.21,30.99-12.64c8.43-8.43,12.64-18.76,12.64-30.99v-234.76h136.37v105.13c0,12.23,4.21,22.56,12.64,30.99,8.43,8.43,18.6,12.64,30.5,12.64s22.56-4.22,30.99-12.64c8.43-8.43,12.64-18.76,12.64-30.99V208.66l42.58,32.81c4.57,3.52,10.19,5.44,15.96,5.44h0c24.9,0,50.1-56.06,30.44-71.35Zm-175.76-19.49v148.76h-136.37v-176.48l45.29-33c9.39-6.84,22.16-6.67,31.36.42l61.56,47.44c-1.23,4.04-1.85,8.32-1.85,12.86Z"/>
      </g>
    </g>
  </g>
</svg>