<svg width="539" height="114" viewBox="0 0 539 114" fill="none" xmlns="http://www.w3.org/2000/svg">
<path d="M16.01 43.5708C16.01 37.9132 15.6973 18.7515 15.5389 16.0791C15.0677 6.96535 12.5537 6.65262 6.58346 6.65262H1.55545C0.613204 6.65262 0.300476 6.33989 0.300476 5.39765V1.783C0.300476 0.840752 0.613204 0.369629 1.55545 0.369629C3.75673 0.369629 11.2947 0.999146 24.4902 0.840752C29.5182 0.840752 38.9407 0.369629 47.4249 0.369629C59.3654 0.369629 69.4174 1.47027 75.0749 4.60973C83.8719 9.32096 87.0114 16.5503 87.0114 25.9727C87.0114 38.5387 80.4157 46.0807 65.6484 51.5798V52.3637C83.5592 57.0749 93.9239 66.5014 93.9239 83.1532C93.9239 91.6375 89.2127 102.944 81.6707 107.03C75.0749 110.799 65.0189 112.529 47.4249 112.529C41.1419 112.529 30.7732 112.058 24.4902 112.058C12.2369 112.058 5.63716 112.529 2.3393 112.529C1.71384 112.529 1.24272 112.058 1.24272 111.274V107.347C1.24272 106.563 1.71384 106.246 2.3393 106.246H9.09341C13.8046 106.246 14.9053 104.362 15.3764 99.4922C15.6891 95.7232 16.0059 74.9857 16.0059 62.1029V43.5667L16.01 43.5708ZM35.1757 50.1665C37.6897 50.3249 39.891 50.3249 42.401 50.3249C49.3135 50.3249 55.5965 48.5988 59.0527 45.772C65.023 41.0568 67.2202 34.1443 67.2202 27.2358C67.2202 21.2655 65.3357 14.9826 60.3077 11.2136C54.6542 7.13186 47.1122 5.71443 42.401 5.71443C40.8292 5.71443 38.9447 5.71443 37.6897 6.02716C36.7475 6.33989 35.8053 7.28214 35.6469 8.54117C35.4885 11.5263 35.1757 25.0345 35.1757 38.23V50.1705V50.1665ZM48.684 107.505C60.9372 107.505 72.2482 101.693 72.2482 82.5277C72.2482 69.645 65.9652 61.4775 57.1682 58.0212C51.198 55.5072 44.6022 55.1945 39.2615 55.1945H35.1757V86.6135C35.1757 101.381 38.632 107.505 48.684 107.505Z" fill="white"/>
<path d="M119.989 51.5794C119.989 48.4359 118.418 46.7098 114.019 46.7098H112.447C111.976 46.7098 111.818 46.2387 111.818 45.6092V41.6818C111.818 41.2107 112.131 40.8979 112.76 40.8979C113.544 40.8979 123.283 41.3691 127.369 41.3691C130.354 41.3691 143.237 40.8979 146.064 40.8979C155.173 40.8979 161.456 43.5704 167.427 47.0266C170.883 50.3245 172.926 54.8814 172.926 58.4919C172.926 69.3318 166.797 75.3021 154.861 79.2295V79.859C158.788 81.114 161.932 85.9876 167.743 94.939C169.786 98.2368 173.397 102.948 175.598 104.991C177.799 106.563 180.626 106.717 183.453 106.717C184.082 106.717 184.237 107.188 184.237 108.13V111.428C184.237 112.058 183.924 112.529 183.295 112.529C182.982 112.529 181.564 112.37 179.684 112.216C177.799 112.216 175.444 112.058 172.93 112.058C168.848 112.058 163.82 112.216 161.46 112.37C158.475 110.169 151.563 97.4448 150.149 95.0892C144.809 85.5084 142.14 82.3649 139.626 82.3649C138.526 82.3649 137.425 82.3649 135.699 82.6776V102.786C136.012 104.987 136.954 106.713 139.31 106.713H143.708C144.333 106.713 144.65 107.026 144.65 107.497V111.424C144.65 112.208 144.338 112.525 143.395 112.525C142.295 112.525 133.814 112.054 127.686 112.054C121.557 112.054 113.39 112.525 112.289 112.525C111.664 112.525 111.347 112.054 111.347 111.111V107.497C111.347 107.026 111.66 106.713 112.289 106.713H114.174C117.942 106.713 119.831 106.088 119.831 102.631C119.989 94.9349 119.989 85.6668 119.989 76.2403V51.5794ZM135.699 76.8698C137.112 77.1825 139.31 77.1825 141.352 77.1825C153.606 77.1825 156.278 64.9293 156.278 60.8476C156.278 56.1323 153.922 51.8922 152.038 49.8493C149.995 47.648 145.597 46.393 141.044 46.393C138.371 46.393 135.703 47.0225 135.703 49.3782V76.8698H135.699Z" fill="white"/>
<path d="M223.979 72.6302C228.536 72.6302 233.718 72.1591 234.977 71.8463C238.275 71.0625 239.847 68.8612 240.476 63.9916C240.635 63.3621 240.789 63.2077 241.418 63.2077L244.875 63.3661C245.504 63.3661 245.975 63.6789 245.817 64.3084C245.504 65.7217 245.504 74.0476 245.504 75.461C245.504 78.9172 245.975 83.7869 246.134 85.8297C246.134 86.4593 245.821 86.6136 245.35 86.6136L242.052 87.0847C241.581 87.2431 241.268 86.9263 241.11 86.3009C239.538 82.3735 238.596 80.0179 235.298 79.0756C230.583 77.975 228.227 77.975 223.987 77.975V83.1573C223.987 88.6565 224.3 97.7662 224.3 99.8091C224.3 106.722 229.169 107.193 235.139 107.193C242.052 107.193 246.609 107.193 251.007 103.265C252.266 102.323 257.762 95.2563 260.121 92.2711C260.747 91.4873 261.222 91.3289 261.693 91.6416L264.678 93.2134C264.991 93.3718 265.304 93.8429 265.149 94.314L259.492 110.966C259.179 111.75 258.391 112.538 257.766 112.538C256.665 112.538 248.339 112.066 214.093 112.066C208.123 112.066 199.484 112.538 197.6 112.538C196.816 112.538 196.658 112.066 196.658 111.283V107.672C196.658 107.042 196.97 106.73 197.758 106.73H199.172C206.555 106.73 207.026 106.104 207.026 100.447V64.3165C207.026 59.2925 207.339 55.8363 206.714 50.6499C206.243 47.352 205.3 46.7225 199.017 46.7225H197.446C196.975 46.7225 196.816 46.4098 196.816 45.6219V41.6945C196.816 41.3818 196.975 40.9106 197.6 40.9106C199.956 40.9106 208.598 41.3818 215.352 41.3818L250.54 41.2234C252.112 41.2234 254.151 40.9106 254.78 40.9106C255.093 40.9106 255.41 41.2234 255.723 43.1119C256.035 44.5253 260.438 58.0335 260.751 59.1342C260.909 59.7637 260.909 60.0764 260.592 60.2348L258.078 61.3354C257.449 61.6482 256.978 61.4938 256.507 60.8643C255.881 60.2348 248.026 51.4378 245.196 49.0822C243.469 47.6688 240.955 47.0393 239.384 47.0393L223.987 46.7266V72.6464L223.979 72.6302Z" fill="white"/>
<path d="M324.2 73.1001C324.2 89.5934 324.2 101.376 324.359 102.635C324.671 105.149 325.618 106.716 327.657 106.716H333.785C334.569 106.716 334.882 107.187 334.882 108.13V111.586C334.882 112.057 334.569 112.528 333.785 112.528C332.685 112.528 322.945 112.057 315.091 112.057C309.12 112.057 298.91 112.528 297.655 112.528C296.713 112.528 296.4 112.057 296.4 110.956V107.813C296.4 107.029 296.713 106.712 297.342 106.712H303.313C305.668 106.712 306.923 105.457 307.082 104.198C307.553 98.228 307.553 89.9021 307.553 80.634V47.3305C304.255 47.3305 296.4 47.1721 290.588 48.7438C286.661 51.2579 283.363 56.2859 281.32 60.3676C281.007 60.9971 280.536 61.4682 279.907 61.3098L276.296 60.0549C275.512 59.7421 275.512 59.1126 275.667 58.4831C276.767 55.0268 280.536 42.3025 281.166 39.4757C281.478 38.3751 281.95 37.904 282.579 37.904C283.05 37.904 283.363 38.0624 283.834 38.3751L285.093 39.3173C287.136 40.7307 288.237 40.8891 291.222 41.0434C296.721 41.3562 302.687 41.6729 311.801 41.6729H319.656C325.939 41.6729 335.365 41.3602 341.807 41.0434C344.321 40.885 345.734 40.7307 347.464 39.6301L349.349 38.371C349.82 38.0583 350.291 37.8999 350.604 37.8999C351.233 37.8999 351.546 38.371 352.017 41.3562C352.33 43.5574 355.002 54.8644 355.786 59.1085C355.944 59.7381 355.627 60.0508 354.998 60.3635L351.542 61.1474C350.599 61.4601 350.128 61.3058 349.812 60.5219C347.927 56.5945 345.255 51.4081 341.957 48.8982C338.029 47.4848 327.348 47.3264 324.204 47.3264V73.0879L324.2 73.1001Z" fill="white"/>
<path d="M381.211 106.876C375.712 103.261 367.545 92.267 367.545 77.4997C367.545 71.0584 368.645 61.6318 376.187 52.8348C385.614 41.5238 395.666 39.481 406.977 39.481C414.673 39.481 424.729 40.5816 432.425 47.9652C438.708 53.7771 444.679 63.5163 444.679 77.6541C444.679 85.1961 443.107 92.8925 438.55 99.3338C431.954 108.915 422.057 113.943 405.718 113.943C399.747 113.943 390.479 113 381.211 106.876ZM426.297 77.9709C426.297 57.3917 414.831 45.768 406.506 45.768C403.52 45.768 397.079 46.3935 393.468 51.1087C388.753 57.3917 385.614 66.8183 385.614 74.8314C385.614 99.809 399.91 107.664 406.664 107.664C424.416 107.664 426.301 86.4551 426.301 77.9749L426.297 77.9709Z" fill="white"/>
<path d="M468.083 55.0357C468.083 49.3782 464.314 46.7098 459.915 46.7098H458.502C457.876 46.7098 457.559 46.3971 457.559 45.7676V41.8402C457.559 41.3691 457.872 40.8979 458.502 40.8979C458.814 40.8979 460.545 41.0563 462.9 41.0563C465.256 41.2147 468.399 41.3691 471.384 41.3691C473.898 41.3691 477.196 41.0563 479.081 41.0563C481.278 41.0563 482.537 41.3691 483.163 42.3154C483.634 42.9408 501.857 64.1495 505.001 67.4514C507.669 70.2781 521.336 85.9876 523.695 88.5016H524.321V83.1609C524.321 76.5652 524.321 69.1816 524.162 64.3079C524.162 60.5389 523.379 51.4251 522.591 49.5406C521.807 47.6561 519.605 46.7139 517.091 46.7139H514.419C513.635 46.7139 513.318 46.4011 513.318 45.6132V41.6859C513.318 41.2147 513.631 40.902 514.419 40.902C515.52 40.902 522.274 41.3731 527.302 41.3731C530.6 41.3731 536.099 40.902 537.199 40.902C537.983 40.902 538.3 41.2147 538.3 42.3154V45.6132C538.3 46.2428 537.987 46.7139 537.358 46.7139H535.786C532.33 46.7139 531.546 47.8145 531.229 50.0117C530.133 57.237 530.445 67.1346 530.445 73.4176V110.177C530.445 112.379 529.82 113.946 528.248 113.946C526.835 113.946 525.576 113.004 524.792 112.216C514.265 101.535 504.054 90.0653 493.844 78.9127C490.075 74.831 476.721 58.9631 474.524 56.6075H474.211V74.831C474.211 84.2575 474.682 99.967 474.995 101.376C475.466 104.991 477.196 106.717 479.552 106.717H482.695C483.479 106.717 483.479 107.03 483.479 107.659V111.587C483.479 112.212 483.479 112.529 482.695 112.529C481.595 112.529 475.312 112.058 469.971 112.058C467.77 112.058 460.703 112.529 459.448 112.529C459.135 112.529 458.977 112.216 458.977 111.274V107.188C458.977 106.875 459.135 106.717 459.602 106.717H463.213C464.785 106.717 467.14 105.616 467.611 102.006C467.77 100.121 468.083 88.9687 468.083 71.3747V55.0398V55.0357Z" fill="white"/>
</svg>
