<svg width="693" height="316" viewBox="0 0 693 316" fill="none" xmlns="http://www.w3.org/2000/svg">
<path d="M154.485 81.6631H138.912V97.236H154.485V81.6631Z" fill="url(#paint0_linear_618_2)"/>
<path d="M173.203 81.6631H157.63V97.236H173.203V81.6631Z" fill="url(#paint1_linear_618_2)"/>
<path d="M154.485 101.496H138.912V117.069H154.485V101.496Z" fill="url(#paint2_linear_618_2)"/>
<path d="M173.203 101.496H157.63V117.069H173.203V101.496Z" fill="url(#paint3_linear_618_2)"/>
<path d="M37.5117 124.526L145.102 46.1036C149.617 42.8064 155.704 42.9079 160.117 46.3065L250.562 116.004C252.743 117.678 255.431 118.591 258.171 118.591C270.091 118.591 282.113 91.7572 272.729 84.4526L162.704 1.10951C158.341 -2.28914 145.356 9.32715 140.841 12.5736L0.633789 112.91L37.5117 124.476V124.526Z" fill="white"/>
<path d="M123.441 182.557V294.865C123.441 300.698 121.412 305.67 117.404 309.677C113.397 313.684 108.426 315.713 102.592 315.713C96.7588 315.713 92.0413 313.684 87.9832 309.677C83.9758 305.67 81.9468 300.698 81.9468 294.865V24.6465C81.9468 18.9652 83.9758 14.0955 87.9832 10.0374C91.9906 6.03002 96.8603 4.00098 102.592 4.00098C108.324 4.00098 113.397 6.03002 117.404 10.0374C121.412 14.0448 123.441 18.9145 123.441 24.6465V143.904H188.675V72.7349C188.675 67.0536 190.704 62.1839 194.711 58.1258C198.718 54.1184 203.588 52.0894 209.32 52.0894C215.052 52.0894 220.125 54.1184 224.132 58.1258C228.14 62.1332 230.169 67.0029 230.169 72.7349V232.827C230.169 238.66 228.14 243.631 224.132 247.639C220.125 251.646 215.154 253.675 209.32 253.675C203.487 253.675 198.769 251.646 194.711 247.639C190.704 243.631 188.675 238.66 188.675 232.827V182.557H123.441Z" fill="white"/>
<path d="M370.529 221.413H297.737L289.215 241.551C287.642 245.356 285.106 248.298 281.606 250.428C278.106 252.559 274.403 253.624 270.446 253.624C268.569 253.624 266.439 253.269 264.055 252.559C261.671 251.848 259.489 250.682 257.409 249.008C255.33 247.334 253.605 245.203 252.185 242.616C250.764 240.029 250.054 236.783 250.054 233.029C250.054 230.341 250.663 227.551 251.931 224.71L315.034 85.4666C318.991 76.9446 325.535 72.6836 334.716 72.6836C343.898 72.6836 350.746 76.9446 354.398 85.4666L416.284 224.71C417.4 227.398 417.958 230.188 417.958 233.029C417.958 238.863 415.98 243.783 412.023 247.74C408.066 251.696 403.247 253.675 397.566 253.675C393.609 253.675 389.906 252.609 386.406 250.479C382.906 248.348 380.37 245.355 378.797 241.602L370.478 221.463L370.529 221.413ZM312.904 185.854H356.072L334.716 133.91L312.904 185.854Z" fill="white"/>
<path d="M486.082 215.326H539.193C544.417 215.326 548.932 217.203 552.737 220.906C556.541 224.609 558.418 229.174 558.418 234.551C558.418 239.928 556.541 244.494 552.737 248.197C548.932 251.9 544.417 253.777 539.193 253.777H465.183C459.502 253.777 454.632 251.748 450.574 247.74C446.567 243.733 444.538 238.863 444.538 233.131V96.5254C444.538 90.8441 446.567 85.9744 450.574 81.9163C454.581 77.9089 459.451 75.8799 465.183 75.8799C470.915 75.8799 475.988 77.9089 479.995 81.9163C484.003 85.9237 486.032 90.7934 486.032 96.5254V215.377L486.082 215.326Z" fill="white"/>
<path d="M600.724 198.18C592.709 194.731 585.709 190.013 579.723 184.028C573.737 178.042 569.02 171.042 565.57 162.976C562.121 154.911 560.346 146.338 560.346 137.207C560.346 128.077 562.07 119.555 565.57 111.439C569.02 103.373 573.737 96.3221 579.723 90.3872C585.709 84.4522 592.709 79.6839 600.724 76.2346C608.738 72.7852 617.311 71.0098 626.391 71.0098C635.471 71.0098 644.044 72.7345 652.16 76.2346C660.226 79.6839 667.276 84.4015 673.211 90.3872C679.197 96.3728 683.915 103.373 687.364 111.439C690.813 119.504 692.589 128.077 692.589 137.207C692.589 146.338 690.864 154.911 687.364 162.976C683.915 171.042 679.197 178.093 673.211 184.028C667.226 190.013 660.226 194.731 652.16 198.18C644.095 201.63 635.522 203.405 626.391 203.405C617.26 203.405 608.738 201.68 600.724 198.18ZM593.064 151.259C594.941 155.621 597.528 159.476 600.825 162.773C604.122 166.071 607.978 168.658 612.34 170.535C616.702 172.411 621.42 173.324 626.391 173.324C631.362 173.324 636.131 172.411 640.544 170.535C644.957 168.658 648.863 166.071 652.16 162.773C655.457 159.476 658.044 155.621 659.921 151.259C661.798 146.896 662.711 142.179 662.711 137.207C662.711 132.236 661.798 127.519 659.921 123.156C658.044 118.794 655.457 114.939 652.16 111.641C648.863 108.344 645.008 105.706 640.544 103.779C636.131 101.851 631.413 100.887 626.391 100.887C621.369 100.887 616.702 101.851 612.34 103.779C607.978 105.706 604.122 108.344 600.825 111.641C597.528 114.939 594.941 118.794 593.064 123.156C591.187 127.519 590.274 132.236 590.274 137.207C590.274 142.179 591.187 146.896 593.064 151.259Z" fill="url(#paint4_linear_618_2)"/>
<path d="M0.756348 112.876L37.7052 124.351C37.7052 124.351 4.90246 143.089 0.756348 112.876Z" fill="white"/>
<path d="M170.221 311.706V310.634C171.515 310.563 172.485 310.42 173.132 310.206C173.818 309.991 174.274 309.562 174.503 308.919C174.731 308.276 174.845 307.312 174.845 306.025V279.444C174.845 278.122 174.731 277.157 174.503 276.55C174.274 275.907 173.818 275.478 173.132 275.264C172.485 275.013 171.515 274.871 170.221 274.835V273.763C171.096 273.799 172.2 273.834 173.532 273.87C174.864 273.906 176.178 273.924 177.472 273.924C178.956 273.924 180.346 273.906 181.64 273.87C182.934 273.834 183.981 273.799 184.78 273.763V274.835C183.486 274.871 182.496 275.013 181.811 275.264C181.164 275.478 180.726 275.907 180.498 276.55C180.269 277.157 180.155 278.122 180.155 279.444V306.025C180.155 307.312 180.269 308.276 180.498 308.919C180.726 309.562 181.164 309.991 181.811 310.206C182.496 310.42 183.486 310.563 184.78 310.634V311.706C183.981 311.635 182.934 311.599 181.64 311.599C180.346 311.563 178.956 311.545 177.472 311.545C176.178 311.545 174.864 311.563 173.532 311.599C172.2 311.599 171.096 311.635 170.221 311.706ZM146.354 311.706V310.634C147.649 310.563 148.619 310.42 149.266 310.206C149.952 309.991 150.408 309.562 150.637 308.919C150.865 308.276 150.979 307.312 150.979 306.025V279.444C150.979 278.122 150.865 277.157 150.637 276.55C150.408 275.907 149.952 275.478 149.266 275.264C148.619 275.013 147.649 274.871 146.354 274.835V273.763C147.154 273.799 148.201 273.834 149.495 273.87C150.789 273.906 152.178 273.924 153.663 273.924C154.995 273.924 156.308 273.906 157.602 273.87C158.935 273.834 160.038 273.799 160.914 273.763V274.835C159.62 274.871 158.63 275.013 157.945 275.264C157.298 275.478 156.86 275.907 156.632 276.55C156.403 277.157 156.289 278.122 156.289 279.444V306.025C156.289 307.312 156.403 308.276 156.632 308.919C156.86 309.562 157.298 309.991 157.945 310.206C158.63 310.42 159.62 310.563 160.914 310.634V311.706C160.038 311.635 158.935 311.599 157.602 311.599C156.308 311.563 154.995 311.545 153.663 311.545C152.178 311.545 150.789 311.563 149.495 311.599C148.201 311.599 147.154 311.635 146.354 311.706ZM154.291 293.163V292.091H176.844V293.163H154.291Z" fill="white"/>
<path d="M212.758 273.013C216.374 273.013 219.534 273.781 222.236 275.317C224.977 276.853 227.089 279.069 228.574 281.963C230.096 284.821 230.858 288.304 230.858 292.413C230.858 296.415 230.077 299.916 228.517 302.917C226.994 305.918 224.863 308.258 222.122 309.938C219.381 311.617 216.241 312.456 212.701 312.456C209.085 312.456 205.907 311.688 203.166 310.152C200.464 308.616 198.351 306.4 196.829 303.507C195.344 300.613 194.602 297.129 194.602 293.056C194.602 289.055 195.382 285.553 196.943 282.552C198.503 279.551 200.635 277.211 203.338 275.532C206.078 273.852 209.218 273.013 212.758 273.013ZM212.53 273.977C210.056 273.977 207.905 274.781 206.078 276.389C204.251 277.997 202.824 280.212 201.796 283.034C200.806 285.857 200.311 289.126 200.311 292.842C200.311 296.629 200.863 299.934 201.967 302.756C203.109 305.543 204.632 307.705 206.535 309.241C208.476 310.741 210.608 311.492 212.93 311.492C215.404 311.492 217.554 310.688 219.381 309.08C221.209 307.472 222.617 305.257 223.607 302.435C224.634 299.576 225.148 296.307 225.148 292.627C225.148 288.804 224.577 285.5 223.435 282.713C222.331 279.926 220.828 277.782 218.925 276.282C217.022 274.746 214.89 273.977 212.53 273.977Z" fill="white"/>
<path d="M285.635 273.763V274.835C284.341 274.871 283.352 275.013 282.667 275.264C282.019 275.478 281.582 275.907 281.353 276.55C281.125 277.157 281.011 278.122 281.011 279.444V306.025C281.011 307.312 281.125 308.276 281.353 308.919C281.582 309.562 282.019 309.991 282.667 310.206C283.352 310.42 284.341 310.563 285.635 310.634V311.706C284.76 311.635 283.656 311.599 282.324 311.599C281.03 311.563 279.717 311.545 278.384 311.545C276.9 311.545 275.51 311.563 274.216 311.599C272.922 311.599 271.875 311.635 271.076 311.706V310.634C272.37 310.563 273.341 310.42 273.988 310.206C274.673 309.991 275.13 309.562 275.358 308.919C275.587 308.276 275.701 307.312 275.701 306.025V276.55L275.929 276.711L261.941 311.974H261.027L246.639 277.193V305.489C246.639 306.776 246.753 307.794 246.982 308.544C247.248 309.259 247.743 309.777 248.466 310.098C249.227 310.384 250.35 310.563 251.835 310.634V311.706C251.15 311.635 250.255 311.599 249.151 311.599C248.047 311.563 247.001 311.545 246.011 311.545C245.059 311.545 244.089 311.563 243.099 311.599C242.147 311.599 241.348 311.635 240.701 311.706V310.634C241.995 310.563 242.966 310.384 243.613 310.098C244.298 309.777 244.755 309.259 244.983 308.544C245.212 307.794 245.326 306.776 245.326 305.489V279.444C245.326 278.122 245.212 277.157 244.983 276.55C244.755 275.907 244.298 275.478 243.613 275.264C242.966 275.013 241.995 274.871 240.701 274.835V273.763C241.348 273.799 242.147 273.834 243.099 273.87C244.089 273.906 245.059 273.924 246.011 273.924C246.848 273.924 247.705 273.906 248.58 273.87C249.494 273.834 250.255 273.799 250.864 273.763L263.825 305.811L262.854 306.24L275.701 273.924C276.158 273.924 276.595 273.924 277.014 273.924C277.471 273.924 277.928 273.924 278.384 273.924C279.717 273.924 281.03 273.906 282.324 273.87C283.656 273.834 284.76 273.799 285.635 273.763Z" fill="white"/>
<path d="M323.781 273.763C323.629 275.013 323.514 276.228 323.438 277.407C323.4 278.586 323.381 279.479 323.381 280.087C323.381 280.73 323.4 281.355 323.438 281.963C323.476 282.534 323.514 283.017 323.553 283.41H322.239C322.011 281.302 321.687 279.64 321.269 278.425C320.85 277.175 320.127 276.3 319.099 275.799C318.109 275.264 316.606 274.996 314.588 274.996H309.849C308.555 274.996 307.566 275.103 306.881 275.317C306.233 275.496 305.796 275.907 305.567 276.55C305.339 277.157 305.225 278.122 305.225 279.444V306.025C305.225 307.312 305.339 308.276 305.567 308.919C305.796 309.562 306.233 309.991 306.881 310.206C307.566 310.384 308.555 310.473 309.849 310.473H314.017C316.416 310.473 318.224 310.17 319.442 309.562C320.698 308.955 321.592 307.973 322.125 306.615C322.696 305.221 323.115 303.346 323.381 300.988H324.694C324.58 301.952 324.523 303.239 324.523 304.846C324.523 305.525 324.542 306.508 324.58 307.794C324.656 309.044 324.771 310.348 324.923 311.706C322.982 311.635 320.793 311.599 318.357 311.599C315.921 311.563 313.751 311.545 311.848 311.545C311.01 311.545 309.926 311.545 308.593 311.545C307.299 311.545 305.891 311.563 304.368 311.599C302.846 311.599 301.304 311.617 299.744 311.652C298.183 311.652 296.698 311.67 295.29 311.706V310.634C296.584 310.563 297.555 310.42 298.202 310.206C298.887 309.991 299.344 309.562 299.572 308.919C299.801 308.276 299.915 307.312 299.915 306.025V279.444C299.915 278.122 299.801 277.157 299.572 276.55C299.344 275.907 298.887 275.478 298.202 275.264C297.555 275.013 296.584 274.871 295.29 274.835V273.763C296.698 273.799 298.183 273.834 299.744 273.87C301.304 273.87 302.846 273.888 304.368 273.924C305.891 273.924 307.299 273.924 308.593 273.924C309.926 273.924 311.01 273.924 311.848 273.924C313.599 273.924 315.578 273.924 317.786 273.924C320.032 273.888 322.03 273.834 323.781 273.763ZM313.96 292.091C313.96 292.091 313.96 292.27 313.96 292.627C313.96 292.985 313.96 293.163 313.96 293.163H303.512C303.512 293.163 303.512 292.985 303.512 292.627C303.512 292.27 303.512 292.091 303.512 292.091H313.96ZM315.616 285.017C315.464 287.054 315.388 288.608 315.388 289.68C315.426 290.752 315.445 291.734 315.445 292.627C315.445 293.521 315.464 294.503 315.502 295.575C315.54 296.647 315.635 298.201 315.787 300.237H314.474C314.322 299.094 314.132 297.987 313.903 296.915C313.713 295.807 313.256 294.914 312.533 294.235C311.848 293.521 310.668 293.163 308.993 293.163V292.091C310.249 292.091 311.201 291.859 311.848 291.395C312.533 290.895 313.028 290.269 313.332 289.519C313.637 288.769 313.846 288.001 313.96 287.215C314.075 286.393 314.189 285.66 314.303 285.017H315.616Z" fill="white"/>
<path d="M368.1 273.495L382.031 307.204C382.602 308.562 383.249 309.473 383.972 309.938C384.696 310.366 385.362 310.599 385.971 310.634V311.706C385.21 311.635 384.277 311.599 383.173 311.599C382.069 311.563 380.965 311.545 379.862 311.545C378.377 311.545 376.988 311.563 375.694 311.599C374.399 311.599 373.353 311.635 372.553 311.706V310.634C374.495 310.563 375.732 310.259 376.265 309.723C376.797 309.152 376.683 307.955 375.922 306.133L365.302 279.497L366.216 278.801L356.281 303.024C355.672 304.453 355.31 305.668 355.196 306.668C355.082 307.633 355.177 308.401 355.482 308.973C355.824 309.545 356.376 309.955 357.137 310.206C357.937 310.456 358.926 310.599 360.106 310.634V311.706C359.041 311.635 357.918 311.599 356.738 311.599C355.596 311.563 354.53 311.545 353.54 311.545C352.589 311.545 351.77 311.563 351.085 311.599C350.438 311.599 349.829 311.635 349.258 311.706V310.634C350.019 310.456 350.8 310.045 351.599 309.402C352.398 308.723 353.122 307.58 353.769 305.972L367.186 273.495C367.339 273.495 367.491 273.495 367.643 273.495C367.795 273.495 367.948 273.495 368.1 273.495ZM375.065 296.272V297.343H358.051L358.622 296.272H375.065Z" fill="white"/>
<path d="M405.091 273.173C406.994 273.173 408.441 273.388 409.431 273.817C410.42 274.21 411.296 274.656 412.057 275.156C412.514 275.406 412.875 275.603 413.142 275.746C413.446 275.853 413.732 275.907 413.998 275.907C414.379 275.907 414.645 275.71 414.798 275.317C414.988 274.924 415.14 274.335 415.254 273.549H416.568C416.529 274.156 416.472 274.888 416.396 275.746C416.358 276.568 416.32 277.675 416.282 279.069C416.282 280.426 416.282 282.231 416.282 284.481H414.969C414.855 282.766 414.455 281.123 413.77 279.551C413.085 277.979 412.076 276.693 410.744 275.692C409.45 274.692 407.737 274.192 405.605 274.192C403.588 274.192 401.913 274.763 400.581 275.907C399.286 277.05 398.639 278.551 398.639 280.408C398.639 282.016 399.077 283.374 399.953 284.481C400.828 285.553 401.989 286.536 403.435 287.429C404.92 288.286 406.519 289.215 408.232 290.216C410.211 291.359 411.962 292.502 413.484 293.646C415.045 294.753 416.263 295.986 417.138 297.343C418.052 298.701 418.509 300.345 418.509 302.274C418.509 304.56 417.957 306.454 416.853 307.955C415.749 309.455 414.284 310.581 412.457 311.331C410.63 312.081 408.612 312.456 406.404 312.456C404.387 312.456 402.788 312.242 401.608 311.813C400.428 311.385 399.42 310.938 398.582 310.473C397.745 309.973 397.098 309.723 396.641 309.723C396.26 309.723 395.975 309.92 395.785 310.313C395.632 310.706 395.499 311.295 395.385 312.081H394.072C394.148 311.331 394.186 310.456 394.186 309.455C394.224 308.419 394.243 307.079 394.243 305.436C394.281 303.792 394.3 301.72 394.3 299.219H395.613C395.766 301.363 396.184 303.364 396.869 305.221C397.593 307.079 398.677 308.58 400.124 309.723C401.608 310.831 403.569 311.385 406.005 311.385C407.261 311.385 408.441 311.152 409.545 310.688C410.687 310.188 411.619 309.419 412.342 308.383C413.066 307.312 413.427 305.936 413.427 304.257C413.427 302.792 413.047 301.524 412.285 300.452C411.562 299.344 410.534 298.326 409.202 297.397C407.87 296.432 406.309 295.45 404.52 294.449C402.731 293.413 401.056 292.359 399.496 291.288C397.935 290.216 396.679 288.983 395.728 287.59C394.814 286.161 394.357 284.446 394.357 282.445C394.357 280.337 394.852 278.604 395.842 277.246C396.869 275.853 398.202 274.835 399.838 274.192C401.475 273.513 403.226 273.173 405.091 273.173Z" fill="white"/>
<path d="M440.778 273.173C442.682 273.173 444.128 273.388 445.118 273.817C446.107 274.21 446.983 274.656 447.744 275.156C448.201 275.406 448.562 275.603 448.829 275.746C449.133 275.853 449.419 275.907 449.685 275.907C450.066 275.907 450.332 275.71 450.485 275.317C450.675 274.924 450.827 274.335 450.941 273.549H452.255C452.217 274.156 452.16 274.888 452.083 275.746C452.045 276.568 452.007 277.675 451.969 279.069C451.969 280.426 451.969 282.231 451.969 284.481H450.656C450.542 282.766 450.142 281.123 449.457 279.551C448.772 277.979 447.763 276.693 446.431 275.692C445.137 274.692 443.424 274.192 441.292 274.192C439.275 274.192 437.6 274.763 436.268 275.907C434.974 277.05 434.327 278.551 434.327 280.408C434.327 282.016 434.764 283.374 435.64 284.481C436.515 285.553 437.676 286.536 439.123 287.429C440.607 288.286 442.206 289.215 443.919 290.216C445.898 291.359 447.649 292.502 449.172 293.646C450.732 294.753 451.95 295.986 452.826 297.343C453.739 298.701 454.196 300.345 454.196 302.274C454.196 304.56 453.644 306.454 452.54 307.955C451.436 309.455 449.971 310.581 448.144 311.331C446.317 312.081 444.299 312.456 442.092 312.456C440.074 312.456 438.476 312.242 437.296 311.813C436.116 311.385 435.107 310.938 434.269 310.473C433.432 309.973 432.785 309.723 432.328 309.723C431.948 309.723 431.662 309.92 431.472 310.313C431.32 310.706 431.186 311.295 431.072 312.081H429.759C429.835 311.331 429.873 310.456 429.873 309.455C429.911 308.419 429.93 307.079 429.93 305.436C429.968 303.792 429.987 301.72 429.987 299.219H431.301C431.453 301.363 431.871 303.364 432.557 305.221C433.28 307.079 434.365 308.58 435.811 309.723C437.296 310.831 439.256 311.385 441.692 311.385C442.948 311.385 444.128 311.152 445.232 310.688C446.374 310.188 447.306 309.419 448.03 308.383C448.753 307.312 449.114 305.936 449.114 304.257C449.114 302.792 448.734 301.524 447.973 300.452C447.249 299.344 446.222 298.326 444.889 297.397C443.557 296.432 441.996 295.45 440.207 294.449C438.418 293.413 436.744 292.359 435.183 291.288C433.622 290.216 432.366 288.983 431.415 287.59C430.501 286.161 430.044 284.446 430.044 282.445C430.044 280.337 430.539 278.604 431.529 277.246C432.557 275.853 433.889 274.835 435.526 274.192C437.162 273.513 438.913 273.173 440.778 273.173Z" fill="white"/>
<path d="M478.806 273.763V274.835C477.512 274.871 476.523 275.013 475.838 275.264C475.19 275.478 474.753 275.907 474.524 276.55C474.296 277.157 474.182 278.122 474.182 279.444V306.025C474.182 307.312 474.296 308.276 474.524 308.919C474.753 309.562 475.19 309.991 475.838 310.206C476.523 310.42 477.512 310.563 478.806 310.634V311.706C477.931 311.635 476.827 311.599 475.495 311.599C474.201 311.563 472.888 311.545 471.555 311.545C470.071 311.545 468.682 311.563 467.387 311.599C466.093 311.599 465.046 311.635 464.247 311.706V310.634C465.541 310.563 466.512 310.42 467.159 310.206C467.844 309.991 468.301 309.562 468.529 308.919C468.758 308.276 468.872 307.312 468.872 306.025V279.444C468.872 278.122 468.758 277.157 468.529 276.55C468.301 275.907 467.844 275.478 467.159 275.264C466.512 275.013 465.541 274.871 464.247 274.835V273.763C465.046 273.799 466.093 273.834 467.387 273.87C468.682 273.906 470.071 273.924 471.555 273.924C472.888 273.924 474.201 273.906 475.495 273.87C476.827 273.834 477.931 273.799 478.806 273.763Z" fill="white"/>
<path d="M500.667 273.173C502.57 273.173 504.016 273.388 505.006 273.817C505.996 274.21 506.871 274.656 507.632 275.156C508.089 275.406 508.451 275.603 508.717 275.746C509.022 275.853 509.307 275.907 509.574 275.907C509.954 275.907 510.221 275.71 510.373 275.317C510.563 274.924 510.716 274.335 510.83 273.549H512.143C512.105 274.156 512.048 274.888 511.972 275.746C511.934 276.568 511.895 277.675 511.857 279.069C511.857 280.426 511.857 282.231 511.857 284.481H510.544C510.43 282.766 510.03 281.123 509.345 279.551C508.66 277.979 507.651 276.693 506.319 275.692C505.025 274.692 503.312 274.192 501.18 274.192C499.163 274.192 497.488 274.763 496.156 275.907C494.862 277.05 494.215 278.551 494.215 280.408C494.215 282.016 494.653 283.374 495.528 284.481C496.403 285.553 497.564 286.536 499.011 287.429C500.495 288.286 502.094 289.215 503.807 290.216C505.786 291.359 507.537 292.502 509.06 293.646C510.62 294.753 511.838 295.986 512.714 297.343C513.627 298.701 514.084 300.345 514.084 302.274C514.084 304.56 513.532 306.454 512.428 307.955C511.325 309.455 509.859 310.581 508.032 311.331C506.205 312.081 504.188 312.456 501.98 312.456C499.962 312.456 498.364 312.242 497.184 311.813C496.004 311.385 494.995 310.938 494.158 310.473C493.32 309.973 492.673 309.723 492.216 309.723C491.836 309.723 491.55 309.92 491.36 310.313C491.208 310.706 491.075 311.295 490.96 312.081H489.647C489.723 311.331 489.761 310.456 489.761 309.455C489.799 308.419 489.818 307.079 489.818 305.436C489.856 303.792 489.876 301.72 489.876 299.219H491.189C491.341 301.363 491.76 303.364 492.445 305.221C493.168 307.079 494.253 308.58 495.699 309.723C497.184 310.831 499.144 311.385 501.58 311.385C502.836 311.385 504.016 311.152 505.12 310.688C506.262 310.188 507.195 309.419 507.918 308.383C508.641 307.312 509.003 305.936 509.003 304.257C509.003 302.792 508.622 301.524 507.861 300.452C507.138 299.344 506.11 298.326 504.778 297.397C503.445 296.432 501.885 295.45 500.096 294.449C498.307 293.413 496.632 292.359 495.071 291.288C493.511 290.216 492.255 288.983 491.303 287.59C490.389 286.161 489.933 284.446 489.933 282.445C489.933 280.337 490.427 278.604 491.417 277.246C492.445 275.853 493.777 274.835 495.414 274.192C497.051 273.513 498.801 273.173 500.667 273.173Z" fill="white"/>
<path d="M555.538 273.763C555.386 275.121 555.272 276.443 555.195 277.729C555.157 278.979 555.138 279.944 555.138 280.623C555.138 281.48 555.157 282.284 555.195 283.034C555.234 283.785 555.272 284.446 555.31 285.017H553.996C553.73 282.516 553.368 280.551 552.912 279.122C552.455 277.657 551.656 276.603 550.514 275.96C549.372 275.317 547.602 274.996 545.204 274.996H542.121V305.489C542.121 306.919 542.254 307.99 542.52 308.705C542.825 309.419 543.396 309.902 544.233 310.152C545.07 310.402 546.289 310.563 547.887 310.634V311.706C546.898 311.635 545.641 311.599 544.119 311.599C542.596 311.563 541.055 311.545 539.494 311.545C537.781 311.545 536.164 311.563 534.641 311.599C533.156 311.599 531.957 311.635 531.044 311.706V310.634C532.643 310.563 533.861 310.402 534.698 310.152C535.535 309.902 536.087 309.419 536.354 308.705C536.658 307.99 536.811 306.919 536.811 305.489V274.996H533.727C531.367 274.996 529.597 275.317 528.418 275.96C527.276 276.603 526.476 277.657 526.019 279.122C525.563 280.551 525.201 282.516 524.935 285.017H523.621C523.698 284.446 523.736 283.785 523.736 283.034C523.774 282.284 523.793 281.48 523.793 280.623C523.793 279.944 523.755 278.979 523.679 277.729C523.64 276.443 523.545 275.121 523.393 273.763C524.992 273.799 526.724 273.834 528.589 273.87C530.492 273.906 532.395 273.924 534.298 273.924C536.202 273.924 537.933 273.924 539.494 273.924C541.055 273.924 542.768 273.924 544.633 273.924C546.536 273.924 548.439 273.906 550.342 273.87C552.246 273.834 553.977 273.799 555.538 273.763Z" fill="white"/>
<path d="M596.687 273.763V274.835C595.393 274.871 594.403 275.013 593.718 275.264C593.071 275.478 592.633 275.907 592.405 276.55C592.177 277.157 592.062 278.122 592.062 279.444V306.025C592.062 307.312 592.177 308.276 592.405 308.919C592.633 309.562 593.071 309.991 593.718 310.206C594.403 310.384 595.393 310.473 596.687 310.473H600.855C602.644 310.473 604.091 310.295 605.195 309.938C606.336 309.58 607.231 309.026 607.878 308.276C608.563 307.49 609.077 306.454 609.42 305.168C609.762 303.882 610.029 302.31 610.219 300.452H611.532C611.418 301.559 611.361 303.024 611.361 304.846C611.361 305.525 611.38 306.508 611.418 307.794C611.494 309.044 611.608 310.348 611.761 311.706C609.819 311.635 607.631 311.599 605.195 311.599C602.758 311.563 600.589 311.545 598.686 311.545C597.848 311.545 596.763 311.545 595.431 311.545C594.137 311.545 592.729 311.563 591.206 311.599C589.683 311.599 588.142 311.617 586.581 311.652C585.021 311.652 583.536 311.67 582.128 311.706V310.634C583.422 310.563 584.393 310.42 585.04 310.206C585.725 309.991 586.182 309.562 586.41 308.919C586.638 308.276 586.753 307.312 586.753 306.025V279.444C586.753 278.122 586.638 277.157 586.41 276.55C586.182 275.907 585.725 275.478 585.04 275.264C584.393 275.013 583.422 274.871 582.128 274.835V273.763C582.927 273.799 583.974 273.834 585.268 273.87C586.562 273.906 587.952 273.924 589.436 273.924C590.768 273.924 592.081 273.906 593.376 273.87C594.708 273.834 595.812 273.799 596.687 273.763Z" fill="white"/>
<path d="M647.935 273.763C647.783 275.121 647.669 276.443 647.593 277.729C647.555 278.979 647.536 279.944 647.536 280.623C647.536 281.48 647.555 282.284 647.593 283.034C647.631 283.785 647.669 284.446 647.707 285.017H646.394C646.127 282.516 645.766 280.551 645.309 279.122C644.852 277.657 644.053 276.603 642.911 275.96C641.769 275.317 639.999 274.996 637.601 274.996H634.518V305.489C634.518 306.919 634.651 307.99 634.917 308.705C635.222 309.419 635.793 309.902 636.63 310.152C637.468 310.402 638.686 310.563 640.284 310.634V311.706C639.295 311.635 638.039 311.599 636.516 311.599C634.994 311.563 633.452 311.545 631.891 311.545C630.178 311.545 628.561 311.563 627.038 311.599C625.554 311.599 624.355 311.635 623.441 311.706V310.634C625.04 310.563 626.258 310.402 627.095 310.152C627.933 309.902 628.485 309.419 628.751 308.705C629.056 307.99 629.208 306.919 629.208 305.489V274.996H626.125C623.765 274.996 621.995 275.317 620.815 275.96C619.673 276.603 618.873 277.657 618.417 279.122C617.96 280.551 617.598 282.516 617.332 285.017H616.019C616.095 284.446 616.133 283.785 616.133 283.034C616.171 282.284 616.19 281.48 616.19 280.623C616.19 279.944 616.152 278.979 616.076 277.729C616.038 276.443 615.943 275.121 615.79 273.763C617.389 273.799 619.121 273.834 620.986 273.87C622.889 273.906 624.792 273.924 626.696 273.924C628.599 273.924 630.331 273.924 631.891 273.924C633.452 273.924 635.165 273.924 637.03 273.924C638.933 273.924 640.836 273.906 642.74 273.87C644.643 273.834 646.375 273.799 647.935 273.763Z" fill="white"/>
<path d="M672.435 273.763C679.248 273.763 684.311 275.371 687.622 278.586C690.934 281.766 692.59 286.339 692.59 292.306C692.59 296.2 691.771 299.612 690.134 302.542C688.536 305.436 686.195 307.687 683.112 309.294C680.029 310.902 676.298 311.706 671.921 311.706C671.35 311.706 670.589 311.688 669.637 311.652C668.685 311.617 667.696 311.599 666.668 311.599C665.678 311.563 664.765 311.545 663.927 311.545C662.595 311.545 661.282 311.563 659.988 311.599C658.694 311.599 657.647 311.635 656.848 311.706V310.634C658.142 310.563 659.112 310.42 659.759 310.206C660.445 309.991 660.901 309.562 661.13 308.919C661.358 308.276 661.472 307.312 661.472 306.025V279.444C661.472 278.122 661.358 277.157 661.13 276.55C660.901 275.907 660.445 275.478 659.759 275.264C659.112 275.013 658.142 274.871 656.848 274.835V273.763C657.647 273.799 658.694 273.852 659.988 273.924C661.282 273.959 662.557 273.959 663.813 273.924C665.146 273.888 666.649 273.852 668.324 273.817C669.999 273.781 671.369 273.763 672.435 273.763ZM671.007 274.728C669.256 274.728 668.115 275.031 667.582 275.639C667.049 276.246 666.782 277.479 666.782 279.337V306.133C666.782 307.99 667.049 309.223 667.582 309.83C668.153 310.438 669.313 310.741 671.064 310.741C675.213 310.741 678.43 310.045 680.714 308.651C682.997 307.222 684.596 305.15 685.51 302.435C686.423 299.719 686.88 296.415 686.88 292.52C686.88 288.519 686.366 285.214 685.338 282.606C684.349 279.962 682.693 277.997 680.371 276.711C678.087 275.389 674.966 274.728 671.007 274.728Z" fill="white"/>
<defs>
<linearGradient id="paint0_linear_618_2" x1="139.578" y1="86.9678" x2="152.859" y2="96.5675" gradientUnits="userSpaceOnUse">
<stop stop-color="#F7D55A"/>
<stop offset="1" stop-color="#F1483D"/>
</linearGradient>
<linearGradient id="paint1_linear_618_2" x1="158.296" y1="86.9678" x2="171.578" y2="96.5675" gradientUnits="userSpaceOnUse">
<stop stop-color="#F7D55A"/>
<stop offset="1" stop-color="#F1483D"/>
</linearGradient>
<linearGradient id="paint2_linear_618_2" x1="139.578" y1="106.801" x2="152.859" y2="116.4" gradientUnits="userSpaceOnUse">
<stop stop-color="#F7D55A"/>
<stop offset="1" stop-color="#F1483D"/>
</linearGradient>
<linearGradient id="paint3_linear_618_2" x1="158.296" y1="106.801" x2="171.578" y2="116.4" gradientUnits="userSpaceOnUse">
<stop stop-color="#F7D55A"/>
<stop offset="1" stop-color="#F1483D"/>
</linearGradient>
<linearGradient id="paint4_linear_618_2" x1="560.396" y1="137.258" x2="692.589" y2="137.258" gradientUnits="userSpaceOnUse">
<stop stop-color="#F03939"/>
<stop offset="1" stop-color="#F7E15C"/>
</linearGradient>
</defs>
</svg>
