<svg width="579" height="264" viewBox="0 0 579 264" fill="none" xmlns="http://www.w3.org/2000/svg">
<path d="M128.802 67.9094H115.773V80.9383H128.802V67.9094Z" fill="url(#paint0_linear_17_1092)"/>
<path d="M144.462 67.9094H131.434V80.9383H144.462V67.9094Z" fill="url(#paint1_linear_17_1092)"/>
<path d="M128.802 84.5031H115.773V97.532H128.802V84.5031Z" fill="url(#paint2_linear_17_1092)"/>
<path d="M144.462 84.5031H131.434V97.532H144.462V84.5031Z" fill="url(#paint3_linear_17_1092)"/>
<path d="M30.9384 103.771L120.952 38.1594C124.729 35.4008 129.822 35.4857 133.514 38.3291L209.184 96.6408C211.009 98.0413 213.258 98.8052 215.55 98.8052C225.523 98.8052 235.581 76.3548 227.73 70.2435L135.679 0.51566C132.029 -2.32778 121.164 7.39083 117.387 10.107L0.0849609 94.052L30.9384 103.728V103.771Z" fill="#001242"/>
<path d="M102.83 152.321V246.282C102.83 251.163 101.132 255.322 97.7794 258.674C94.4267 262.027 90.2676 263.725 85.3871 263.725C80.5066 263.725 76.5597 262.027 73.1645 258.674C69.8118 255.322 68.1143 251.163 68.1143 246.282V20.2076C68.1143 15.4544 69.8118 11.3802 73.1645 7.9851C76.5173 4.63239 80.5914 2.93481 85.3871 2.93481C90.1827 2.93481 94.4267 4.63239 97.7794 7.9851C101.132 11.3378 102.83 15.412 102.83 20.2076V119.983H157.407V60.4401C157.407 55.6869 159.104 51.6127 162.457 48.2176C165.81 44.8649 169.884 43.1673 174.679 43.1673C179.475 43.1673 183.719 44.8649 187.072 48.2176C190.424 51.5703 192.122 55.6445 192.122 60.4401V194.379C192.122 199.259 190.424 203.418 187.072 206.771C183.719 210.124 179.56 211.821 174.679 211.821C169.799 211.821 165.852 210.124 162.457 206.771C159.104 203.418 157.407 199.259 157.407 194.379V152.321H102.83Z" fill="#001242"/>
<path d="M309.552 184.83H248.652L241.522 201.678C240.206 204.861 238.084 207.323 235.156 209.105C232.228 210.888 229.13 211.779 225.819 211.779C224.249 211.779 222.467 211.482 220.472 210.888C218.477 210.293 216.653 209.317 214.912 207.917C213.172 206.516 211.73 204.734 210.541 202.569C209.353 200.405 208.759 197.689 208.759 194.548C208.759 192.299 209.268 189.965 210.329 187.588L263.124 71.0923C266.434 63.9625 271.909 60.3976 279.59 60.3976C287.272 60.3976 293.001 63.9625 296.057 71.0923L347.833 187.588C348.766 189.838 349.233 192.172 349.233 194.548C349.233 199.429 347.578 203.546 344.268 206.856C340.957 210.166 336.926 211.821 332.172 211.821C328.862 211.821 325.764 210.93 322.836 209.148C319.907 207.365 317.785 204.861 316.47 201.721L309.51 184.872L309.552 184.83ZM261.341 155.08H297.457L279.59 111.622L261.341 155.08Z" fill="#001242"/>
<path d="M406.229 179.737H450.663C455.034 179.737 458.811 181.307 461.994 184.405C465.177 187.503 466.747 191.323 466.747 195.822C466.747 200.32 465.177 204.14 461.994 207.238C458.811 210.336 455.034 211.906 450.663 211.906H388.744C383.99 211.906 379.916 210.209 376.521 206.856C373.168 203.503 371.471 199.429 371.471 194.633V80.3441C371.471 75.5909 373.168 71.5167 376.521 68.1216C379.874 64.7689 383.948 63.0713 388.744 63.0713C393.539 63.0713 397.783 64.7689 401.136 68.1216C404.489 71.4743 406.186 75.5485 406.186 80.3441V179.779L406.229 179.737Z" fill="#001242"/>
<path d="M502.142 165.393C495.436 162.507 489.58 158.56 484.572 153.552C479.564 148.544 475.617 142.688 472.731 135.94C469.845 129.192 468.36 122.02 468.36 114.381C468.36 106.742 469.803 99.6117 472.731 92.8214C475.617 86.0736 479.564 80.1745 484.572 75.2091C489.58 70.2437 495.436 66.2544 502.142 63.3685C508.847 60.4826 516.019 58.9973 523.616 58.9973C531.213 58.9973 538.385 60.4402 545.175 63.3685C551.923 66.2544 557.822 70.2012 562.787 75.2091C567.795 80.2169 571.742 86.0736 574.628 92.8214C577.514 99.5693 578.999 106.742 578.999 114.381C578.999 122.02 577.556 129.192 574.628 135.94C571.742 142.688 567.795 148.587 562.787 153.552C557.78 158.56 551.923 162.507 545.175 165.393C538.427 168.279 531.255 169.764 523.616 169.764C515.977 169.764 508.847 168.321 502.142 165.393ZM495.733 126.136C497.303 129.786 499.468 133.011 502.226 135.77C504.985 138.529 508.21 140.693 511.86 142.263C515.51 143.834 519.457 144.597 523.616 144.597C527.775 144.597 531.764 143.834 535.456 142.263C539.149 140.693 542.417 138.529 545.175 135.77C547.934 133.011 550.098 129.786 551.668 126.136C553.239 122.487 554.002 118.54 554.002 114.381C554.002 110.222 553.239 106.275 551.668 102.625C550.098 98.9751 547.934 95.7497 545.175 92.9912C542.417 90.2326 539.191 88.0258 535.456 86.4131C531.764 84.8004 527.817 83.994 523.616 83.994C519.414 83.994 515.51 84.8004 511.86 86.4131C508.21 88.0258 504.985 90.2326 502.226 92.9912C499.468 95.7497 497.303 98.9751 495.733 102.625C494.163 106.275 493.399 110.222 493.399 114.381C493.399 118.54 494.163 122.487 495.733 126.136Z" fill="url(#paint4_linear_17_1092)"/>
<path d="M0 94.0944L30.9807 103.474C30.9807 103.474 3.64978 119.346 0 94.0944Z" fill="#001242"/>
<path d="M158.7 260V259.1C159.72 259.04 160.485 258.92 160.995 258.74C161.535 258.56 161.895 258.2 162.075 257.66C162.255 257.12 162.345 256.31 162.345 255.23V232.91C162.345 231.8 162.255 230.99 162.075 230.48C161.895 229.94 161.535 229.58 160.995 229.4C160.485 229.19 159.72 229.07 158.7 229.04V228.14C159.39 228.17 160.26 228.2 161.31 228.23C162.36 228.26 163.395 228.275 164.415 228.275C165.585 228.275 166.68 228.26 167.7 228.23C168.72 228.2 169.545 228.17 170.175 228.14V229.04C169.155 229.07 168.375 229.19 167.835 229.4C167.325 229.58 166.98 229.94 166.8 230.48C166.62 230.99 166.53 231.8 166.53 232.91V255.23C166.53 256.31 166.62 257.12 166.8 257.66C166.98 258.2 167.325 258.56 167.835 258.74C168.375 258.92 169.155 259.04 170.175 259.1V260C169.545 259.94 168.72 259.91 167.7 259.91C166.68 259.88 165.585 259.865 164.415 259.865C163.395 259.865 162.36 259.88 161.31 259.91C160.26 259.91 159.39 259.94 158.7 260ZM139.89 260V259.1C140.91 259.04 141.675 258.92 142.185 258.74C142.725 258.56 143.085 258.2 143.265 257.66C143.445 257.12 143.535 256.31 143.535 255.23V232.91C143.535 231.8 143.445 230.99 143.265 230.48C143.085 229.94 142.725 229.58 142.185 229.4C141.675 229.19 140.91 229.07 139.89 229.04V228.14C140.52 228.17 141.345 228.2 142.365 228.23C143.385 228.26 144.48 228.275 145.65 228.275C146.7 228.275 147.735 228.26 148.755 228.23C149.805 228.2 150.675 228.17 151.365 228.14V229.04C150.345 229.07 149.565 229.19 149.025 229.4C148.515 229.58 148.17 229.94 147.99 230.48C147.81 230.99 147.72 231.8 147.72 232.91V255.23C147.72 256.31 147.81 257.12 147.99 257.66C148.17 258.2 148.515 258.56 149.025 258.74C149.565 258.92 150.345 259.04 151.365 259.1V260C150.675 259.94 149.805 259.91 148.755 259.91C147.735 259.88 146.7 259.865 145.65 259.865C144.48 259.865 143.385 259.88 142.365 259.91C141.345 259.91 140.52 259.94 139.89 260ZM146.145 244.43V243.53H163.92V244.43H146.145Z" fill="#001242"/>
<path d="M192.226 227.51C195.076 227.51 197.566 228.155 199.696 229.445C201.856 230.735 203.521 232.595 204.691 235.025C205.891 237.425 206.491 240.35 206.491 243.8C206.491 247.16 205.876 250.1 204.646 252.62C203.446 255.14 201.766 257.105 199.606 258.515C197.446 259.925 194.971 260.63 192.181 260.63C189.331 260.63 186.826 259.985 184.666 258.695C182.536 257.405 180.871 255.545 179.671 253.115C178.501 250.685 177.916 247.76 177.916 244.34C177.916 240.98 178.531 238.04 179.761 235.52C180.991 233 182.671 231.035 184.801 229.625C186.961 228.215 189.436 227.51 192.226 227.51ZM192.046 228.32C190.096 228.32 188.401 228.995 186.961 230.345C185.521 231.695 184.396 233.555 183.586 235.925C182.806 238.295 182.416 241.04 182.416 244.16C182.416 247.34 182.851 250.115 183.721 252.485C184.621 254.825 185.821 256.64 187.321 257.93C188.851 259.19 190.531 259.82 192.361 259.82C194.311 259.82 196.006 259.145 197.446 257.795C198.886 256.445 199.996 254.585 200.776 252.215C201.586 249.815 201.991 247.07 201.991 243.98C201.991 240.77 201.541 237.995 200.641 235.655C199.771 233.315 198.586 231.515 197.086 230.255C195.586 228.965 193.906 228.32 192.046 228.32Z" fill="#001242"/>
<path d="M249.664 228.14V229.04C248.644 229.07 247.864 229.19 247.324 229.4C246.814 229.58 246.469 229.94 246.289 230.48C246.109 230.99 246.019 231.8 246.019 232.91V255.23C246.019 256.31 246.109 257.12 246.289 257.66C246.469 258.2 246.814 258.56 247.324 258.74C247.864 258.92 248.644 259.04 249.664 259.1V260C248.974 259.94 248.104 259.91 247.054 259.91C246.034 259.88 244.999 259.865 243.949 259.865C242.779 259.865 241.684 259.88 240.664 259.91C239.644 259.91 238.819 259.94 238.189 260V259.1C239.209 259.04 239.974 258.92 240.484 258.74C241.024 258.56 241.384 258.2 241.564 257.66C241.744 257.12 241.834 256.31 241.834 255.23V230.48L242.014 230.615L230.989 260.225H230.269L218.929 231.02V254.78C218.929 255.86 219.019 256.715 219.199 257.345C219.409 257.945 219.799 258.38 220.369 258.65C220.969 258.89 221.854 259.04 223.024 259.1V260C222.484 259.94 221.779 259.91 220.909 259.91C220.039 259.88 219.214 259.865 218.434 259.865C217.684 259.865 216.919 259.88 216.139 259.91C215.389 259.91 214.759 259.94 214.249 260V259.1C215.269 259.04 216.034 258.89 216.544 258.65C217.084 258.38 217.444 257.945 217.624 257.345C217.804 256.715 217.894 255.86 217.894 254.78V232.91C217.894 231.8 217.804 230.99 217.624 230.48C217.444 229.94 217.084 229.58 216.544 229.4C216.034 229.19 215.269 229.07 214.249 229.04V228.14C214.759 228.17 215.389 228.2 216.139 228.23C216.919 228.26 217.684 228.275 218.434 228.275C219.094 228.275 219.769 228.26 220.459 228.23C221.179 228.2 221.779 228.17 222.259 228.14L232.474 255.05L231.709 255.41L241.834 228.275C242.194 228.275 242.539 228.275 242.869 228.275C243.229 228.275 243.589 228.275 243.949 228.275C244.999 228.275 246.034 228.26 247.054 228.23C248.104 228.2 248.974 228.17 249.664 228.14Z" fill="#001242"/>
<path d="M279.728 228.14C279.608 229.19 279.518 230.21 279.458 231.2C279.428 232.19 279.413 232.94 279.413 233.45C279.413 233.99 279.428 234.515 279.458 235.025C279.488 235.505 279.518 235.91 279.548 236.24H278.513C278.333 234.47 278.078 233.075 277.748 232.055C277.418 231.005 276.848 230.27 276.038 229.85C275.258 229.4 274.073 229.175 272.483 229.175H268.748C267.728 229.175 266.948 229.265 266.408 229.445C265.898 229.595 265.553 229.94 265.373 230.48C265.193 230.99 265.103 231.8 265.103 232.91V255.23C265.103 256.31 265.193 257.12 265.373 257.66C265.553 258.2 265.898 258.56 266.408 258.74C266.948 258.89 267.728 258.965 268.748 258.965H272.033C273.923 258.965 275.348 258.71 276.308 258.2C277.298 257.69 278.003 256.865 278.423 255.725C278.873 254.555 279.203 252.98 279.413 251H280.448C280.358 251.81 280.313 252.89 280.313 254.24C280.313 254.81 280.328 255.635 280.358 256.715C280.418 257.765 280.508 258.86 280.628 260C279.098 259.94 277.373 259.91 275.453 259.91C273.533 259.88 271.823 259.865 270.323 259.865C269.663 259.865 268.808 259.865 267.758 259.865C266.738 259.865 265.628 259.88 264.428 259.91C263.228 259.91 262.013 259.925 260.783 259.955C259.553 259.955 258.383 259.97 257.273 260V259.1C258.293 259.04 259.058 258.92 259.568 258.74C260.108 258.56 260.468 258.2 260.648 257.66C260.828 257.12 260.918 256.31 260.918 255.23V232.91C260.918 231.8 260.828 230.99 260.648 230.48C260.468 229.94 260.108 229.58 259.568 229.4C259.058 229.19 258.293 229.07 257.273 229.04V228.14C258.383 228.17 259.553 228.2 260.783 228.23C262.013 228.23 263.228 228.245 264.428 228.275C265.628 228.275 266.738 228.275 267.758 228.275C268.808 228.275 269.663 228.275 270.323 228.275C271.703 228.275 273.263 228.275 275.003 228.275C276.773 228.245 278.348 228.2 279.728 228.14ZM271.988 243.53C271.988 243.53 271.988 243.68 271.988 243.98C271.988 244.28 271.988 244.43 271.988 244.43H263.753C263.753 244.43 263.753 244.28 263.753 243.98C263.753 243.68 263.753 243.53 263.753 243.53H271.988ZM273.293 237.59C273.173 239.3 273.113 240.605 273.113 241.505C273.143 242.405 273.158 243.23 273.158 243.98C273.158 244.73 273.173 245.555 273.203 246.455C273.233 247.355 273.308 248.66 273.428 250.37H272.393C272.273 249.41 272.123 248.48 271.943 247.58C271.793 246.65 271.433 245.9 270.863 245.33C270.323 244.73 269.393 244.43 268.073 244.43V243.53C269.063 243.53 269.813 243.335 270.323 242.945C270.863 242.525 271.253 242 271.493 241.37C271.733 240.74 271.898 240.095 271.988 239.435C272.078 238.745 272.168 238.13 272.258 237.59H273.293Z" fill="#001242"/>
<path d="M314.658 227.915L325.638 256.22C326.088 257.36 326.598 258.125 327.168 258.515C327.738 258.875 328.263 259.07 328.743 259.1V260C328.143 259.94 327.408 259.91 326.538 259.91C325.668 259.88 324.798 259.865 323.928 259.865C322.758 259.865 321.663 259.88 320.643 259.91C319.623 259.91 318.798 259.94 318.168 260V259.1C319.698 259.04 320.673 258.785 321.093 258.335C321.513 257.855 321.423 256.85 320.823 255.32L312.453 232.955L313.173 232.37L305.343 252.71C304.863 253.91 304.578 254.93 304.488 255.77C304.398 256.58 304.473 257.225 304.713 257.705C304.983 258.185 305.418 258.53 306.018 258.74C306.648 258.95 307.428 259.07 308.358 259.1V260C307.518 259.94 306.633 259.91 305.703 259.91C304.803 259.88 303.963 259.865 303.183 259.865C302.433 259.865 301.788 259.88 301.248 259.91C300.738 259.91 300.258 259.94 299.808 260V259.1C300.408 258.95 301.023 258.605 301.653 258.065C302.283 257.495 302.853 256.535 303.363 255.185L313.938 227.915C314.058 227.915 314.178 227.915 314.298 227.915C314.418 227.915 314.538 227.915 314.658 227.915ZM320.148 247.04V247.94H306.738L307.188 247.04H320.148Z" fill="#001242"/>
<path d="M343.813 227.645C345.313 227.645 346.453 227.825 347.233 228.185C348.013 228.515 348.703 228.89 349.303 229.31C349.663 229.52 349.948 229.685 350.158 229.805C350.398 229.895 350.623 229.94 350.833 229.94C351.133 229.94 351.343 229.775 351.463 229.445C351.613 229.115 351.733 228.62 351.823 227.96H352.858C352.828 228.47 352.783 229.085 352.723 229.805C352.693 230.495 352.663 231.425 352.633 232.595C352.633 233.735 352.633 235.25 352.633 237.14H351.598C351.508 235.7 351.193 234.32 350.653 233C350.113 231.68 349.318 230.6 348.268 229.76C347.248 228.92 345.898 228.5 344.218 228.5C342.628 228.5 341.308 228.98 340.258 229.94C339.238 230.9 338.728 232.16 338.728 233.72C338.728 235.07 339.073 236.21 339.763 237.14C340.453 238.04 341.368 238.865 342.508 239.615C343.678 240.335 344.938 241.115 346.288 241.955C347.848 242.915 349.228 243.875 350.428 244.835C351.658 245.765 352.618 246.8 353.308 247.94C354.028 249.08 354.388 250.46 354.388 252.08C354.388 254 353.953 255.59 353.083 256.85C352.213 258.11 351.058 259.055 349.618 259.685C348.178 260.315 346.588 260.63 344.848 260.63C343.258 260.63 341.998 260.45 341.068 260.09C340.138 259.73 339.343 259.355 338.683 258.965C338.023 258.545 337.513 258.335 337.153 258.335C336.853 258.335 336.628 258.5 336.478 258.83C336.358 259.16 336.253 259.655 336.163 260.315H335.128C335.188 259.685 335.218 258.95 335.218 258.11C335.248 257.24 335.263 256.115 335.263 254.735C335.293 253.355 335.308 251.615 335.308 249.515H336.343C336.463 251.315 336.793 252.995 337.333 254.555C337.903 256.115 338.758 257.375 339.898 258.335C341.068 259.265 342.613 259.73 344.533 259.73C345.523 259.73 346.453 259.535 347.323 259.145C348.223 258.725 348.958 258.08 349.528 257.21C350.098 256.31 350.383 255.155 350.383 253.745C350.383 252.515 350.083 251.45 349.483 250.55C348.913 249.62 348.103 248.765 347.053 247.985C346.003 247.175 344.773 246.35 343.363 245.51C341.953 244.64 340.633 243.755 339.403 242.855C338.173 241.955 337.183 240.92 336.433 239.75C335.713 238.55 335.353 237.11 335.353 235.43C335.353 233.66 335.743 232.205 336.523 231.065C337.333 229.895 338.383 229.04 339.673 228.5C340.963 227.93 342.343 227.645 343.813 227.645Z" fill="#001242"/>
<path d="M371.94 227.645C373.44 227.645 374.58 227.825 375.36 228.185C376.14 228.515 376.83 228.89 377.43 229.31C377.79 229.52 378.075 229.685 378.285 229.805C378.525 229.895 378.75 229.94 378.96 229.94C379.26 229.94 379.47 229.775 379.59 229.445C379.74 229.115 379.86 228.62 379.95 227.96H380.985C380.955 228.47 380.91 229.085 380.85 229.805C380.82 230.495 380.79 231.425 380.76 232.595C380.76 233.735 380.76 235.25 380.76 237.14H379.725C379.635 235.7 379.32 234.32 378.78 233C378.24 231.68 377.445 230.6 376.395 229.76C375.375 228.92 374.025 228.5 372.345 228.5C370.755 228.5 369.435 228.98 368.385 229.94C367.365 230.9 366.855 232.16 366.855 233.72C366.855 235.07 367.2 236.21 367.89 237.14C368.58 238.04 369.495 238.865 370.635 239.615C371.805 240.335 373.065 241.115 374.415 241.955C375.975 242.915 377.355 243.875 378.555 244.835C379.785 245.765 380.745 246.8 381.435 247.94C382.155 249.08 382.515 250.46 382.515 252.08C382.515 254 382.08 255.59 381.21 256.85C380.34 258.11 379.185 259.055 377.745 259.685C376.305 260.315 374.715 260.63 372.975 260.63C371.385 260.63 370.125 260.45 369.195 260.09C368.265 259.73 367.47 259.355 366.81 258.965C366.15 258.545 365.64 258.335 365.28 258.335C364.98 258.335 364.755 258.5 364.605 258.83C364.485 259.16 364.38 259.655 364.29 260.315H363.255C363.315 259.685 363.345 258.95 363.345 258.11C363.375 257.24 363.39 256.115 363.39 254.735C363.42 253.355 363.435 251.615 363.435 249.515H364.47C364.59 251.315 364.92 252.995 365.46 254.555C366.03 256.115 366.885 257.375 368.025 258.335C369.195 259.265 370.74 259.73 372.66 259.73C373.65 259.73 374.58 259.535 375.45 259.145C376.35 258.725 377.085 258.08 377.655 257.21C378.225 256.31 378.51 255.155 378.51 253.745C378.51 252.515 378.21 251.45 377.61 250.55C377.04 249.62 376.23 248.765 375.18 247.985C374.13 247.175 372.9 246.35 371.49 245.51C370.08 244.64 368.76 243.755 367.53 242.855C366.3 241.955 365.31 240.92 364.56 239.75C363.84 238.55 363.48 237.11 363.48 235.43C363.48 233.66 363.87 232.205 364.65 231.065C365.46 229.895 366.51 229.04 367.8 228.5C369.09 227.93 370.47 227.645 371.94 227.645Z" fill="#001242"/>
<path d="M401.911 228.14V229.04C400.891 229.07 400.111 229.19 399.571 229.4C399.061 229.58 398.716 229.94 398.536 230.48C398.356 230.99 398.266 231.8 398.266 232.91V255.23C398.266 256.31 398.356 257.12 398.536 257.66C398.716 258.2 399.061 258.56 399.571 258.74C400.111 258.92 400.891 259.04 401.911 259.1V260C401.221 259.94 400.351 259.91 399.301 259.91C398.281 259.88 397.246 259.865 396.196 259.865C395.026 259.865 393.931 259.88 392.911 259.91C391.891 259.91 391.066 259.94 390.436 260V259.1C391.456 259.04 392.221 258.92 392.731 258.74C393.271 258.56 393.631 258.2 393.811 257.66C393.991 257.12 394.081 256.31 394.081 255.23V232.91C394.081 231.8 393.991 230.99 393.811 230.48C393.631 229.94 393.271 229.58 392.731 229.4C392.221 229.19 391.456 229.07 390.436 229.04V228.14C391.066 228.17 391.891 228.2 392.911 228.23C393.931 228.26 395.026 228.275 396.196 228.275C397.246 228.275 398.281 228.26 399.301 228.23C400.351 228.2 401.221 228.17 401.911 228.14Z" fill="#001242"/>
<path d="M419.14 227.645C420.64 227.645 421.78 227.825 422.56 228.185C423.34 228.515 424.03 228.89 424.63 229.31C424.99 229.52 425.275 229.685 425.485 229.805C425.725 229.895 425.95 229.94 426.16 229.94C426.46 229.94 426.67 229.775 426.79 229.445C426.94 229.115 427.06 228.62 427.15 227.96H428.185C428.155 228.47 428.11 229.085 428.05 229.805C428.02 230.495 427.99 231.425 427.96 232.595C427.96 233.735 427.96 235.25 427.96 237.14H426.925C426.835 235.7 426.52 234.32 425.98 233C425.44 231.68 424.645 230.6 423.595 229.76C422.575 228.92 421.225 228.5 419.545 228.5C417.955 228.5 416.635 228.98 415.585 229.94C414.565 230.9 414.055 232.16 414.055 233.72C414.055 235.07 414.4 236.21 415.09 237.14C415.78 238.04 416.695 238.865 417.835 239.615C419.005 240.335 420.265 241.115 421.615 241.955C423.175 242.915 424.555 243.875 425.755 244.835C426.985 245.765 427.945 246.8 428.635 247.94C429.355 249.08 429.715 250.46 429.715 252.08C429.715 254 429.28 255.59 428.41 256.85C427.54 258.11 426.385 259.055 424.945 259.685C423.505 260.315 421.915 260.63 420.175 260.63C418.585 260.63 417.325 260.45 416.395 260.09C415.465 259.73 414.67 259.355 414.01 258.965C413.35 258.545 412.84 258.335 412.48 258.335C412.18 258.335 411.955 258.5 411.805 258.83C411.685 259.16 411.58 259.655 411.49 260.315H410.455C410.515 259.685 410.545 258.95 410.545 258.11C410.575 257.24 410.59 256.115 410.59 254.735C410.62 253.355 410.635 251.615 410.635 249.515H411.67C411.79 251.315 412.12 252.995 412.66 254.555C413.23 256.115 414.085 257.375 415.225 258.335C416.395 259.265 417.94 259.73 419.86 259.73C420.85 259.73 421.78 259.535 422.65 259.145C423.55 258.725 424.285 258.08 424.855 257.21C425.425 256.31 425.71 255.155 425.71 253.745C425.71 252.515 425.41 251.45 424.81 250.55C424.24 249.62 423.43 248.765 422.38 247.985C421.33 247.175 420.1 246.35 418.69 245.51C417.28 244.64 415.96 243.755 414.73 242.855C413.5 241.955 412.51 240.92 411.76 239.75C411.04 238.55 410.68 237.11 410.68 235.43C410.68 233.66 411.07 232.205 411.85 231.065C412.66 229.895 413.71 229.04 415 228.5C416.29 227.93 417.67 227.645 419.14 227.645Z" fill="#001242"/>
<path d="M462.387 228.14C462.267 229.28 462.177 230.39 462.117 231.47C462.087 232.52 462.072 233.33 462.072 233.9C462.072 234.62 462.087 235.295 462.117 235.925C462.147 236.555 462.177 237.11 462.207 237.59H461.172C460.962 235.49 460.677 233.84 460.317 232.64C459.957 231.41 459.327 230.525 458.427 229.985C457.527 229.445 456.132 229.175 454.242 229.175H451.812V254.78C451.812 255.98 451.917 256.88 452.127 257.48C452.367 258.08 452.817 258.485 453.477 258.695C454.137 258.905 455.097 259.04 456.357 259.1V260C455.577 259.94 454.587 259.91 453.387 259.91C452.187 259.88 450.972 259.865 449.742 259.865C448.392 259.865 447.117 259.88 445.917 259.91C444.747 259.91 443.802 259.94 443.082 260V259.1C444.342 259.04 445.302 258.905 445.962 258.695C446.622 258.485 447.057 258.08 447.267 257.48C447.507 256.88 447.627 255.98 447.627 254.78V229.175H445.197C443.337 229.175 441.942 229.445 441.012 229.985C440.112 230.525 439.482 231.41 439.122 232.64C438.762 233.84 438.477 235.49 438.267 237.59H437.232C437.292 237.11 437.322 236.555 437.322 235.925C437.352 235.295 437.367 234.62 437.367 233.9C437.367 233.33 437.337 232.52 437.277 231.47C437.247 230.39 437.172 229.28 437.052 228.14C438.312 228.17 439.677 228.2 441.147 228.23C442.647 228.26 444.147 228.275 445.647 228.275C447.147 228.275 448.512 228.275 449.742 228.275C450.972 228.275 452.322 228.275 453.792 228.275C455.292 228.275 456.792 228.26 458.292 228.23C459.792 228.2 461.157 228.17 462.387 228.14Z" fill="#001242"/>
<path d="M494.819 228.14V229.04C493.799 229.07 493.019 229.19 492.479 229.4C491.969 229.58 491.624 229.94 491.444 230.48C491.264 230.99 491.174 231.8 491.174 232.91V255.23C491.174 256.31 491.264 257.12 491.444 257.66C491.624 258.2 491.969 258.56 492.479 258.74C493.019 258.89 493.799 258.965 494.819 258.965H498.104C499.514 258.965 500.654 258.815 501.524 258.515C502.424 258.215 503.129 257.75 503.639 257.12C504.179 256.46 504.584 255.59 504.854 254.51C505.124 253.43 505.334 252.11 505.484 250.55H506.519C506.429 251.48 506.384 252.71 506.384 254.24C506.384 254.81 506.399 255.635 506.429 256.715C506.489 257.765 506.579 258.86 506.699 260C505.169 259.94 503.444 259.91 501.524 259.91C499.604 259.88 497.894 259.865 496.394 259.865C495.734 259.865 494.879 259.865 493.829 259.865C492.809 259.865 491.699 259.88 490.499 259.91C489.299 259.91 488.084 259.925 486.854 259.955C485.624 259.955 484.454 259.97 483.344 260V259.1C484.364 259.04 485.129 258.92 485.639 258.74C486.179 258.56 486.539 258.2 486.719 257.66C486.899 257.12 486.989 256.31 486.989 255.23V232.91C486.989 231.8 486.899 230.99 486.719 230.48C486.539 229.94 486.179 229.58 485.639 229.4C485.129 229.19 484.364 229.07 483.344 229.04V228.14C483.974 228.17 484.799 228.2 485.819 228.23C486.839 228.26 487.934 228.275 489.104 228.275C490.154 228.275 491.189 228.26 492.209 228.23C493.259 228.2 494.129 228.17 494.819 228.14Z" fill="#001242"/>
<path d="M535.21 228.14C535.09 229.28 535 230.39 534.94 231.47C534.91 232.52 534.895 233.33 534.895 233.9C534.895 234.62 534.91 235.295 534.94 235.925C534.97 236.555 535 237.11 535.03 237.59H533.995C533.785 235.49 533.5 233.84 533.14 232.64C532.78 231.41 532.15 230.525 531.25 229.985C530.35 229.445 528.955 229.175 527.065 229.175H524.635V254.78C524.635 255.98 524.74 256.88 524.95 257.48C525.19 258.08 525.64 258.485 526.3 258.695C526.96 258.905 527.92 259.04 529.18 259.1V260C528.4 259.94 527.41 259.91 526.21 259.91C525.01 259.88 523.795 259.865 522.565 259.865C521.215 259.865 519.94 259.88 518.74 259.91C517.57 259.91 516.625 259.94 515.905 260V259.1C517.165 259.04 518.125 258.905 518.785 258.695C519.445 258.485 519.88 258.08 520.09 257.48C520.33 256.88 520.45 255.98 520.45 254.78V229.175H518.02C516.16 229.175 514.765 229.445 513.835 229.985C512.935 230.525 512.305 231.41 511.945 232.64C511.585 233.84 511.3 235.49 511.09 237.59H510.055C510.115 237.11 510.145 236.555 510.145 235.925C510.175 235.295 510.19 234.62 510.19 233.9C510.19 233.33 510.16 232.52 510.1 231.47C510.07 230.39 509.995 229.28 509.875 228.14C511.135 228.17 512.5 228.2 513.97 228.23C515.47 228.26 516.97 228.275 518.47 228.275C519.97 228.275 521.335 228.275 522.565 228.275C523.795 228.275 525.145 228.275 526.615 228.275C528.115 228.275 529.615 228.26 531.115 228.23C532.615 228.2 533.98 228.17 535.21 228.14Z" fill="#001242"/>
<path d="M554.519 228.14C559.889 228.14 563.879 229.49 566.489 232.19C569.099 234.86 570.404 238.7 570.404 243.71C570.404 246.98 569.759 249.845 568.469 252.305C567.209 254.735 565.364 256.625 562.934 257.975C560.504 259.325 557.564 260 554.114 260C553.664 260 553.064 259.985 552.314 259.955C551.564 259.925 550.784 259.91 549.974 259.91C549.194 259.88 548.474 259.865 547.814 259.865C546.764 259.865 545.729 259.88 544.709 259.91C543.689 259.91 542.864 259.94 542.234 260V259.1C543.254 259.04 544.019 258.92 544.529 258.74C545.069 258.56 545.429 258.2 545.609 257.66C545.789 257.12 545.879 256.31 545.879 255.23V232.91C545.879 231.8 545.789 230.99 545.609 230.48C545.429 229.94 545.069 229.58 544.529 229.4C544.019 229.19 543.254 229.07 542.234 229.04V228.14C542.864 228.17 543.689 228.215 544.709 228.275C545.729 228.305 546.734 228.305 547.724 228.275C548.774 228.245 549.959 228.215 551.279 228.185C552.599 228.155 553.679 228.14 554.519 228.14ZM553.394 228.95C552.014 228.95 551.114 229.205 550.694 229.715C550.274 230.225 550.064 231.26 550.064 232.82V255.32C550.064 256.88 550.274 257.915 550.694 258.425C551.144 258.935 552.059 259.19 553.439 259.19C556.709 259.19 559.244 258.605 561.044 257.435C562.844 256.235 564.104 254.495 564.824 252.215C565.544 249.935 565.904 247.16 565.904 243.89C565.904 240.53 565.499 237.755 564.689 235.565C563.909 233.345 562.604 231.695 560.774 230.615C558.974 229.505 556.514 228.95 553.394 228.95Z" fill="#001242"/>
<defs>
<linearGradient id="paint0_linear_17_1092" x1="116.33" y1="72.3475" x2="127.442" y2="80.379" gradientUnits="userSpaceOnUse">
<stop stop-color="#F7D55A"/>
<stop offset="1" stop-color="#F1483D"/>
</linearGradient>
<linearGradient id="paint1_linear_17_1092" x1="131.991" y1="72.3475" x2="143.102" y2="80.379" gradientUnits="userSpaceOnUse">
<stop stop-color="#F7D55A"/>
<stop offset="1" stop-color="#F1483D"/>
</linearGradient>
<linearGradient id="paint2_linear_17_1092" x1="116.33" y1="88.9412" x2="127.442" y2="96.9727" gradientUnits="userSpaceOnUse">
<stop stop-color="#F7D55A"/>
<stop offset="1" stop-color="#F1483D"/>
</linearGradient>
<linearGradient id="paint3_linear_17_1092" x1="131.991" y1="88.9412" x2="143.102" y2="96.9727" gradientUnits="userSpaceOnUse">
<stop stop-color="#F7D55A"/>
<stop offset="1" stop-color="#F1483D"/>
</linearGradient>
<linearGradient id="paint4_linear_17_1092" x1="468.402" y1="114.423" x2="578.999" y2="114.423" gradientUnits="userSpaceOnUse">
<stop stop-color="#F03939"/>
<stop offset="1" stop-color="#F7E15C"/>
</linearGradient>
</defs>
</svg>
