<?xml version="1.0" encoding="UTF-8"?>
<svg id="Layer_2" data-name="Layer 2" xmlns="http://www.w3.org/2000/svg" xmlns:xlink="http://www.w3.org/1999/xlink" viewBox="0 0 144.9 71.91">
  <defs>
    <style>
      .cls-1 {
        fill: none;
      }

      .cls-2 {
        fill: url(#linear-gradient);
      }

      .cls-3 {
        clip-path: url(#clippath);
      }

      .cls-4 {
        fill: #001242;
      }

      .cls-5 {
        fill: #f6d17d;
      }

      .cls-6 {
        fill: #ec54ab;
      }

      .cls-7 {
        fill: #83bdef;
      }

      .cls-8 {
        fill: #aafbd1;
      }

      .cls-9 {
        fill: url(#linear-gradient-8);
      }

      .cls-10 {
        fill: url(#linear-gradient-9);
      }

      .cls-11 {
        fill: url(#linear-gradient-3);
      }

      .cls-12 {
        fill: url(#linear-gradient-4);
      }

      .cls-13 {
        fill: url(#linear-gradient-2);
      }

      .cls-14 {
        fill: url(#linear-gradient-6);
      }

      .cls-15 {
        fill: url(#linear-gradient-7);
      }

      .cls-16 {
        fill: url(#linear-gradient-5);
      }

      .cls-17 {
        fill: url(#linear-gradient-13);
      }

      .cls-18 {
        fill: url(#linear-gradient-12);
      }

      .cls-19 {
        fill: url(#linear-gradient-10);
      }

      .cls-20 {
        fill: url(#linear-gradient-11);
      }
    </style>
    <linearGradient id="linear-gradient" x1="16.57" y1="57.93" x2="46" y2="57.93" gradientUnits="userSpaceOnUse">
      <stop offset="0" stop-color="#f03939"/>
      <stop offset="1" stop-color="#f7e15c"/>
    </linearGradient>
    <linearGradient id="linear-gradient-2" x1="46.36" y1="58.39" x2="54.73" y2="58.39" xlink:href="#linear-gradient"/>
    <linearGradient id="linear-gradient-3" x1="54.83" y1="62.34" x2="80.06" y2="62.34" xlink:href="#linear-gradient"/>
    <linearGradient id="linear-gradient-4" x1="83.13" y1="58.39" x2="91.5" y2="58.39" xlink:href="#linear-gradient"/>
    <linearGradient id="linear-gradient-5" x1="91.97" y1="60.26" x2="102.08" y2="60.26" xlink:href="#linear-gradient"/>
    <linearGradient id="linear-gradient-6" x1="102.69" y1="62.41" x2="118.44" y2="62.41" xlink:href="#linear-gradient"/>
    <linearGradient id="linear-gradient-7" x1="120.92" y1="57.01" x2="140.09" y2="57.01" xlink:href="#linear-gradient"/>
    <clipPath id="clippath">
      <path class="cls-1" d="m14.57,40.11v33.8h127.52v-33.8H14.57Zm27.79,15.42s-.08.05-.12.07c-1.45.78-3.1,1.18-4.89,1.18-.15,0-.29-.01-.44-.02v-3.19c.24.01.47.04.72.04,1.77,0,3.13-.53,4.15-1.62l.58-.03v3.57Zm38.66-.56l-1.12,4.48h-2.22l-.72-2.11.48-1.89c-.33.1-.66.21-1,.35l-1.06-3.12c1.11-.51,1.99-.77,2.68-.77.79,0,1.53.33,2.15.96.68.68.96,1.39.81,2.1Zm14.33.43h-2.18l-.83-.45c-.06-.08-.1-.15-.14-.23l-.08-.69.24-1,.97-.77h1.62v2.66h1.18l-.78.46Zm14.73.38c-.46.26-.83.52-1.16.82-.87.78-1.59,1.74-2.18,2.86h-3.67v-.14s0-.02,0-.02c.73-1.69,1.72-3.15,2.91-4.36h4.36l-.26.85Zm30.83-11.88l-3.95,15.83c-1.08.68-2.3,1.22-3.67,1.56l-.13-.25,1.56-6.23c1.27-1.19,2.16-2.88,2.78-4.89.78-2.53,1.11-5.56,1.22-8.71.26-.07.52-.11.76-.11.97,0,1.62.63,1.62,1.58,0,.34-.06.74-.18,1.22Z"/>
    </clipPath>
    <linearGradient id="linear-gradient-8" x1="46.36" y1="58.39" x2="54.73" y2="58.39" xlink:href="#linear-gradient"/>
    <linearGradient id="linear-gradient-9" x1="54.83" y1="62.34" x2="80.06" y2="62.34" xlink:href="#linear-gradient"/>
    <linearGradient id="linear-gradient-10" x1="83.13" y1="58.39" x2="91.5" y2="58.39" xlink:href="#linear-gradient"/>
    <linearGradient id="linear-gradient-11" x1="91.97" y1="60.26" x2="102.08" y2="60.26" xlink:href="#linear-gradient"/>
    <linearGradient id="linear-gradient-12" x1="102.69" y1="62.41" x2="118.44" y2="62.41" xlink:href="#linear-gradient"/>
    <linearGradient id="linear-gradient-13" x1="120.92" y1="57.01" x2="140.09" y2="57.01" xlink:href="#linear-gradient"/>
  </defs>
  <g id="Layer_1-2" data-name="Layer 1">
    <g>
      <g>
        <rect class="cls-6" x="22.43" y="20.03" width="4.24" height="4.24"/>
        <rect class="cls-7" x="27.38" y="20.03" width="4.24" height="4.24"/>
        <rect class="cls-8" x="22.43" y="24.98" width="4.24" height="4.24"/>
        <rect class="cls-5" x="27.38" y="24.98" width="4.24" height="4.24"/>
      </g>
      <polyline class="cls-4" points="0 25.2 29.15 4.33 56.01 25.2 47.97 25.2 28 9.81 5.28 26.37"/>
      <g>
        <g>
          <path class="cls-2" d="m30.07,59.97c-.72,2.89-1.77,5.35-3.15,7.37l1.43.74c1.45.75,2.66,1.31,3.65,1.69.98.38,1.98.56,2.99.56,1.39,0,2.72-.19,3.96-.58s2.56-1.02,3.96-1.9c-1.24,1.29-2.5,2.23-3.78,2.81s-2.75.87-4.4.87c-1.12,0-2.25-.22-3.41-.66-1.17-.44-2.58-1.07-4.23-1.9-.1-.08-.43-.24-.96-.5-.91,1.12-1.88,1.96-2.91,2.56-1.03.6-2.08.89-3.15.89s-1.97-.21-2.58-.62-.91-1-.91-1.75c0-1.14.49-2.05,1.49-2.74s2.18-1.03,3.55-1.03c1.27,0,2.66.35,4.19,1.05,1.17-1.86,2.1-4.15,2.79-6.86l1.39-5.55c.13-.49.22-.81.27-.97-1.34-1.11-2.46-2.63-3.34-4.58,1.09,1.53,2.29,2.74,3.61,3.65.96-2.74,2.3-4.85,4.02-6.33,1.72-1.48,3.69-2.21,5.91-2.21,1.29,0,2.42.24,3.4.72s1.66,1.13,2.07,1.96c.05.31.08.6.08.89,0,1.58-.38,3-1.12,4.25-.75,1.26-1.79,2.24-3.1,2.94-1.32.71-2.79,1.07-4.42,1.07-2.27,0-4.23-.49-5.86-1.48l-.04.08-1.39,5.55v.03Zm-7.34,10.08c.79-.49,1.54-1.19,2.27-2.1-1.48-.7-2.7-1.05-3.68-1.05s-1.7.23-2.32.68c-.62.45-.93,1.02-.93,1.73,0,.46.2.83.6,1.08.4.26.96.39,1.69.39.81,0,1.59-.24,2.38-.74h0Zm12.45-22.76c-1.46,1.39-2.59,3.39-3.4,5.97,1.73.91,3.68,1.36,5.86,1.36s3.87-.72,5.08-2.16c1.22-1.43,1.86-3.36,1.94-5.8-.31-.44-.86-.8-1.67-1.07s-1.75-.41-2.84-.41c-1.86,0-3.52.7-4.98,2.1h0Z"/>
          <path class="cls-13" d="m46.36,71.17c0-.26.05-.58.16-.97l3.76-15.01c.03-.08.04-.18.04-.31,0-.21-.12-.31-.35-.31-.57,0-1.67.53-3.3,1.59.86-.93,1.7-1.68,2.54-2.25s1.54-.86,2.11-.86c.23,0,.4.04.5.12.1.08.15.21.15.39s-.07.53-.19,1.05l-3.73,15.01c-.03.08-.04.18-.04.31,0,.21.12.31.35.31.57,0,1.65-.53,3.26-1.59-.83.91-1.67,1.64-2.52,2.23-.85.59-1.57.87-2.13.87-.41,0-.62-.19-.62-.58Zm5.12-23.1c-.26-.24-.39-.56-.39-.95,0-.57.23-1.06.7-1.48.46-.41.98-.62,1.55-.62.41,0,.75.13,1.01.37.26.24.39.56.39.95,0,.57-.23,1.06-.7,1.48-.46.41-.98.62-1.55.62-.41,0-.75-.13-1.01-.37Z"/>
          <path class="cls-11" d="m54.92,71.59c-.09-.12-.11-.28-.06-.49l3.92-15.82c.03-.05.04-.13.04-.23s-.03-.19-.09-.27c-.07-.08-.15-.12-.25-.12-.29,0-.68.13-1.18.37-.5.24-1.2.65-2.07,1.22.86-.93,1.7-1.68,2.54-2.25s1.54-.86,2.11-.86c.41,0,.62.19.62.58,0,.26-.05.58-.15.97l-.86,3.49c.83-.86,1.81-1.69,2.97-2.53,1.15-.83,2.26-1.49,3.31-2s1.87-.76,2.44-.76c.52,0,1,.22,1.43.66.44.44.62.84.55,1.2l-.86,3.41c.83-.86,1.81-1.69,2.97-2.53,1.15-.83,2.26-1.49,3.31-2s1.87-.76,2.44-.76c.52,0,1,.22,1.43.66.44.44.62.84.55,1.2l-3.73,14.86c-.03.08-.04.18-.04.31,0,.21.12.31.35.31.6,0,1.68-.53,3.26-1.59-.83.91-1.67,1.64-2.52,2.23s-1.57.87-2.13.87c-.41,0-.62-.19-.62-.58,0-.26.05-.58.15-.97l4.04-16.06c-1.55.18-3.18.77-4.89,1.79s-3.37,2.3-5,3.88l-2.44,9.82c-.03.08-.04.18-.04.31,0,.21.12.31.35.31.57,0,1.65-.53,3.26-1.59-.83.91-1.67,1.64-2.53,2.23s-1.57.87-2.13.87c-.41,0-.62-.19-.62-.58,0-.26.05-.58.15-.97l4.04-16.06c-1.55.18-3.18.77-4.89,1.79s-3.37,2.3-5,3.88l-2.79,11.28c-.05.21-.16.37-.33.49-.17.12-.35.18-.56.18s-.35-.06-.44-.18h0Z"/>
          <path class="cls-12" d="m83.13,71.17c0-.26.05-.58.16-.97l3.76-15.01c.03-.08.04-.18.04-.31,0-.21-.12-.31-.35-.31-.57,0-1.67.53-3.3,1.59.86-.93,1.7-1.68,2.54-2.25s1.54-.86,2.11-.86c.23,0,.4.04.5.12.1.08.15.21.15.39s-.07.53-.19,1.05l-3.73,15.01c-.03.08-.04.18-.04.31,0,.21.12.31.35.31.57,0,1.65-.53,3.26-1.59-.83.91-1.67,1.64-2.52,2.23s-1.57.87-2.13.87c-.41,0-.62-.19-.62-.58h0Zm5.12-23.1c-.26-.24-.39-.56-.39-.95,0-.57.23-1.06.7-1.48.46-.41.98-.62,1.55-.62.41,0,.75.13,1.01.37.26.24.39.56.39.95,0,.57-.23,1.06-.7,1.48-.46.41-.98.62-1.55.62-.41,0-.75-.13-1.01-.37Z"/>
          <path class="cls-16" d="m93.64,69.39c-.03.05-.04.12-.04.19,0,.26.18.39.55.39.49,0,1.13-.12,1.92-.35.79-.23,1.69-.6,2.69-1.12-1.03.91-2.09,1.64-3.16,2.19s-1.99.83-2.74.83c-.31,0-.54-.04-.68-.13s-.21-.25-.21-.49c0-.29.05-.6.15-.93l3.88-15.55h-2.94l.27-1.12h2.94l.89-3.61c.13-.44.41-.66.86-.66.21,0,.36.07.46.19.1.13.13.29.08.46l-.89,3.61h4.42l-.27,1.12h-4.42l-3.76,14.98v.02Z"/>
          <path class="cls-14" d="m105.07,70.96c-.86-.64-1.54-1.44-2-2.42-.26-.77-.39-1.7-.39-2.79,0-2.04.44-4.06,1.3-6.05.86-1.99,2.06-3.62,3.59-4.89,1.53-1.27,3.22-1.9,5.08-1.9,2.3,0,4.08,1.03,5.32,3.1.31.93.46,1.84.46,2.72,0,1.68-.63,3.05-1.88,4.11-1.26,1.06-2.81,1.59-4.67,1.59-2.32,0-4.08-.77-5.24-2.32.57.39,1.29.7,2.17.91s1.77.33,2.68.33c1.7,0,3.07-.44,4.09-1.3,1.02-.86,1.54-2.07,1.54-3.62,0-.72-.1-1.63-.31-2.72-1.06-1.08-2.43-1.63-4.11-1.63s-3.15.6-4.46,1.79c-1.32,1.19-2.35,2.73-3.08,4.61s-1.11,3.83-1.11,5.81c0,.86.07,1.7.19,2.56.93,1.27,2.25,1.9,3.96,1.9,1.32,0,2.7-.39,4.15-1.17,1.45-.78,2.84-1.95,4.19-3.53-1.27,2.01-2.58,3.5-3.92,4.44s-2.77,1.42-4.27,1.42c-1.32,0-2.41-.32-3.28-.95h-.02Z"/>
          <path class="cls-15" d="m133.44,69.62c-.03.08-.04.18-.04.31,0,.21.12.31.35.31.6,0,1.68-.53,3.26-1.59-.83.91-1.67,1.64-2.53,2.23s-1.57.87-2.13.87c-.21,0-.35-.04-.44-.13s-.13-.23-.13-.44c0-.23.04-.55.12-.97l.78-3.15c-.88,1.39-2.03,2.55-3.46,3.47-1.42.91-2.72,1.38-3.88,1.38-.91,0-1.68-.26-2.31-.77-.64-.52-1.21-1.25-1.73-2.21-.26-.96-.39-1.9-.39-2.84,0-2.27.45-4.43,1.36-6.46.91-2.03,2.12-3.66,3.65-4.89,1.53-1.22,3.15-1.85,4.89-1.85.93,0,1.7.16,2.32.49s1.14.82,1.55,1.49c-1.24-.55-2.53-.81-3.88-.81-1.6,0-3.06.62-4.36,1.86-1.31,1.24-2.32,2.83-3.06,4.75-.74,1.93-1.11,3.88-1.11,5.84,0,.91.07,1.81.19,2.72.46.52.91.9,1.36,1.14.44.24.94.37,1.51.37.83,0,1.74-.27,2.74-.81,1-.55,1.96-1.32,2.91-2.32.94-1.01,1.75-2.17,2.42-3.49l4.97-19.86c.03-.08.04-.18.04-.31,0-.21-.12-.31-.35-.31-.57,0-1.65.53-3.26,1.59.83-.91,1.67-1.64,2.52-2.23.86-.58,1.57-.87,2.13-.87.41,0,.62.19.62.58,0,.26-.05.58-.15.97l-6.48,25.95h-.02Z"/>
        </g>
        <g>
          <g>
            <path class="cls-4" d="m16.74,17.75v17.45h20.17V0h5.45v59.45h-5.45v-19.55h-20.17l-.52,32.02h-5.38l.52-54.16h5.38Z"/>
            <path class="cls-4" d="m58.44,46.34l-4.34,13.12h-5.57l14.17-41.7h6.5l14.23,41.7h-5.75l-4.45-13.12h-14.79Zm13.67-4.21l-4.08-12c-.93-2.72-1.54-5.2-2.17-7.61h-.13c-.62,2.47-1.3,5.01-2.1,7.55l-4.08,12.06h12.56Z"/>
            <path class="cls-4" d="m89.56,17.75h5.38v37.19h17.82v4.52h-23.21V17.75Z"/>
          </g>
          <path class="cls-4" d="m144.67,33.78c-.55-5.58-2.15-10.75-5.47-14.02-2.28-2.24-5.36-3.6-9.47-3.6-4.5,0-7.82,1.65-10.22,4.3-2.98,3.31-4.52,8.19-5.09,13.42-.18,1.67-.27,3.37-.27,5.07,0,4.1.43,8.2,1.55,11.78,1.98,6.33,6.11,11,13.78,11.01.01,0,.02,0,.03,0,7.17,0,11.2-4.16,13.32-9.78,1.51-4.02,2.05-8.8,2.05-13.34,0-1.62-.07-3.25-.23-4.83Zm-15,22.94s-.05,0-.08,0c-4.83,0-7.22-3.66-8.34-8.45-.67-2.89-.88-6.18-.88-9.33,0-1.32.03-2.6.11-3.84.29-4.88,1.24-9.04,3.5-11.52,1.39-1.53,3.28-2.41,5.82-2.41s4.54,1.13,5.88,2.96c1.99,2.71,2.77,6.96,3,11.38.05,1.05.08,2.11.08,3.17,0,4.04-.28,8.04-1.26,11.25-1.23,4-3.55,6.75-7.81,6.79Z"/>
        </g>
        <g class="cls-3">
          <g>
            <path class="cls-2" d="m30.07,59.97c-.72,2.89-1.77,5.35-3.15,7.37l1.43.74c1.45.75,2.66,1.31,3.65,1.69.98.38,1.98.56,2.99.56,1.39,0,2.72-.19,3.96-.58s2.56-1.02,3.96-1.9c-1.24,1.29-2.5,2.23-3.78,2.81s-2.75.87-4.4.87c-1.12,0-2.25-.22-3.41-.66-1.17-.44-2.58-1.07-4.23-1.9-.1-.08-.43-.24-.96-.5-.91,1.12-1.88,1.96-2.91,2.56-1.03.6-2.08.89-3.15.89s-1.97-.21-2.58-.62-.91-1-.91-1.75c0-1.14.49-2.05,1.49-2.74s2.18-1.03,3.55-1.03c1.27,0,2.66.35,4.19,1.05,1.17-1.86,2.1-4.15,2.79-6.86l1.39-5.55c.13-.49.22-.81.27-.97-1.34-1.11-2.46-2.63-3.34-4.58,1.09,1.53,2.29,2.74,3.61,3.65.96-2.74,2.3-4.85,4.02-6.33,1.72-1.48,3.69-2.21,5.91-2.21,1.29,0,2.42.24,3.4.72s1.66,1.13,2.07,1.96c.05.31.08.6.08.89,0,1.58-.38,3-1.12,4.25-.75,1.26-1.79,2.24-3.1,2.94-1.32.71-2.79,1.07-4.42,1.07-2.27,0-4.23-.49-5.86-1.48l-.04.08-1.39,5.55v.03Zm-7.34,10.08c.79-.49,1.54-1.19,2.27-2.1-1.48-.7-2.7-1.05-3.68-1.05s-1.7.23-2.32.68c-.62.45-.93,1.02-.93,1.73,0,.46.2.83.6,1.08.4.26.96.39,1.69.39.81,0,1.59-.24,2.38-.74h0Zm12.45-22.76c-1.46,1.39-2.59,3.39-3.4,5.97,1.73.91,3.68,1.36,5.86,1.36s3.87-.72,5.08-2.16c1.22-1.43,1.86-3.36,1.94-5.8-.31-.44-.86-.8-1.67-1.07s-1.75-.41-2.84-.41c-1.86,0-3.52.7-4.98,2.1h0Z"/>
            <path class="cls-9" d="m46.36,71.17c0-.26.05-.58.16-.97l3.76-15.01c.03-.08.04-.18.04-.31,0-.21-.12-.31-.35-.31-.57,0-1.67.53-3.3,1.59.86-.93,1.7-1.68,2.54-2.25s1.54-.86,2.11-.86c.23,0,.4.04.5.12.1.08.15.21.15.39s-.07.53-.19,1.05l-3.73,15.01c-.03.08-.04.18-.04.31,0,.21.12.31.35.31.57,0,1.65-.53,3.26-1.59-.83.91-1.67,1.64-2.52,2.23-.85.59-1.57.87-2.13.87-.41,0-.62-.19-.62-.58Zm5.12-23.1c-.26-.24-.39-.56-.39-.95,0-.57.23-1.06.7-1.48.46-.41.98-.62,1.55-.62.41,0,.75.13,1.01.37.26.24.39.56.39.95,0,.57-.23,1.06-.7,1.48-.46.41-.98.62-1.55.62-.41,0-.75-.13-1.01-.37Z"/>
            <path class="cls-10" d="m54.92,71.59c-.09-.12-.11-.28-.06-.49l3.92-15.82c.03-.05.04-.13.04-.23s-.03-.19-.09-.27c-.07-.08-.15-.12-.25-.12-.29,0-.68.13-1.18.37-.5.24-1.2.65-2.07,1.22.86-.93,1.7-1.68,2.54-2.25s1.54-.86,2.11-.86c.41,0,.62.19.62.58,0,.26-.05.58-.15.97l-.86,3.49c.83-.86,1.81-1.69,2.97-2.53,1.15-.83,2.26-1.49,3.31-2s1.87-.76,2.44-.76c.52,0,1,.22,1.43.66.44.44.62.84.55,1.2l-.86,3.41c.83-.86,1.81-1.69,2.97-2.53,1.15-.83,2.26-1.49,3.31-2s1.87-.76,2.44-.76c.52,0,1,.22,1.43.66.44.44.62.84.55,1.2l-3.73,14.86c-.03.08-.04.18-.04.31,0,.21.12.31.35.31.6,0,1.68-.53,3.26-1.59-.83.91-1.67,1.64-2.52,2.23s-1.57.87-2.13.87c-.41,0-.62-.19-.62-.58,0-.26.05-.58.15-.97l4.04-16.06c-1.55.18-3.18.77-4.89,1.79s-3.37,2.3-5,3.88l-2.44,9.82c-.03.08-.04.18-.04.31,0,.21.12.31.35.31.57,0,1.65-.53,3.26-1.59-.83.91-1.67,1.64-2.53,2.23s-1.57.87-2.13.87c-.41,0-.62-.19-.62-.58,0-.26.05-.58.15-.97l4.04-16.06c-1.55.18-3.18.77-4.89,1.79s-3.37,2.3-5,3.88l-2.79,11.28c-.05.21-.16.37-.33.49-.17.12-.35.18-.56.18s-.35-.06-.44-.18h0Z"/>
            <path class="cls-19" d="m83.13,71.17c0-.26.05-.58.16-.97l3.76-15.01c.03-.08.04-.18.04-.31,0-.21-.12-.31-.35-.31-.57,0-1.67.53-3.3,1.59.86-.93,1.7-1.68,2.54-2.25s1.54-.86,2.11-.86c.23,0,.4.04.5.12.1.08.15.21.15.39s-.07.53-.19,1.05l-3.73,15.01c-.03.08-.04.18-.04.31,0,.21.12.31.35.31.57,0,1.65-.53,3.26-1.59-.83.91-1.67,1.64-2.52,2.23s-1.57.87-2.13.87c-.41,0-.62-.19-.62-.58h0Zm5.12-23.1c-.26-.24-.39-.56-.39-.95,0-.57.23-1.06.7-1.48.46-.41.98-.62,1.55-.62.41,0,.75.13,1.01.37.26.24.39.56.39.95,0,.57-.23,1.06-.7,1.48-.46.41-.98.62-1.55.62-.41,0-.75-.13-1.01-.37Z"/>
            <path class="cls-20" d="m93.64,69.39c-.03.05-.04.12-.04.19,0,.26.18.39.55.39.49,0,1.13-.12,1.92-.35.79-.23,1.69-.6,2.69-1.12-1.03.91-2.09,1.64-3.16,2.19s-1.99.83-2.74.83c-.31,0-.54-.04-.68-.13s-.21-.25-.21-.49c0-.29.05-.6.15-.93l3.88-15.55h-2.94l.27-1.12h2.94l.89-3.61c.13-.44.41-.66.86-.66.21,0,.36.07.46.19.1.13.13.29.08.46l-.89,3.61h4.42l-.27,1.12h-4.42l-3.76,14.98v.02Z"/>
            <path class="cls-18" d="m105.07,70.96c-.86-.64-1.54-1.44-2-2.42-.26-.77-.39-1.7-.39-2.79,0-2.04.44-4.06,1.3-6.05.86-1.99,2.06-3.62,3.59-4.89,1.53-1.27,3.22-1.9,5.08-1.9,2.3,0,4.08,1.03,5.32,3.1.31.93.46,1.84.46,2.72,0,1.68-.63,3.05-1.88,4.11-1.26,1.06-2.81,1.59-4.67,1.59-2.32,0-4.08-.77-5.24-2.32.57.39,1.29.7,2.17.91s1.77.33,2.68.33c1.7,0,3.07-.44,4.09-1.3,1.02-.86,1.54-2.07,1.54-3.62,0-.72-.1-1.63-.31-2.72-1.06-1.08-2.43-1.63-4.11-1.63s-3.15.6-4.46,1.79c-1.32,1.19-2.35,2.73-3.08,4.61s-1.11,3.83-1.11,5.81c0,.86.07,1.7.19,2.56.93,1.27,2.25,1.9,3.96,1.9,1.32,0,2.7-.39,4.15-1.17,1.45-.78,2.84-1.95,4.19-3.53-1.27,2.01-2.58,3.5-3.92,4.44s-2.77,1.42-4.27,1.42c-1.32,0-2.41-.32-3.28-.95h-.02Z"/>
            <path class="cls-17" d="m133.44,69.62c-.03.08-.04.18-.04.31,0,.21.12.31.35.31.6,0,1.68-.53,3.26-1.59-.83.91-1.67,1.64-2.53,2.23s-1.57.87-2.13.87c-.21,0-.35-.04-.44-.13s-.13-.23-.13-.44c0-.23.04-.55.12-.97l.78-3.15c-.88,1.39-2.03,2.55-3.46,3.47-1.42.91-2.72,1.38-3.88,1.38-.91,0-1.68-.26-2.31-.77-.64-.52-1.21-1.25-1.73-2.21-.26-.96-.39-1.9-.39-2.84,0-2.27.45-4.43,1.36-6.46.91-2.03,2.12-3.66,3.65-4.89,1.53-1.22,3.15-1.85,4.89-1.85.93,0,1.7.16,2.32.49s1.14.82,1.55,1.49c-1.24-.55-2.53-.81-3.88-.81-1.6,0-3.06.62-4.36,1.86-1.31,1.24-2.32,2.83-3.06,4.75-.74,1.93-1.11,3.88-1.11,5.84,0,.91.07,1.81.19,2.72.46.52.91.9,1.36,1.14.44.24.94.37,1.51.37.83,0,1.74-.27,2.74-.81,1-.55,1.96-1.32,2.91-2.32.94-1.01,1.75-2.17,2.42-3.49l4.97-19.86c.03-.08.04-.18.04-.31,0-.21-.12-.31-.35-.31-.57,0-1.65.53-3.26,1.59.83-.91,1.67-1.64,2.52-2.23.86-.58,1.57-.87,2.13-.87.41,0,.62.19.62.58,0,.26-.05.58-.15.97l-6.48,25.95h-.02Z"/>
          </g>
        </g>
      </g>
      <g>
        <path class="cls-4" d="m49.42,5.56h.88v2.8h3.48v-2.8h.89v6.69h-.89v-3.13h-3.48v3.13h-.88v-6.69Z"/>
        <path class="cls-4" d="m64.85,8.86c0,1.84-1.03,3.48-3.13,3.48-1.97,0-3.06-1.52-3.06-3.44s1.11-3.44,3.14-3.44c1.88,0,3.05,1.41,3.05,3.4Zm-5.26,0c0,1.44.73,2.71,2.17,2.71,1.55,0,2.17-1.28,2.17-2.7s-.7-2.66-2.17-2.66-2.17,1.23-2.17,2.65Z"/>
        <path class="cls-4" d="m74.54,9.4c0-1.25.02-2.51.05-3.21h-.04c-.29,1.09-1.36,3.95-2.13,6.05h-.8c-.58-1.71-1.7-4.93-2-6.07h-.03c.05.78.08,2.26.08,3.41v2.66h-.84v-6.69h1.32c.76,2.07,1.69,4.76,1.92,5.6h0c.16-.64,1.26-3.57,2.05-5.6h1.28v6.69h-.86v-2.84Z"/>
        <path class="cls-4" d="m84.01,9.12h-3.32v2.36h3.65l-.12.76h-4.4v-6.69h4.35v.76h-3.49v2.05h3.32v.76Z"/>
        <path class="cls-4" d="m94.09,10.24l-.72,2.01h-.88l2.38-6.69h1.09l2.49,6.69h-.95l-.74-2.01h-2.66Zm2.44-.76c-.64-1.76-.99-2.69-1.13-3.2h0c-.16.57-.56,1.7-1.07,3.2h2.21Z"/>
        <path class="cls-4" d="m102.57,10.38c.18.81.73,1.24,1.7,1.24,1.04,0,1.45-.49,1.45-1.12,0-.67-.33-1.05-1.66-1.36-1.58-.38-2.12-.92-2.12-1.86,0-1,.73-1.81,2.22-1.81,1.59,0,2.25.92,2.34,1.8h-.9c-.12-.59-.49-1.08-1.47-1.08-.82,0-1.27.36-1.27,1s.37.87,1.55,1.16c1.9.46,2.24,1.2,2.24,2.07,0,1.08-.8,1.92-2.43,1.92s-2.4-.92-2.55-1.95h.9Z"/>
        <path class="cls-4" d="m111.04,10.38c.18.81.73,1.24,1.7,1.24,1.04,0,1.45-.49,1.45-1.12,0-.67-.33-1.05-1.66-1.36-1.58-.38-2.12-.92-2.12-1.86,0-1,.73-1.81,2.22-1.81,1.59,0,2.25.92,2.34,1.8h-.9c-.12-.59-.49-1.08-1.47-1.08-.82,0-1.27.36-1.27,1s.37.87,1.55,1.16c1.9.46,2.24,1.2,2.24,2.07,0,1.08-.8,1.92-2.43,1.92s-2.4-.92-2.55-1.95h.9Z"/>
        <path class="cls-4" d="m119.9,5.56v6.69h-.88v-6.69h.88Z"/>
        <path class="cls-4" d="m124.67,10.38c.18.81.73,1.24,1.7,1.24,1.04,0,1.45-.49,1.45-1.12,0-.67-.33-1.05-1.66-1.36-1.58-.38-2.12-.92-2.12-1.86,0-1,.73-1.81,2.22-1.81,1.59,0,2.25.92,2.34,1.8h-.9c-.12-.59-.49-1.08-1.47-1.08-.82,0-1.27.36-1.27,1s.37.87,1.55,1.16c1.9.46,2.24,1.2,2.24,2.07,0,1.08-.8,1.92-2.43,1.92s-2.4-.92-2.55-1.95h.9Z"/>
        <path class="cls-4" d="m133.99,6.32h-2.15v-.76h5.21v.76h-2.16v5.93h-.89v-5.93Z"/>
      </g>
    </g>
  </g>
</svg>