<svg width="59" height="59" viewBox="0 0 59 59" fill="none" xmlns="http://www.w3.org/2000/svg">
<path d="M43.7315 42.337C43.2821 42.337 42.9249 41.9798 42.9249 41.5304C42.9249 41.0809 43.2821 40.7237 43.7315 40.7237H48.387C48.3063 40.355 48.2026 39.9977 48.0643 39.652L43.1092 27.4026C42.1297 24.9942 39.7905 23.4155 37.1977 23.4155H35.9417V19.5667C31.701 17.8843 27.5411 17.8151 23.4733 19.5667V23.4155H21.8139C19.2096 23.4155 16.8819 24.9942 15.9024 27.4026L10.9473 39.652C10.6362 40.4241 10.4749 41.2423 10.4749 42.0489C10.4749 43.7083 11.1202 45.3331 12.3417 46.5546C13.5401 47.753 15.1649 48.4214 16.8473 48.4214H42.1413C43.8352 48.4214 45.46 47.753 46.6469 46.5546C47.7993 45.4022 48.4331 43.8927 48.5022 42.337H48.4907H43.7315ZM37.2092 39.4561H32.8995V43.7659H26.1122V39.4561H21.8024V32.6688H26.1122V28.3591H32.8995V32.6688H37.2092V39.4561ZM41.012 41.6917C41.0004 41.7493 40.9889 41.7954 40.9659 41.8415C40.9428 41.8876 40.9198 41.9337 40.8967 41.9798C40.8622 42.0259 40.8391 42.0604 40.793 42.1065C40.6432 42.2563 40.4358 42.337 40.2168 42.337C40.1592 42.337 40.1131 42.337 40.0555 42.3255C40.0094 42.3139 39.9518 42.3024 39.9057 42.2794C39.8596 42.2563 39.8135 42.2333 39.7674 42.2102C39.7213 42.1757 39.6868 42.1526 39.6407 42.1065C39.4909 41.9567 39.4102 41.7493 39.4102 41.5304C39.4102 41.3229 39.5024 41.104 39.6407 40.9542C39.6752 40.9196 39.7213 40.885 39.7674 40.8505C39.8135 40.8159 39.8596 40.7929 39.9057 40.7813C39.9518 40.7583 40.0094 40.7468 40.0555 40.7352C40.3206 40.6776 40.5971 40.7698 40.7815 40.9542C40.8161 40.9888 40.8506 41.0348 40.8852 41.0809C40.9198 41.127 40.9428 41.1731 40.9543 41.2192C40.9774 41.2653 40.9889 41.3229 41.0004 41.369C41.012 41.4266 41.012 41.4727 41.012 41.5304C41.0235 41.588 41.0235 41.6341 41.012 41.6917Z" fill="#1B3954"/>
<path d="M24.5795 50.0347H18.0803V52.1895H24.5795V50.0347Z" fill="#16ADE1"/>
<path d="M40.9198 50.0347H34.4205V52.1895H40.9198V50.0347Z" fill="#16ADE1"/>
<path d="M52.7428 12.065C52.6275 11.9613 52.5123 11.8691 52.3971 11.7769C51.383 11.316 50.3574 10.9011 49.3318 10.5093C36.391 5.57729 22.609 5.57729 9.67969 10.5093C8.6541 10.9011 7.62852 11.3275 6.61445 11.7769C6.49922 11.8691 6.37246 11.9613 6.26875 12.065C4.82832 13.298 3.91797 15.1187 3.91797 17.1583C3.91797 20.8689 6.92559 23.8765 10.6361 23.8765C14.3467 23.8765 17.3428 20.8689 17.3428 17.1583C17.3428 16.5361 17.2506 15.9253 17.1008 15.3492C25.2939 13.1597 33.7061 13.1597 41.8992 15.3492C41.7379 15.9253 41.6572 16.5361 41.6572 17.1583C41.6572 20.8689 44.6648 23.8765 48.3754 23.8765C52.0859 23.8765 55.0936 20.8689 55.0936 17.1583C55.082 15.1187 54.1717 13.298 52.7428 12.065Z" fill="#16ADE1"/>
</svg>
