<svg width="59" height="59" viewBox="0 0 59 59" fill="none" xmlns="http://www.w3.org/2000/svg">
<path d="M32.45 8.83848V7.75527C32.45 7.13301 32.957 6.62598 33.5793 6.62598C34.2016 6.62598 34.7086 6.11895 34.7086 5.49668V3.66445C34.7086 3.04219 34.2016 2.53516 33.5793 2.53516H25.4207C24.7984 2.53516 24.2914 3.04219 24.2914 3.66445V5.47363C24.2914 6.0959 24.7984 6.60293 25.4207 6.60293C26.043 6.60293 26.55 7.10996 26.55 7.73223V8.81543C14.7269 10.2904 5.57734 20.3734 5.60039 32.5998C5.61191 45.8172 16.2826 56.4648 29.5 56.4648C42.7059 56.4648 53.3996 45.7596 53.3996 32.5652C53.3996 20.3619 44.2615 10.2904 32.45 8.83848ZM29.5 51.5098C19.0367 51.5098 10.5555 43.0285 10.5555 32.5652C10.5555 22.102 19.0367 13.6207 29.5 13.6207C39.9633 13.6207 48.4445 22.102 48.4445 32.5652C48.4445 43.0285 39.9633 51.5098 29.5 51.5098Z" fill="#1B3954"/>
<path d="M29.5 20.2121C29.9494 20.2121 30.3066 19.8549 30.3066 19.4055V16.9971C30.3066 16.5477 29.9494 16.1904 29.5 16.1904C29.0506 16.1904 28.6934 16.5477 28.6934 16.9971V19.4055C28.6934 19.8549 29.0506 20.2121 29.5 20.2121Z" fill="#1B3954"/>
<path d="M38.7994 24.0725C39.0068 24.0725 39.2142 23.9918 39.364 23.842L41.058 22.1481C41.3691 21.837 41.3691 21.3184 41.058 21.0073C40.7468 20.6961 40.2283 20.6961 39.9172 21.0073L38.2232 22.7012C37.9121 23.0124 37.9121 23.5309 38.2232 23.842C38.3845 23.9918 38.592 24.0725 38.7994 24.0725Z" fill="#1B3954"/>
<path d="M45.0566 31.7585H42.6482C42.1988 31.7585 41.8416 32.1158 41.8416 32.5652C41.8416 33.0146 42.1988 33.3718 42.6482 33.3718H45.0566C45.506 33.3718 45.8632 33.0146 45.8632 32.5652C45.8632 32.1158 45.4945 31.7585 45.0566 31.7585Z" fill="#1B3954"/>
<path d="M39.364 41.2885C39.0529 40.9774 38.5344 40.9774 38.2232 41.2885C37.9121 41.5997 37.9121 42.1182 38.2232 42.4293L39.9172 44.1233C40.0785 44.2846 40.2859 44.3538 40.4818 44.3538C40.6777 44.3538 40.8967 44.2731 41.0465 44.1233C41.3576 43.8122 41.3576 43.2936 41.0465 42.9825L39.364 41.2885Z" fill="#1B3954"/>
<path d="M29.5 44.9067C29.0506 44.9067 28.6934 45.264 28.6934 45.7134V48.1218C28.6934 48.5712 29.0506 48.9284 29.5 48.9284C29.9494 48.9284 30.3066 48.5712 30.3066 48.1218V45.7134C30.3066 45.264 29.9494 44.9067 29.5 44.9067Z" fill="#1B3954"/>
<path d="M19.6359 41.2885L17.942 42.9825C17.6308 43.2936 17.6308 43.8122 17.942 44.1233C18.1033 44.2846 18.3107 44.3538 18.5066 44.3538C18.7025 44.3538 18.9215 44.2731 19.0713 44.1233L20.7652 42.4293C21.0763 42.1182 21.0763 41.5997 20.7652 41.2885C20.4541 40.9774 19.947 40.9774 19.6359 41.2885Z" fill="#1B3954"/>
<path d="M16.3518 31.7585H13.9434C13.4939 31.7585 13.1367 32.1158 13.1367 32.5652C13.1367 33.0146 13.4939 33.3718 13.9434 33.3718H16.3518C16.8012 33.3718 17.1584 33.0146 17.1584 32.5652C17.1584 32.1158 16.7896 31.7585 16.3518 31.7585Z" fill="#1B3954"/>
<path d="M19.636 23.8304C19.7973 23.9917 20.0047 24.0608 20.2006 24.0608C20.3965 24.0608 20.6155 23.9802 20.7653 23.8188C21.0764 23.5077 21.0764 22.9892 20.7653 22.678L19.0713 20.9841C18.7602 20.6729 18.2416 20.6729 17.9305 20.9841C17.6194 21.2952 17.6194 21.8138 17.9305 22.1249L19.636 23.8304Z" fill="#1B3954"/>
<path d="M29.5 26.4462C27.5525 24.4987 24.4066 24.4987 22.4707 26.4462C21.0072 27.9097 20.65 30.053 21.3875 31.8507C21.5027 31.7931 21.6179 31.7585 21.7562 31.7585H26.2158C26.6652 31.7585 27.0224 32.1157 27.0224 32.5651C27.0224 33.0146 26.6652 33.3718 26.2158 33.3718H22.3785C22.413 33.4063 22.4476 33.4409 22.4822 33.4755L29.5115 40.5048L36.5408 33.4755C38.4882 31.528 38.4882 28.3821 36.5408 26.4462C34.5933 24.4987 31.4474 24.4987 29.5 26.4462ZM29.8572 32.7149C29.8457 32.7726 29.8341 32.8187 29.8111 32.8647C29.788 32.9108 29.765 32.9569 29.7419 33.003C29.7074 33.0491 29.6843 33.0837 29.6382 33.1298C29.6037 33.1644 29.5576 33.1989 29.5115 33.2335C29.4654 33.2681 29.4193 33.2911 29.3732 33.3026C29.3271 33.3257 29.2695 33.3372 29.2234 33.3487C29.1773 33.3603 29.1197 33.3603 29.0621 33.3603C29.016 33.3603 28.9583 33.3603 28.9007 33.3487C28.8431 33.3372 28.797 33.3257 28.7509 33.3026C28.7048 33.2796 28.6587 33.2565 28.6126 33.2335C28.5666 33.1989 28.532 33.1759 28.4859 33.1298C28.4513 33.0952 28.4167 33.0491 28.3822 33.003C28.3476 32.9569 28.3246 32.9108 28.313 32.8647C28.29 32.8187 28.2785 32.761 28.2669 32.7149C28.2554 32.6688 28.2554 32.6112 28.2554 32.5536C28.2554 32.496 28.2669 32.4499 28.2669 32.3923C28.2785 32.3347 28.29 32.2886 28.313 32.2425C28.3361 32.1964 28.3591 32.1503 28.3822 32.1042C28.4167 32.0581 28.4398 32.0235 28.4859 31.9774C28.5205 31.9429 28.5666 31.9083 28.6126 31.8737C28.6587 31.8392 28.7048 31.8161 28.7509 31.7931C28.797 31.77 28.8546 31.7585 28.9007 31.747C29.0044 31.7239 29.1082 31.7239 29.2119 31.747C29.2695 31.7585 29.3156 31.77 29.3617 31.7931C29.4078 31.8161 29.4539 31.8392 29.5 31.8737C29.546 31.9083 29.5806 31.9313 29.6267 31.9774C29.6613 32.012 29.6958 32.0581 29.7304 32.1042C29.765 32.1503 29.788 32.1964 29.7996 32.2425C29.8226 32.2886 29.8341 32.3462 29.8457 32.3923C29.8572 32.4384 29.8572 32.496 29.8572 32.5536C29.8687 32.6112 29.8687 32.6688 29.8572 32.7149Z" fill="#16ADE1"/>
</svg>
