<svg width="59" height="59" viewBox="0 0 59 59" fill="none" xmlns="http://www.w3.org/2000/svg">
<path d="M29.212 3.45701C18.5758 3.60681 9.93326 12.3301 9.87564 22.9662C9.84107 28.4629 12.0651 33.441 15.6835 37.0133C20.0508 41.3461 23.8651 46.1974 27.0456 51.4636L29.0276 54.7363H20.12C19.6706 54.7363 19.3133 55.0935 19.3133 55.5429C19.3133 55.9924 19.6706 56.3496 20.12 56.3496H38.9032C39.3526 56.3496 39.7098 55.9924 39.7098 55.5429C39.7098 55.0935 39.3526 54.7363 38.9032 54.7363H29.9956L31.9776 51.4636C35.135 46.2435 38.8571 41.3922 43.2245 37.1285C46.8774 33.5677 49.1475 28.5896 49.1475 23.0814C49.1245 12.1457 40.1823 3.29568 29.212 3.45701ZM29.5001 38.0734C21.2262 38.0734 14.5081 31.3552 14.5081 23.0814C14.5081 14.8076 21.2262 8.10095 29.5001 8.10095C37.7739 8.10095 44.492 14.8076 44.492 23.0929C44.492 31.3783 37.7739 38.0734 29.5001 38.0734Z" fill="#1B3954"/>
<path d="M42.5792 55.2317C42.5561 55.1856 42.5331 55.1396 42.51 55.0935C42.4755 55.0474 42.4409 55.0128 42.4063 54.9667C42.3718 54.9206 42.3257 54.8976 42.2796 54.863C42.2335 54.8284 42.1874 54.8054 42.1413 54.7938C42.0952 54.7708 42.0376 54.7593 41.9915 54.7478C41.8878 54.7247 41.7841 54.7247 41.6803 54.7478C41.6343 54.7593 41.5766 54.7708 41.5305 54.7938C41.4844 54.8169 41.4384 54.8399 41.3923 54.863C41.3462 54.886 41.3116 54.9206 41.2655 54.9667C41.2194 55.0128 41.1964 55.0474 41.1618 55.0935C41.1272 55.1396 41.1042 55.1856 41.0927 55.2317C41.0696 55.2778 41.0581 55.3354 41.0466 55.3815C41.035 55.4392 41.035 55.4853 41.035 55.5429C41.035 55.6005 41.0466 55.6466 41.0466 55.7042C41.0581 55.7503 41.0696 55.8079 41.0927 55.854C41.1157 55.9001 41.1387 55.9462 41.1618 55.9923C41.1848 56.0384 41.2309 56.0729 41.2655 56.119C41.4153 56.2688 41.6227 56.3495 41.8302 56.3495C42.0376 56.3495 42.245 56.2573 42.4063 56.119C42.4409 56.0845 42.4755 56.0384 42.51 55.9923C42.5446 55.9462 42.5677 55.9001 42.5792 55.854C42.6022 55.8079 42.6137 55.7503 42.6253 55.7042C42.6368 55.6466 42.6368 55.6005 42.6368 55.5429C42.6368 55.4853 42.6368 55.4392 42.6253 55.3815C42.6137 55.3354 42.6022 55.2778 42.5792 55.2317Z" fill="#1B3954"/>
<path d="M33.4296 13.9319H25.5706V19.152H20.3505V27.0225H25.5706V32.2311H33.4296V27.0225H38.6497V19.152H33.4296V13.9319Z" fill="#16ADE1"/>
</svg>
