<svg width="312" height="144" viewBox="0 0 312 144" fill="none" xmlns="http://www.w3.org/2000/svg">
<path d="M27.0102 103.855C24.8102 103.855 22.5602 102.605 20.2602 100.105C18.4602 98.1052 17.5602 96.0052 17.5602 93.8052C17.5602 93.2052 17.6602 92.6052 17.8602 92.0052C22.1602 83.0052 33.5102 73.0552 51.9102 62.1552C53.4102 58.4552 54.1602 55.4052 54.1602 53.0052C54.1602 51.9052 54.0102 50.9052 53.7102 50.0052C52.4102 49.4052 51.0102 49.1052 49.5102 49.1052C43.4102 49.1052 36.0602 53.9052 27.4602 63.5052C21.7602 70.0052 16.3602 77.1552 11.2602 84.9552C9.06016 88.5552 6.91016 92.2552 4.81016 96.0552C4.81016 96.1552 4.71016 96.2052 4.51016 96.2052C4.21016 96.2052 3.76016 96.0052 3.16016 95.6052C1.16016 94.3052 0.160156 92.5052 0.160156 90.2052C0.160156 88.2052 0.610156 86.1552 1.51016 84.0552L1.81016 83.3052C7.61016 68.3052 14.6602 53.9052 22.9602 40.1052C28.6602 30.2052 35.3102 21.1052 42.9102 12.8052C48.2102 6.70517 53.0602 3.65517 57.4602 3.65517C58.3602 3.65517 59.2602 3.80518 60.1602 4.10518C62.4602 5.10518 63.8602 6.80518 64.3602 9.20518C64.3602 12.7052 62.7102 17.3552 59.4102 23.1552C56.1102 28.8552 53.4602 32.7052 51.4602 34.7052C51.3602 34.7052 51.1602 34.6052 50.8602 34.4052C50.5602 34.1052 50.4102 33.7052 50.4102 33.2052L53.7102 27.0552C57.6102 20.9552 60.1602 14.4552 61.3602 7.55518C55.9602 8.15518 49.9602 12.7552 43.3602 21.3552C36.7602 29.9552 30.6602 39.3052 25.0602 49.4052C19.4602 59.5052 15.4602 67.1552 13.0602 72.3552C15.5602 68.9552 18.6602 65.0552 22.3602 60.6552C31.5602 50.0552 39.8102 44.7552 47.1102 44.7552C50.7102 44.7552 53.7102 46.3552 56.1102 49.5552C57.5102 51.7552 58.2102 54.1552 58.2102 56.7552L58.0602 58.8552C60.5602 57.4552 64.7102 55.4552 70.5102 52.8552C76.3102 50.2552 81.3602 48.9552 85.6602 48.9552C88.3602 48.9552 90.2102 49.8552 91.2102 51.6552C91.4102 52.0552 91.5102 52.4052 91.5102 52.7052C91.5102 52.9052 91.3602 53.0052 91.0602 53.0052L88.6602 52.8552C84.0602 52.8552 79.3102 53.9552 74.4102 56.1552C69.5102 58.2552 64.8602 60.5052 60.4602 62.9052L56.8602 64.8552C52.7602 78.3552 45.7102 89.9052 35.7102 99.5052C32.9102 102.405 30.0102 103.855 27.0102 103.855ZM22.9602 98.4552C26.1602 98.4552 29.5102 96.6552 33.0102 93.0552C36.5102 89.3552 39.6602 85.3552 42.4602 81.0552C45.2602 76.6552 47.2602 73.1052 48.4602 70.4052L48.6102 69.9552C31.0102 81.5552 22.2102 91.0552 22.2102 98.4552H22.9602Z" fill="#001242"/>
<path d="M122.96 127.555C122.66 127.555 122.21 127.255 121.61 126.655C119.41 123.355 118.31 119.555 118.31 115.255C118.31 107.055 120.66 98.1052 125.36 88.4052C133.06 71.5052 142.01 55.4052 152.21 40.1052L155.81 34.5552C162.31 24.6552 166.61 17.7552 168.71 13.8552L169.16 13.1052C158.06 26.5052 146.71 39.6552 135.11 52.5552L129.41 58.7052C123.31 65.4052 117.06 71.9552 110.66 78.3552C104.36 84.6552 97.6098 90.5052 90.4098 95.9052C88.9098 96.9052 87.2098 97.9052 85.3098 98.9052C83.5098 99.9052 81.7098 100.405 79.9098 100.405C78.4098 100.405 77.0598 100.005 75.8598 99.2052C71.9598 96.3052 69.3598 92.5052 68.0598 87.8052C67.7598 86.5052 67.6098 85.2052 67.6098 83.9052C67.6098 80.8052 68.2098 77.7552 69.4098 74.7552C73.1098 65.1552 79.6598 56.8552 89.0598 49.8552C94.1598 45.9552 98.8098 44.0052 103.01 44.0052C106.21 44.0052 108.71 45.3552 110.51 48.0552C110.71 48.3552 110.81 48.8052 110.81 49.4052C110.81 51.8052 108.91 55.2552 105.11 59.7552C101.41 64.2552 97.1098 68.3552 92.2098 72.0552C87.3098 75.7552 83.0598 77.6052 79.4598 77.6052C78.2598 77.6052 77.2098 77.3052 76.3098 76.7052C76.1098 76.7052 75.9598 76.6052 75.8598 76.4052L75.7098 76.2552L74.6598 78.6552C73.5598 81.3552 72.9098 84.1552 72.7098 87.0552C72.7098 88.9552 72.8598 90.7552 73.1598 92.4552C73.5598 94.0552 74.6598 94.8552 76.4598 94.8552C80.6598 94.8552 88.7598 89.6052 100.76 79.1052C111.66 69.6052 123.66 57.9052 136.76 44.0052C149.86 30.0052 162.11 15.9552 173.51 1.85517L173.66 1.70517C174.06 1.10518 174.46 0.805176 174.86 0.805176C175.06 0.805176 175.31 0.905174 175.61 1.10517C175.91 1.30517 176.16 1.65518 176.36 2.15518C176.66 2.65518 176.81 3.15517 176.81 3.65517C176.81 5.65517 175.36 9.25518 172.46 14.4552L171.26 16.5552C169.76 19.5552 164.51 29.2552 155.51 45.6552C146.61 61.9552 140.71 72.8052 137.81 78.2052L136.91 80.0052C126.61 98.2052 121.46 111.655 121.46 120.355C121.46 123.355 121.96 125.255 122.96 126.055C123.26 126.555 123.41 126.905 123.41 127.105C123.41 127.405 123.26 127.555 122.96 127.555ZM78.1098 75.3552C81.5098 75.3552 85.3098 73.4552 89.5098 69.6552C93.7098 65.8552 97.4598 61.8552 100.76 57.6552C104.06 53.4552 106.06 50.4052 106.76 48.5052C102.56 48.5052 98.4598 50.1052 94.4598 53.3052C86.4598 59.9052 80.3598 67.1552 76.1598 75.0552C76.7598 75.2552 77.4098 75.3552 78.1098 75.3552Z" fill="#001242"/>
<path d="M184.712 38.9052H184.562C184.462 38.9052 184.212 38.8052 183.812 38.6052C183.412 38.4052 183.112 38.1552 182.912 37.8552C182.212 36.8552 181.862 35.9052 181.862 35.0052C181.862 33.5052 182.762 31.5552 184.562 29.1552C185.762 27.6552 186.612 26.1052 187.112 24.5052C187.112 24.3052 187.212 24.2052 187.412 24.2052C187.712 24.2052 188.212 24.4552 188.912 24.9552C189.012 25.0552 189.162 25.2052 189.362 25.4052C189.562 25.5052 189.862 25.8052 190.262 26.3052C190.662 26.7052 190.862 27.2552 190.862 27.9552C190.162 29.5552 189.212 30.9552 188.012 32.1552C186.812 33.2552 185.862 34.4552 185.162 35.7552C184.662 36.2552 184.412 36.8552 184.412 37.5552L184.862 38.7552C184.862 38.8552 184.812 38.9052 184.712 38.9052ZM173.012 97.8552C172.012 97.8552 170.962 97.7052 169.862 97.4052C166.262 95.9052 163.512 93.4552 161.612 90.0552C160.312 86.8552 159.662 83.1552 159.662 78.9552C160.262 71.8552 163.212 64.7052 168.512 57.5052C171.312 53.8052 174.262 51.0552 177.362 49.2552L177.812 49.1052C178.212 49.1052 178.662 49.3052 179.162 49.7052C179.662 50.1052 180.112 50.6052 180.512 51.2052C180.912 51.7052 181.112 52.2052 181.112 52.7052C181.112 53.2052 180.062 54.6052 177.962 56.9052C173.562 61.7052 170.312 66.4552 168.212 71.1552C166.312 75.2552 165.212 78.9552 164.912 82.2552C164.712 83.3552 164.612 85.0552 164.612 87.3552C164.612 91.6552 166.612 93.8052 170.612 93.8052C175.912 93.8052 183.662 88.7052 193.862 78.5052L198.662 74.0052C201.062 71.5052 203.662 69.3052 206.462 67.4052L206.762 67.2552C207.062 67.2552 207.412 67.4052 207.812 67.7052C208.212 68.0052 208.512 68.3552 208.712 68.7552C209.012 69.1552 209.162 69.5052 209.162 69.8052L209.012 70.1052C207.812 71.6052 206.462 72.9552 204.962 74.1552C200.562 78.2552 196.462 82.2552 192.662 86.1552L191.012 87.6552C184.212 94.4552 178.212 97.8552 173.012 97.8552Z" fill="#001242"/>
<path d="M214.125 100.405C210.925 100.405 208.175 99.2052 205.875 96.8052C202.375 93.0052 200.625 88.5552 200.625 83.4552C200.625 78.0552 202.125 72.9552 205.125 68.1552C208.225 63.2552 211.675 58.8552 215.475 54.9552C217.875 52.4552 220.925 49.9552 224.625 47.4552C228.325 44.9552 231.925 43.7052 235.425 43.7052C239.125 43.7052 241.975 45.5052 243.975 49.1052C244.175 49.4052 244.275 49.8052 244.275 50.3052C244.275 52.5052 242.275 55.8052 238.275 60.2052C234.375 64.5052 229.875 68.4552 224.775 72.0552C219.675 75.6552 215.375 77.4552 211.875 77.4552C210.875 77.4552 209.925 77.2052 209.025 76.7052C208.925 76.7052 208.775 76.5552 208.575 76.2552C206.275 80.9552 205.125 85.1552 205.125 88.8552C205.125 93.7552 207.125 96.2052 211.125 96.2052C212.625 96.2052 214.025 96.0052 215.325 95.6052C220.725 93.9052 226.925 90.6552 233.925 85.8552C239.225 82.1552 244.375 78.3052 249.375 74.3052L258.375 67.1052C258.675 67.1052 259.025 67.3052 259.425 67.7052C259.825 68.0052 260.175 68.4052 260.475 68.9052C260.775 69.3052 260.925 69.6552 260.925 69.9552L260.775 70.2552L253.125 76.4052C247.025 81.5052 240.775 86.3552 234.375 90.9552L232.575 92.1552C229.775 94.1552 226.875 95.9552 223.875 97.5552C220.875 99.1552 217.625 100.105 214.125 100.405ZM211.125 75.3552C213.725 75.3552 216.575 74.1052 219.675 71.6052C222.875 69.0052 225.875 66.0552 228.675 62.7552C231.575 59.3552 233.975 56.3052 235.875 53.6052C237.775 50.9052 238.825 49.3052 239.025 48.8052C236.225 48.8052 233.025 50.0552 229.425 52.5552C220.825 58.3552 214.075 65.8552 209.175 75.0552C209.775 75.2552 210.425 75.3552 211.125 75.3552Z" fill="#001242"/>
<path d="M250.384 143.305C244.984 143.305 240.984 140.105 238.384 133.705C237.584 131.005 237.184 128.255 237.184 125.455C237.184 121.655 237.984 116.655 239.584 110.455C243.184 97.3552 249.784 81.8052 259.384 63.8052C264.484 54.1052 270.734 44.2052 278.134 34.1052C288.534 19.7052 296.984 12.5052 303.484 12.5052C305.784 12.5052 307.884 13.5552 309.784 15.6552C311.084 17.0552 311.734 18.7552 311.734 20.7552L311.584 21.9552C311.084 24.8552 310.084 27.5552 308.584 30.0552C305.184 36.3552 302.384 41.2552 300.184 44.7552C297.284 49.1552 293.784 52.8552 289.684 55.8552C289.384 55.8552 289.084 55.7552 288.784 55.5552C288.184 55.0552 287.884 54.6052 287.884 54.2052L288.034 54.0552C292.034 49.4552 296.084 43.7052 300.184 36.8052C304.384 29.9052 306.734 23.4552 307.234 17.4552C304.134 17.7552 300.484 19.8552 296.284 23.7552C286.284 33.8552 275.934 48.5052 265.234 67.7052C272.034 69.1052 278.884 69.8052 285.784 69.8052C291.684 69.8052 297.534 68.9552 303.334 67.2552C303.634 67.2552 303.984 67.4552 304.384 67.8552C304.784 68.1552 305.084 68.5052 305.284 68.9052C305.584 69.3052 305.734 69.6552 305.734 69.9552L305.584 70.1052C300.584 72.4052 294.684 73.5552 287.884 73.5552L284.284 73.4052C279.884 73.2052 275.584 72.8052 271.384 72.2052C273.884 74.9052 275.734 78.0552 276.934 81.6552C278.234 85.2552 278.884 88.9552 278.884 92.7552L278.734 96.3552C277.734 107.955 274.034 119.055 267.634 129.655C263.734 136.155 259.434 140.405 254.734 142.405C253.334 143.005 251.884 143.305 250.384 143.305ZM247.384 138.805C251.484 138.805 255.684 136.355 259.984 131.455C262.584 128.455 264.934 124.905 267.034 120.805C272.534 110.105 275.284 99.9552 275.284 90.3552C275.284 79.5552 271.834 73.1552 264.934 71.1552L263.434 71.0052C257.434 82.1052 252.484 93.0052 248.584 103.705C244.684 114.505 242.534 123.955 242.134 132.055C242.134 132.855 242.234 133.755 242.434 134.755C242.634 135.755 243.134 136.655 243.934 137.455C244.634 138.355 245.784 138.805 247.384 138.805Z" fill="#001242"/>
</svg>
