<svg width="477" height="137" viewBox="0 0 477 137" fill="none" xmlns="http://www.w3.org/2000/svg">
<path d="M12.6391 109.686C10.0391 109.686 7.73906 108.586 5.73906 106.386C1.93906 102.286 0.0390625 97.8358 0.0390625 93.0358C0.0390625 87.9358 1.48906 82.9358 4.38906 78.0358C6.38906 74.3358 9.23906 70.2857 12.9391 65.8857C16.6391 61.4857 20.7391 57.6857 25.2391 54.4857C29.8391 51.1857 34.2891 49.5357 38.5891 49.5357C40.1891 49.5357 41.7891 50.1358 43.3891 51.3358C45.0891 52.5358 46.0391 53.8357 46.2391 55.2357C46.2391 58.6357 44.8391 62.4357 42.0391 66.6357C39.3391 70.7357 36.6391 73.9858 33.9391 76.3858C33.6391 76.3858 33.2891 76.2858 32.8891 76.0858C32.0891 75.3858 31.6891 74.7858 31.6891 74.2858L31.8391 73.9857C34.4391 71.7857 37.2891 68.0857 40.3891 62.8857C42.2891 59.6857 43.2391 56.7357 43.2391 54.0357C42.9391 53.9357 42.4391 53.8857 41.7391 53.8857C39.3391 53.8857 36.7391 54.7357 33.9391 56.4357C30.0391 58.8357 26.9391 61.2357 24.6391 63.6357C17.7391 70.0357 12.4891 76.8857 8.88906 84.1857C6.88906 87.7857 5.58906 91.6357 4.98906 95.7357L4.83906 97.8358C4.83906 98.8358 4.93906 99.8857 5.13906 100.986L5.43906 101.886C5.93906 104.186 7.68906 105.336 10.6891 105.336C12.4891 105.336 14.1891 105.036 15.7891 104.436C23.6891 101.736 34.2391 95.0358 47.4391 84.3358L57.6391 76.3858C57.9391 76.3858 58.2891 76.5857 58.6891 76.9857C59.0891 77.2857 59.4391 77.6857 59.7391 78.1857C60.0391 78.5857 60.1891 78.9357 60.1891 79.2357L60.0391 79.5358L52.5391 85.5358C41.3391 94.8358 32.2891 101.586 25.3891 105.786C21.0891 108.386 16.8391 109.686 12.6391 109.686Z" fill="#001242"/>
<path d="M106.652 136.836C106.352 136.836 105.902 136.536 105.302 135.936C103.102 132.636 102.002 128.836 102.002 124.536C102.002 116.336 104.352 107.386 109.052 97.6858C116.752 80.7858 125.702 64.6857 135.902 49.3857L139.502 43.8357C146.002 33.9357 150.302 27.0357 152.402 23.1357L152.852 22.3857C141.752 35.7857 130.402 48.9358 118.802 61.8358L113.102 67.9857C107.002 74.6857 100.752 81.2358 94.3516 87.6358C88.0516 93.9358 81.3016 99.7858 74.1016 105.186C72.6016 106.186 70.9016 107.186 69.0016 108.186C67.2016 109.186 65.4016 109.686 63.6016 109.686C62.1016 109.686 60.7516 109.286 59.5516 108.486C55.6516 105.586 53.0516 101.786 51.7516 97.0858C51.4516 95.7858 51.3016 94.4858 51.3016 93.1858C51.3016 90.0858 51.9016 87.0358 53.1016 84.0358C56.8016 74.4358 63.3516 66.1357 72.7516 59.1357C77.8516 55.2357 82.5016 53.2857 86.7016 53.2857C89.9016 53.2857 92.4016 54.6358 94.2016 57.3358C94.4016 57.6358 94.5016 58.0858 94.5016 58.6857C94.5016 61.0858 92.6016 64.5358 88.8016 69.0358C85.1016 73.5358 80.8016 77.6358 75.9016 81.3358C71.0016 85.0358 66.7516 86.8857 63.1516 86.8857C61.9516 86.8857 60.9016 86.5857 60.0016 85.9857C59.8016 85.9857 59.6516 85.8857 59.5516 85.6857L59.4016 85.5358L58.3516 87.9357C57.2516 90.6357 56.6016 93.4358 56.4016 96.3358C56.4016 98.2358 56.5516 100.036 56.8516 101.736C57.2516 103.336 58.3516 104.136 60.1516 104.136C64.3516 104.136 72.4516 98.8857 84.4516 88.3857C95.3516 78.8857 107.352 67.1857 120.452 53.2857C133.552 39.2857 145.802 25.2357 157.202 11.1357L157.352 10.9857C157.752 10.3857 158.152 10.0857 158.552 10.0857C158.752 10.0857 159.002 10.1857 159.302 10.3857C159.602 10.5857 159.852 10.9357 160.052 11.4357C160.352 11.9357 160.502 12.4357 160.502 12.9357C160.502 14.9357 159.052 18.5357 156.152 23.7358L154.952 25.8358C153.452 28.8357 148.202 38.5357 139.202 54.9357C130.302 71.2358 124.402 82.0857 121.502 87.4857L120.602 89.2858C110.302 107.486 105.152 120.936 105.152 129.636C105.152 132.636 105.652 134.536 106.652 135.336C106.952 135.836 107.102 136.186 107.102 136.386C107.102 136.686 106.952 136.836 106.652 136.836ZM61.8016 84.6357C65.2016 84.6357 69.0016 82.7357 73.2016 78.9357C77.4016 75.1357 81.1516 71.1357 84.4516 66.9357C87.7516 62.7357 89.7516 59.6857 90.4516 57.7857C86.2516 57.7857 82.1516 59.3857 78.1516 62.5857C70.1516 69.1857 64.0516 76.4358 59.8516 84.3358C60.4516 84.5358 61.1016 84.6357 61.8016 84.6357Z" fill="#001242"/>
<path d="M154.604 109.686C151.404 109.686 148.654 108.486 146.354 106.086C142.854 102.286 141.104 97.8357 141.104 92.7357C141.104 87.3357 142.604 82.2357 145.604 77.4357C148.704 72.5357 152.154 68.1357 155.954 64.2357C158.354 61.7357 161.404 59.2357 165.104 56.7358C168.804 54.2358 172.404 52.9858 175.904 52.9858C179.604 52.9858 182.454 54.7857 184.454 58.3857C184.654 58.6857 184.754 59.0858 184.754 59.5858C184.754 61.7857 182.754 65.0857 178.754 69.4857C174.854 73.7857 170.354 77.7358 165.254 81.3358C160.154 84.9358 155.854 86.7357 152.354 86.7357C151.354 86.7357 150.404 86.4857 149.504 85.9857C149.404 85.9857 149.254 85.8358 149.054 85.5358C146.754 90.2358 145.604 94.4358 145.604 98.1358C145.604 103.036 147.604 105.486 151.604 105.486C153.104 105.486 154.504 105.286 155.804 104.886C161.204 103.186 167.404 99.9358 174.404 95.1358C179.704 91.4358 184.854 87.5858 189.854 83.5858L198.854 76.3858C199.154 76.3858 199.504 76.5857 199.904 76.9857C200.304 77.2857 200.654 77.6857 200.954 78.1857C201.254 78.5857 201.404 78.9357 201.404 79.2357L201.254 79.5358L193.604 85.6857C187.504 90.7857 181.254 95.6357 174.854 100.236L173.054 101.436C170.254 103.436 167.354 105.236 164.354 106.836C161.354 108.436 158.104 109.386 154.604 109.686ZM151.604 84.6357C154.204 84.6357 157.054 83.3858 160.154 80.8858C163.354 78.2858 166.354 75.3358 169.154 72.0358C172.054 68.6358 174.454 65.5857 176.354 62.8857C178.254 60.1857 179.304 58.5857 179.504 58.0857C176.704 58.0857 173.504 59.3358 169.904 61.8358C161.304 67.6358 154.554 75.1358 149.654 84.3358C150.254 84.5358 150.904 84.6357 151.604 84.6357Z" fill="#001242"/>
<path d="M216.513 113.136C214.313 113.136 212.063 111.886 209.763 109.386C207.963 107.386 207.062 105.286 207.062 103.086C207.062 102.486 207.163 101.886 207.363 101.286C211.663 92.2858 223.013 82.3357 241.413 71.4357C242.913 67.7357 243.663 64.6857 243.663 62.2857C243.663 61.1857 243.513 60.1857 243.213 59.2857C241.913 58.6857 240.513 58.3857 239.013 58.3857C232.913 58.3857 225.563 63.1858 216.963 72.7858C211.263 79.2858 205.862 86.4357 200.762 94.2357C198.562 97.8357 196.413 101.536 194.312 105.336C194.312 105.436 194.212 105.486 194.012 105.486C193.712 105.486 193.263 105.286 192.663 104.886C190.663 103.586 189.663 101.786 189.663 99.4857C189.663 97.4857 190.112 95.4358 191.012 93.3358L191.312 92.5858C197.112 77.5858 204.163 63.1857 212.463 49.3857C218.163 39.4857 224.813 30.3857 232.413 22.0857C237.713 15.9857 242.563 12.9357 246.963 12.9357C247.863 12.9357 248.763 13.0857 249.663 13.3857C251.963 14.3857 253.363 16.0857 253.863 18.4857C253.863 21.9858 252.213 26.6358 248.913 32.4357C245.613 38.1358 242.963 41.9858 240.963 43.9858C240.863 43.9858 240.663 43.8857 240.363 43.6857C240.063 43.3857 239.913 42.9857 239.913 42.4857L243.213 36.3358C247.113 30.2358 249.663 23.7358 250.863 16.8358C245.463 17.4357 239.463 22.0358 232.863 30.6358C226.263 39.2358 220.163 48.5857 214.562 58.6857C208.963 68.7858 204.963 76.4357 202.562 81.6357C205.062 78.2357 208.163 74.3357 211.863 69.9357C221.063 59.3357 229.313 54.0357 236.613 54.0357C240.213 54.0357 243.213 55.6358 245.613 58.8358C247.013 61.0357 247.713 63.4358 247.713 66.0358L247.563 68.1357C250.063 66.7357 254.212 64.7357 260.012 62.1357C265.812 59.5357 270.862 58.2358 275.162 58.2358C277.862 58.2358 279.712 59.1357 280.712 60.9357C280.912 61.3357 281.012 61.6858 281.012 61.9858C281.012 62.1858 280.863 62.2857 280.562 62.2857L278.163 62.1357C273.563 62.1357 268.813 63.2357 263.913 65.4357C259.013 67.5357 254.363 69.7857 249.963 72.1857L246.363 74.1357C242.263 87.6357 235.213 99.1858 225.213 108.786C222.413 111.686 219.513 113.136 216.513 113.136ZM212.463 107.736C215.663 107.736 219.012 105.936 222.512 102.336C226.012 98.6358 229.163 94.6358 231.963 90.3358C234.763 85.9358 236.763 82.3857 237.963 79.6857L238.113 79.2357C220.513 90.8357 211.713 100.336 211.713 107.736H212.463Z" fill="#001242"/>
<path d="M268.968 108.636H268.368C266.868 108.136 265.618 107.236 264.618 105.936C263.218 104.036 262.518 101.836 262.518 99.3358C262.518 98.0358 262.618 96.7358 262.818 95.4358L263.118 92.8858C263.918 88.8858 265.118 85.0358 266.718 81.3358C269.918 73.2358 273.918 65.4857 278.718 58.0857L279.018 57.9357C279.418 57.9357 279.918 58.1857 280.518 58.6857C281.218 59.1857 281.818 59.7857 282.318 60.4857C282.818 61.0857 283.068 61.6857 283.068 62.2857C283.068 62.4857 283.018 62.6358 282.918 62.7358C276.418 74.2358 271.568 85.0358 268.368 95.1358C267.168 97.9358 266.568 100.686 266.568 103.386C272.868 94.3858 278.418 85.1357 283.218 75.6357C286.618 69.0357 289.718 63.5357 292.518 59.1357C295.418 54.6357 298.168 52.3857 300.768 52.3857C303.468 52.3857 306.168 55.8857 308.868 62.8857C310.268 66.5857 311.518 68.8858 312.618 69.7858L313.668 70.2357C314.468 70.5357 315.218 70.6857 315.918 70.6857C317.618 70.6857 319.218 70.2857 320.718 69.4857C323.018 68.1858 326.568 65.5357 331.368 61.5357L333.918 59.4357C334.318 59.4357 334.668 59.5357 334.968 59.7357C335.668 60.2357 336.018 60.7357 336.018 61.2358C335.018 63.8358 332.818 66.5857 329.418 69.4857C325.318 73.0857 321.568 74.8857 318.168 74.8857C316.268 74.8857 314.368 74.1858 312.468 72.7858C308.468 68.9857 305.618 64.4357 303.918 59.1357L303.318 57.7857C300.418 58.4857 297.018 61.8358 293.118 67.8358C289.318 73.8358 285.418 80.5858 281.418 88.0858C276.818 96.4858 272.718 103.286 269.118 108.486L268.968 108.636Z" fill="#001242"/>
<path d="M387.968 136.986L386.168 136.536C384.568 135.736 383.068 134.436 381.668 132.636C380.368 130.836 379.468 128.936 378.968 126.936C378.468 125.036 378.218 122.886 378.218 120.486C378.218 113.886 379.718 106.436 382.718 98.1358C385.718 89.8358 389.318 81.5857 393.518 73.3857C397.718 65.0857 401.818 57.6858 405.818 51.1857C402.918 54.6858 393.718 64.4858 378.218 80.5858C361.318 98.2858 351.418 107.936 348.518 109.536C348.118 109.736 347.618 109.836 347.018 109.836C345.918 109.836 344.968 109.386 344.168 108.486C343.368 107.586 342.768 106.636 342.368 105.636C341.968 104.536 341.768 103.486 341.768 102.486C341.768 101.286 341.918 100.036 342.218 98.7357C343.218 94.4357 344.918 89.6358 347.318 84.3358C348.518 81.7358 349.568 79.1358 350.468 76.5358C348.868 77.7358 346.068 80.2857 342.068 84.1857C338.168 88.0857 333.968 91.9858 329.468 95.8858C324.168 100.586 320.318 102.936 317.918 102.936C315.918 102.936 314.018 101.986 312.218 100.086C310.518 98.1858 309.568 96.1858 309.368 94.0858C309.368 89.4858 311.418 84.1358 315.518 78.0358C319.718 71.8358 324.718 66.3857 330.518 61.6857C336.418 56.8857 341.918 54.4857 347.018 54.4857C350.518 54.4857 353.468 55.9357 355.868 58.8358C356.168 59.1357 356.318 59.4357 356.318 59.7357C356.318 59.8357 356.218 59.9858 356.018 60.1857C355.518 60.1857 354.968 59.7357 354.368 58.8358C353.968 58.4357 353.418 58.1857 352.718 58.0857C352.018 57.8857 350.868 57.7857 349.268 57.7857C345.268 58.4857 341.668 60.0857 338.468 62.5857C335.268 65.0857 332.318 67.7857 329.618 70.6857C320.718 80.1857 315.668 89.0357 314.468 97.2357C317.468 96.3357 322.718 92.4358 330.218 85.5358C339.918 76.7358 346.418 71.7358 349.718 70.5358C350.018 70.4358 350.368 70.3857 350.768 70.3857C351.568 70.3857 352.268 70.6858 352.868 71.2858C353.568 71.8857 354.118 72.5357 354.518 73.2357C355.018 73.9357 355.268 74.6857 355.268 75.4857C355.268 76.3857 355.068 77.2857 354.668 78.1857C354.368 79.0857 353.718 80.6857 352.718 82.9857C351.118 86.5857 349.468 90.5857 347.768 94.9857C346.068 99.3857 345.218 103.136 345.218 106.236C348.318 104.936 353.868 100.136 361.868 91.8358C369.868 83.4358 378.218 74.3357 386.918 64.5357C395.718 54.6357 402.618 46.7357 407.618 40.8358L411.368 36.4857C406.968 36.2857 402.518 36.1857 398.018 36.1857C392.618 36.1857 387.368 36.3357 382.268 36.6357C372.768 36.9357 366.968 38.0357 364.868 39.9357C364.768 39.9357 364.718 39.9857 364.718 40.0857L365.018 40.8358C365.018 41.0357 364.968 41.1857 364.868 41.2857C364.468 41.2857 363.968 41.0357 363.368 40.5357C361.968 39.2357 361.268 38.0357 361.268 36.9357C361.268 35.1358 362.818 34.0357 365.918 33.6357C370.918 32.3357 375.968 31.6357 381.068 31.5357C386.268 31.3357 391.318 31.2357 396.218 31.2357C402.718 31.2357 409.118 31.4357 415.418 31.8357L423.218 22.8357C428.618 16.3357 434.268 10.0857 440.168 4.08574L440.318 3.93575C442.418 1.73574 444.268 0.635742 445.868 0.635742C446.368 0.635742 446.718 0.685745 446.918 0.785744C447.118 0.785744 447.318 0.935742 447.518 1.23574C447.818 1.43574 448.068 1.68574 448.268 1.98574C448.468 2.18575 448.568 2.38575 448.568 2.58575C448.568 2.78574 448.518 2.88574 448.418 2.88574C446.818 3.18574 443.368 6.53574 438.068 12.9357C433.868 17.9357 429.118 24.4857 423.818 32.5857C432.018 33.4857 438.368 34.6357 442.868 36.0357C443.868 36.3357 444.618 37.0357 445.118 38.1357C445.318 38.3357 445.418 38.6357 445.418 39.0357C445.418 39.3357 445.268 39.4858 444.968 39.4858C444.368 39.3858 442.568 39.1857 439.568 38.8857C436.668 38.4857 433.468 38.1357 429.968 37.8358C426.468 37.5358 423.518 37.2858 421.118 37.0858C416.218 45.3858 410.818 54.9857 404.918 65.8857C399.118 76.7857 394.018 87.7858 389.618 98.8858C385.218 109.886 383.018 119.536 383.018 127.836L383.168 128.886C383.268 131.186 384.118 132.836 385.718 133.836L386.018 133.986C386.918 134.386 387.618 134.986 388.118 135.786C388.318 135.986 388.418 136.286 388.418 136.686C388.418 136.886 388.268 136.986 387.968 136.986Z" fill="#001242"/>
<path d="M429.408 109.686C426.208 109.686 423.458 108.486 421.158 106.086C417.658 102.286 415.908 97.8357 415.908 92.7357C415.908 87.3357 417.408 82.2357 420.408 77.4357C423.508 72.5357 426.958 68.1357 430.758 64.2357C433.158 61.7357 436.208 59.2357 439.908 56.7358C443.608 54.2358 447.208 52.9858 450.708 52.9858C454.408 52.9858 457.258 54.7857 459.258 58.3857C459.458 58.6857 459.558 59.0858 459.558 59.5858C459.558 61.7857 457.558 65.0857 453.558 69.4857C449.658 73.7857 445.158 77.7358 440.058 81.3358C434.958 84.9358 430.658 86.7357 427.158 86.7357C426.158 86.7357 425.208 86.4857 424.308 85.9857C424.208 85.9857 424.058 85.8358 423.858 85.5358C421.558 90.2358 420.408 94.4358 420.408 98.1358C420.408 103.036 422.408 105.486 426.408 105.486C427.908 105.486 429.308 105.286 430.608 104.886C436.008 103.186 442.208 99.9358 449.208 95.1358C454.508 91.4358 459.658 87.5858 464.658 83.5858L473.658 76.3858C473.958 76.3858 474.308 76.5857 474.708 76.9857C475.108 77.2857 475.458 77.6857 475.758 78.1857C476.058 78.5857 476.208 78.9357 476.208 79.2357L476.058 79.5358L468.408 85.6857C462.308 90.7857 456.058 95.6357 449.658 100.236L447.858 101.436C445.058 103.436 442.158 105.236 439.158 106.836C436.158 108.436 432.908 109.386 429.408 109.686ZM426.408 84.6357C429.008 84.6357 431.858 83.3858 434.958 80.8858C438.158 78.2858 441.158 75.3358 443.958 72.0358C446.858 68.6358 449.258 65.5857 451.158 62.8857C453.058 60.1857 454.108 58.5857 454.308 58.0857C451.508 58.0857 448.308 59.3358 444.708 61.8358C436.108 67.6358 429.358 75.1358 424.458 84.3358C425.058 84.5358 425.708 84.6357 426.408 84.6357Z" fill="#001242"/>
</svg>
