<svg width="475" height="113" viewBox="0 0 475 113" fill="none" xmlns="http://www.w3.org/2000/svg">
<path d="M14.4578 61.85C11.2578 61.85 8.50781 60.65 6.20781 58.25C2.70781 54.45 0.957812 50 0.957812 44.9C0.957812 39.5 2.45781 34.4 5.45781 29.6C8.55781 24.7 12.0078 20.3 15.8078 16.4C18.2078 13.9 21.2578 11.4 24.9578 8.9C28.6578 6.4 32.2578 5.15 35.7578 5.15C39.4578 5.15 42.3078 6.95 44.3078 10.55C44.5078 10.85 44.6078 11.25 44.6078 11.75C44.6078 13.95 42.6078 17.25 38.6078 21.65C34.7078 25.95 30.2078 29.9 25.1078 33.5C20.0078 37.1 15.7078 38.9 12.2078 38.9C11.2078 38.9 10.2578 38.65 9.35781 38.15C9.25781 38.15 9.10781 38 8.90781 37.7C6.60781 42.4 5.45781 46.6 5.45781 50.3C5.45781 55.2 7.45781 57.65 11.4578 57.65C12.9578 57.65 14.3578 57.45 15.6578 57.05C21.0578 55.35 27.2578 52.1 34.2578 47.3C39.5578 43.6 44.7078 39.75 49.7078 35.75L58.7078 28.55C59.0078 28.55 59.3578 28.75 59.7578 29.15C60.1578 29.45 60.5078 29.85 60.8078 30.35C61.1078 30.75 61.2578 31.1 61.2578 31.4L61.1078 31.7L53.4578 37.85C47.3578 42.95 41.1078 47.8 34.7078 52.4L32.9078 53.6C30.1078 55.6 27.2078 57.4 24.2078 59C21.2078 60.6 17.9578 61.55 14.4578 61.85ZM11.4578 36.8C14.0578 36.8 16.9078 35.55 20.0078 33.05C23.2078 30.45 26.2078 27.5 29.0078 24.2C31.9078 20.8 34.3078 17.75 36.2078 15.05C38.1078 12.35 39.1578 10.75 39.3578 10.25C36.5578 10.25 33.3578 11.5 29.7578 14C21.1578 19.8 14.4078 27.3 9.50781 36.5C10.1078 36.7 10.7578 36.8 11.4578 36.8ZM57.0168 61.4H56.7168C56.5168 61.4 56.2668 61.35 55.9668 61.25C55.6668 61.05 55.4168 60.85 55.2168 60.65C55.0168 60.45 54.8668 60.3 54.7668 60.2C52.2668 57.6 51.0168 54.5 51.0168 50.9C51.0168 48 51.5668 45 52.6668 41.9C53.7668 38.8 54.8668 35.9 55.9668 33.2L57.1668 30.5C60.2668 23.4 63.9168 16.6 68.1168 10.1L68.4168 9.95C68.8168 9.95 69.3668 10.2 70.0668 10.7C70.7668 11.2 71.3668 11.8 71.8668 12.5C72.4668 13.2 72.7668 13.85 72.7668 14.45C72.7668 14.75 72.7168 14.95 72.6168 15.05C70.7168 18.35 68.8668 21.7 67.0668 25.1C62.3668 33.3 58.8668 42.05 56.5668 51.35C57.4668 50.15 59.5668 46.95 62.8668 41.75C70.4668 29.25 78.8668 17.4 88.0668 6.2C90.6668 2.6 92.7668 0.799997 94.3668 0.799997C95.7668 0.799997 97.0668 1.95 98.2668 4.25C98.7668 5.45 99.0168 6.65 99.0168 7.85C99.0168 10.25 98.5168 12.75 97.5168 15.35L97.2168 16.55C96.4168 19.55 95.1168 23.35 93.3168 27.95C91.7168 31.95 90.2668 35.95 88.9668 39.95C87.6668 43.85 87.0168 47.2 87.0168 50C91.4168 46.8 96.2168 41.5 101.417 34.1C104.717 29.5 107.967 25.4 111.167 21.8C114.467 18.2 117.567 16.2 120.467 15.8C121.567 15.8 122.667 16.35 123.767 17.45C125.367 19.05 126.167 20.9 126.167 23C126.167 24.6 125.867 26.25 125.267 27.95C124.767 29.65 123.917 31.95 122.717 34.85C121.717 36.95 120.867 39.1 120.167 41.3C118.967 44.1 118.367 46.95 118.367 49.85C118.367 50.75 118.467 51.65 118.667 52.55L118.817 52.85C119.017 53.45 119.767 53.9 121.067 54.2C121.767 54.5 122.467 54.65 123.167 54.65C123.767 54.65 124.367 54.55 124.967 54.35C128.367 53.55 131.417 52 134.117 49.7C139.517 46 143.867 42.55 147.167 39.35L148.967 37.55C150.267 36.35 151.517 35.1 152.717 33.8C153.617 32.9 154.567 32.1 155.567 31.4C156.567 30.6 157.467 29.85 158.267 29.15H158.417C158.817 29.15 159.267 29.5 159.767 30.2C159.967 30.5 160.067 30.85 160.067 31.25L159.017 32.9C158.117 34.4 157.067 35.8 155.867 37.1C154.667 38.3 153.417 39.55 152.117 40.85C148.617 44.65 144.817 48.35 140.717 51.95C136.617 55.55 132.417 58.15 128.117 59.75C127.717 59.85 127.167 59.9 126.467 59.9C124.167 59.9 121.867 58.95 119.567 57.05C115.667 53.95 113.717 50.25 113.717 45.95C113.717 43.55 114.167 41.15 115.067 38.75C116.067 36.25 117.167 33.75 118.367 31.25C120.367 27.55 121.767 23.85 122.567 20.15V19.55C118.567 20.35 112.217 27.1 103.517 39.8C102.117 41.8 101.017 43.3 100.217 44.3C99.5168 45.2 98.8168 46.1 98.1168 47C94.1168 52.5 91.1668 55.25 89.2668 55.25C88.5668 55.25 87.7168 54.9 86.7168 54.2C83.6168 52 82.0668 48.85 82.0668 44.75C82.0668 41.35 83.1668 36.85 85.3668 31.25L90.6168 17.3C92.0168 13.9 93.1168 10.45 93.9168 6.95C88.3168 11.05 81.2668 20.35 72.7668 34.85C72.0668 35.85 70.2668 38.75 67.3668 43.55C63.0668 50.05 60.0168 55.35 58.2168 59.45C57.7168 60.65 57.3168 61.3 57.0168 61.4ZM141.944 112.55C136.244 111.65 133.394 107.1 133.394 98.9C133.394 93.8 134.244 88.05 135.944 81.65C138.644 71.85 142.244 61.7 146.744 51.2C152.244 37.8 158.144 25.4 164.444 14L165.344 12.35C166.444 10.15 167.794 8.2 169.394 6.5C169.494 6.4 169.644 6.35 169.844 6.35C170.244 6.35 170.694 6.6 171.194 7.1C171.694 7.6 172.144 8.15 172.544 8.75C173.044 9.35 173.294 9.85 173.294 10.25C172.494 12.45 171.494 14.5 170.294 16.4L163.244 31.1C167.944 24.4 173.244 18.25 179.144 12.65C183.844 8.15 188.094 5.75 191.894 5.45C194.894 5.45 197.344 6.65 199.244 9.05C201.244 11.35 202.644 13.75 203.444 16.25C203.844 18.25 204.044 20.3 204.044 22.4C211.644 18 219.644 14.55 228.044 12.05C230.344 11.45 232.694 11.15 235.094 11.15L238.244 11.3C238.744 11.3 239.294 11.65 239.894 12.35L240.044 12.5C240.144 12.6 240.244 12.8 240.344 13.1C240.544 13.3 240.644 13.55 240.644 13.85C240.644 13.95 240.594 14 240.494 14H240.344C235.844 14 230.194 15.35 223.394 18.05C216.694 20.65 209.944 24.05 203.144 28.25C201.744 33.85 199.344 39.25 195.944 44.45C192.644 49.65 189.244 53.95 185.744 57.35C183.844 59.45 181.544 61.05 178.844 62.15C178.244 62.45 177.544 62.6 176.744 62.6C174.644 62.6 172.694 61.6 170.894 59.6C169.094 57.6 168.194 55.65 168.194 53.75L168.344 52.4C169.144 50 170.444 47.9 172.244 46.1C174.044 44.2 175.944 42.45 177.944 40.85L180.494 38.75C185.694 34.55 191.144 30.55 196.844 26.75C196.944 26.75 196.994 26.65 196.994 26.45C197.094 26.25 197.194 26 197.294 25.7C197.394 25.3 197.444 24.95 197.444 24.65C198.444 21.95 198.944 18.85 198.944 15.35C198.944 12.45 198.244 10.5 196.844 9.5C196.344 9.1 195.444 8.9 194.144 8.9C192.944 8.9 191.794 9.15 190.694 9.65C185.994 11.75 180.844 16.05 175.244 22.55C171.844 26.45 168.594 30.55 165.494 34.85L157.544 45.35C157.144 46.05 156.644 46.75 156.044 47.45L154.994 48.65C143.394 74.75 137.594 93.15 137.594 103.85C137.594 105.45 137.744 106.9 138.044 108.2L138.194 108.65C138.394 108.85 138.694 109.05 139.094 109.25C140.294 109.45 141.194 110.05 141.794 111.05C142.094 111.35 142.244 111.75 142.244 112.25C142.244 112.45 142.144 112.55 141.944 112.55ZM174.194 56.3C175.294 55.9 176.394 55.25 177.494 54.35C182.994 49.95 188.194 43.5 193.094 35C183.394 42.2 177.094 49.3 174.194 56.3ZM237.063 61.85C234.263 61.85 231.363 60.6 228.363 58.1C224.363 54.5 222.363 49.3 222.363 42.5C222.363 34.7 224.663 26.9 229.263 19.1C233.963 11.3 239.563 6.45 246.063 4.55C246.363 4.55 246.763 4.8 247.263 5.3C247.863 5.8 248.363 6.35 248.763 6.95C249.163 7.55 249.363 8.05 249.363 8.45C249.363 8.65 249.313 8.75 249.213 8.75C248.413 9.05 247.563 9.5 246.663 10.1C248.063 9.9 249.513 9.8 251.013 9.8L253.112 9.65C257.413 9.45 261.713 9.35 266.013 9.35C272.213 9.35 278.363 9.6 284.463 10.1C288.163 10.2 290.463 11.3 291.363 13.4C291.463 13.5 291.513 13.65 291.513 13.85C291.513 14.15 291.363 14.3 291.063 14.3L290.613 14.15C285.413 13.65 279.963 13.4 274.263 13.4C264.563 13.4 257.863 13.45 254.162 13.55C258.663 17.35 260.913 22.1 260.913 27.8C260.813 32.8 259.463 38.1 256.863 43.7C254.663 48.4 251.813 52.6 248.313 56.3C244.813 60 241.063 61.85 237.063 61.85ZM234.213 56.9C235.713 56.9 237.263 56.5 238.863 55.7C243.463 53.2 247.263 49.5 250.263 44.6C253.063 40.6 255.063 36.2 256.263 31.4C256.863 29.2 257.163 27 257.163 24.8C257.163 22.4 256.663 20.1 255.663 17.9C254.463 15.7 251.813 14.5 247.713 14.3C247.213 14.2 246.663 13.9 246.063 13.4C245.563 12.9 245.163 12.4 244.863 11.9L244.563 11.45L242.763 13.1C238.063 17.4 234.313 22.85 231.513 29.45C228.713 35.95 227.313 42.45 227.313 48.95C227.513 50.75 227.913 52.5 228.513 54.2L228.663 54.5C228.863 55.1 229.213 55.5 229.713 55.7C231.213 56.5 232.713 56.9 234.213 56.9ZM318.255 62.45C315.455 62.45 312.805 61.4 310.305 59.3C307.805 57.2 305.905 54.8 304.605 52.1C303.105 49 302.355 45.9 302.355 42.8C302.355 41.9 302.405 41.05 302.505 40.25C298.705 47.05 293.905 53 288.105 58.1C286.705 59.2 285.305 59.75 283.905 59.75C282.005 59.75 280.355 59 278.955 57.5C275.955 54.3 274.455 50.35 274.455 45.65C274.455 40.95 275.655 36.1 278.055 31.1C282.255 22.2 288.055 13.75 295.455 5.75C295.555 5.65 295.705 5.6 295.905 5.6C296.305 5.6 296.805 5.85 297.405 6.35C298.005 6.85 298.555 7.45 299.055 8.15C299.555 8.75 299.805 9.3 299.805 9.8C299.805 9.9 299.805 10 299.805 10.1C299.805 10.2 298.955 11.45 297.255 13.85C293.055 19.35 289.255 25.2 285.855 31.4C282.455 37.5 280.505 44.05 280.005 51.05C280.005 52.05 280.155 53.2 280.455 54.5C282.955 54.5 285.405 53.25 287.805 50.75C290.205 48.15 292.255 45.7 293.955 43.4L295.005 41.9C300.105 34.9 304.855 27.65 309.255 20.15C309.255 20.05 309.355 20 309.555 20C310.255 20 311.155 20.7 312.255 22.1C312.655 22.7 312.855 23.3 312.855 23.9L312.105 25.7C309.105 32.4 307.555 38.9 307.455 45.2C307.455 46.4 307.555 47.55 307.755 48.65C308.255 52.05 309.005 54.25 310.005 55.25C311.005 56.25 312.205 56.75 313.605 56.75L314.805 56.6C321.605 54.5 327.305 49.75 331.905 42.35C336.605 34.85 339.605 27.7 340.905 20.9C341.305 18.9 341.505 16.95 341.505 15.05C341.505 13.85 341.355 12.7 341.055 11.6C339.855 10.4 338.855 8.95 338.055 7.25L337.905 6.65C337.905 6.35 338.055 6.2 338.355 6.2L338.955 6.35C340.755 7.15 342.155 8.5 343.155 10.4C347.255 12.3 352.005 13.25 357.405 13.25C362.805 13.25 367.805 12.45 372.405 10.85C372.805 10.85 373.205 11.05 373.605 11.45C374.005 11.85 374.355 12.3 374.655 12.8C375.055 13.3 375.255 13.7 375.255 14C375.255 14.2 375.205 14.3 375.105 14.3C370.405 16.3 365.505 17.3 360.405 17.3C354.105 17.3 348.855 16.25 344.655 14.15C344.955 15.55 345.105 17 345.105 18.5C345.105 25.2 342.205 33.95 336.405 44.75C332.405 52.05 327.955 57.5 323.055 61.1C321.555 62 319.955 62.45 318.255 62.45ZM362.909 61.55C359.709 61.55 356.709 59.45 353.909 55.25C351.709 52.05 350.609 48.65 350.609 45.05C350.609 41.75 351.309 38.5 352.709 35.3C354.109 32 355.709 29 357.509 26.3C359.409 23.6 361.859 20.65 364.859 17.45C367.859 14.15 371.159 11.3 374.759 8.9C378.459 6.5 382.059 5.3 385.559 5.3C388.159 5.3 390.459 6.15 392.459 7.85C393.759 8.95 394.409 10.2 394.409 11.6C394.409 13.8 392.159 17.25 387.659 21.95C383.759 26.15 379.309 30.05 374.309 33.65C369.309 37.15 365.159 38.9 361.859 38.9C360.959 38.9 360.109 38.65 359.309 38.15C359.209 38.15 359.109 38.1 359.009 38C359.009 37.9 358.959 37.8 358.859 37.7C356.659 41.4 355.559 45.3 355.559 49.4C355.559 51.5 356.059 53.55 357.059 55.55L357.509 56.15C358.309 56.85 359.159 57.2 360.059 57.2C361.859 57.2 364.509 56.2 368.009 54.2L368.909 53.75C378.909 47.85 391.809 36.85 407.609 20.75C413.009 15.45 416.309 12 417.509 10.4C417.609 10.3 417.759 10.25 417.959 10.25C418.359 10.25 418.859 10.5 419.459 11C420.059 11.5 420.609 12.1 421.109 12.8C421.609 13.4 421.859 13.95 421.859 14.45C421.859 14.65 421.809 14.8 421.709 14.9C415.609 25.1 410.709 35.9 407.009 47.3C405.909 49.8 405.359 52.55 405.359 55.55C411.759 46.45 417.409 36.9 422.309 26.9L429.209 14.3C432.709 8 435.959 4.85 438.959 4.85C442.059 4.85 445.109 8.5 448.109 15.8C449.109 18.4 450.009 20.25 450.809 21.35C451.609 22.45 452.859 23 454.559 23C456.259 23 457.809 22.6 459.209 21.8C460.609 21 463.009 19.15 466.409 16.25C469.909 13.35 472.059 11.8 472.859 11.6C473.059 11.6 473.309 11.7 473.609 11.9C473.909 12.1 474.159 12.35 474.359 12.65C474.559 12.95 474.659 13.2 474.659 13.4C474.459 14.2 473.909 15.2 473.009 16.4C471.209 18.6 469.509 20.4 467.909 21.8C463.909 25.3 460.259 27.05 456.959 27.05C455.059 27.05 453.159 26.3 451.259 24.8C447.259 21.3 444.459 16.95 442.859 11.75L441.959 9.8C441.559 9.8 440.709 10.3 439.409 11.3C437.609 12.7 436.159 14.25 435.059 15.95L433.709 17.6C430.709 21.7 427.909 25.95 425.309 30.35L420.659 39.05C416.859 46.55 412.559 53.8 407.759 60.8H407.159C405.359 60.1 403.959 58.95 402.959 57.35C401.759 55.35 401.159 53.15 401.159 50.75C401.159 47.75 401.659 44.75 402.659 41.75C404.259 35.95 406.409 30.45 409.109 25.25C398.209 36.25 389.609 44.45 383.309 49.85C378.809 53.75 373.909 57.1 368.609 59.9C366.509 61 364.609 61.55 362.909 61.55ZM361.559 36.95C365.159 36.95 369.009 34.95 373.109 30.95C377.309 26.85 380.959 22.7 384.059 18.5C387.159 14.3 388.959 11.55 389.459 10.25H389.009C384.109 10.25 378.409 13.55 371.909 20.15C367.409 24.25 363.209 29.7 359.309 36.5C360.109 36.8 360.859 36.95 361.559 36.95Z" fill="#001242"/>
</svg>
