<svg width="527" height="129" viewBox="0 0 527 129" fill="none" xmlns="http://www.w3.org/2000/svg">
<path d="M13.8094 101.352C10.6094 101.352 7.85938 100.152 5.55938 97.752C2.05938 93.952 0.309375 89.502 0.309375 84.402C0.309375 79.002 1.80938 73.902 4.80938 69.102C7.90938 64.202 11.3594 59.802 15.1594 55.902C17.5594 53.4019 20.6094 50.902 24.3094 48.402C28.0094 45.902 31.6094 44.652 35.1094 44.652C38.8094 44.652 41.6594 46.452 43.6594 50.0519C43.8594 50.352 43.9594 50.752 43.9594 51.252C43.9594 53.452 41.9594 56.7519 37.9594 61.1519C34.0594 65.452 29.5594 69.402 24.4594 73.002C19.3594 76.602 15.0594 78.402 11.5594 78.402C10.5594 78.402 9.60938 78.152 8.70938 77.652C8.60938 77.652 8.45938 77.502 8.25938 77.202C5.95938 81.902 4.80938 86.102 4.80938 89.802C4.80938 94.702 6.80938 97.152 10.8094 97.152C12.3094 97.152 13.7094 96.952 15.0094 96.552C20.4094 94.852 26.6094 91.602 33.6094 86.802C38.9094 83.102 44.0594 79.252 49.0594 75.252L58.0594 68.052C58.3594 68.052 58.7094 68.252 59.1094 68.652C59.5094 68.952 59.8594 69.352 60.1594 69.852C60.4594 70.252 60.6094 70.602 60.6094 70.902L60.4594 71.202L52.8094 77.352C46.7094 82.452 40.4594 87.302 34.0594 91.902L32.2594 93.102C29.4594 95.102 26.5594 96.902 23.5594 98.502C20.5594 100.102 17.3094 101.052 13.8094 101.352ZM10.8094 76.302C13.4094 76.302 16.2594 75.052 19.3594 72.552C22.5594 69.952 25.5594 67.002 28.3594 63.702C31.2594 60.302 33.6594 57.252 35.5594 54.5519C37.4594 51.852 38.5094 50.252 38.7094 49.7519C35.9094 49.7519 32.7094 51.0019 29.1094 53.5019C20.5094 59.3019 13.7594 66.802 8.85938 76.002C9.45938 76.202 10.1094 76.302 10.8094 76.302ZM42.5684 124.902C40.7684 124.402 39.6684 123.052 39.2684 120.852C39.1684 120.452 39.1184 119.902 39.1184 119.202C39.1184 117.702 39.5184 116.202 40.3184 114.702C44.1184 107.302 51.0684 98.802 61.1684 89.202C58.1684 84.502 56.6684 79.702 56.6684 74.802C56.6684 65.202 60.9684 56.402 69.5684 48.402C69.6684 48.302 69.8184 48.252 70.0184 48.252C70.4184 48.252 70.9184 48.502 71.5184 49.0019C72.1184 49.5019 72.6184 50.0519 73.0184 50.652C73.5184 51.252 73.7684 51.802 73.7684 52.302C73.7684 52.602 73.7184 52.802 73.6184 52.902C70.7184 56.202 68.0184 60.302 65.5184 65.202C63.1184 70.002 61.9184 74.752 61.9184 79.452C61.9184 82.152 62.4684 84.702 63.5684 87.102C64.5684 86.102 69.1184 82.102 77.2184 75.102C95.7184 59.202 106.568 49.702 109.768 46.6019L110.968 45.402C113.668 42.902 116.018 40.152 118.018 37.152C118.118 36.9519 118.168 36.7519 118.168 36.5519C118.168 36.2519 118.268 36.102 118.468 36.102C118.768 36.102 119.118 36.2519 119.518 36.5519C120.718 37.4519 121.318 38.5019 121.318 39.7019C121.318 42.102 118.168 46.252 111.868 52.1519C100.768 62.852 86.3684 76.452 68.6684 92.952C72.3684 95.352 76.2184 96.552 80.2184 96.552C92.0184 96.552 106.018 88.452 122.218 72.252C123.518 70.852 124.918 69.602 126.418 68.502H126.718C127.218 68.502 127.768 68.902 128.368 69.702C128.568 70.002 128.668 70.352 128.668 70.752C127.168 73.552 125.218 76.102 122.818 78.402C120.418 80.602 118.068 82.752 115.768 84.852C112.668 87.452 109.318 90.052 105.718 92.652C97.1184 98.752 89.2684 101.802 82.1684 101.802C80.9684 101.802 79.7684 101.702 78.5684 101.502C74.0684 100.402 70.1684 98.302 66.8684 95.202C66.7684 95.102 66.6684 95.052 66.5684 95.052C66.5684 95.052 66.5684 95.002 66.5684 94.902C56.0684 104.902 50.2184 110.602 49.0184 112.002L48.2684 112.902C46.9684 114.402 45.7684 116.002 44.6684 117.702C43.5684 119.402 42.9184 121.252 42.7184 123.252C42.7184 123.552 42.7684 123.752 42.8684 123.852C42.8684 123.952 42.9184 124.052 43.0184 124.152C43.0184 124.252 43.0184 124.352 43.0184 124.452C43.0184 124.752 42.8684 124.902 42.5684 124.902ZM134.198 101.352C131.598 101.352 129.298 100.252 127.298 98.052C123.498 93.952 121.598 89.502 121.598 84.702C121.598 79.602 123.048 74.602 125.948 69.702C127.948 66.002 130.798 61.952 134.498 57.552C138.198 53.152 142.298 49.352 146.798 46.152C151.398 42.852 155.848 41.202 160.148 41.202C161.748 41.202 163.348 41.802 164.948 43.002C166.648 44.202 167.598 45.5019 167.798 46.9019C167.798 50.302 166.398 54.102 163.598 58.302C160.898 62.402 158.198 65.652 155.498 68.052C155.198 68.052 154.848 67.952 154.448 67.752C153.648 67.052 153.248 66.452 153.248 65.952L153.398 65.652C155.998 63.452 158.848 59.752 161.948 54.5519C163.848 51.3519 164.798 48.4019 164.798 45.702C164.498 45.602 163.998 45.5519 163.298 45.5519C160.898 45.5519 158.298 46.402 155.498 48.102C151.598 50.502 148.498 52.902 146.198 55.3019C139.298 61.7019 134.048 68.552 130.448 75.852C128.448 79.452 127.148 83.302 126.548 87.402L126.398 89.502C126.398 90.502 126.498 91.552 126.698 92.652L126.998 93.552C127.498 95.852 129.248 97.002 132.248 97.002C134.048 97.002 135.748 96.702 137.348 96.102C145.248 93.402 155.798 86.702 168.998 76.002L179.198 68.052C179.498 68.052 179.848 68.252 180.248 68.652C180.648 68.952 180.998 69.352 181.298 69.852C181.598 70.252 181.748 70.602 181.748 70.902L181.598 71.202L174.098 77.202C162.898 86.502 153.848 93.252 146.948 97.452C142.648 100.052 138.398 101.352 134.198 101.352ZM279.511 128.502C279.211 128.502 278.761 128.202 278.161 127.602C275.661 124.202 274.411 120.352 274.411 116.052C274.411 108.652 276.761 100.102 281.461 90.402L281.911 89.352C290.211 71.152 300.411 53.152 312.511 35.352L319.261 25.0019L318.661 25.752C306.461 42.652 293.711 58.502 280.411 73.302C262.211 93.802 249.211 104.052 241.411 104.052C240.511 104.052 239.711 103.902 239.011 103.602C236.911 102.702 235.011 101.402 233.311 99.702C230.511 96.902 228.561 93.652 227.461 89.952C226.861 86.952 226.561 83.502 226.561 79.602L226.861 77.052L225.361 78.252C214.561 87.052 205.511 93.502 198.211 97.602C193.611 100.102 189.761 101.352 186.661 101.352C184.561 101.352 182.611 100.752 180.811 99.552C178.011 97.452 175.911 94.802 174.511 91.602C173.511 89.602 173.011 87.402 173.011 85.002C173.011 79.602 174.961 73.802 178.861 67.602C182.761 61.302 187.411 55.952 192.811 51.552C198.211 47.052 203.211 44.8019 207.811 44.8019C211.111 44.8019 213.811 46.2019 215.911 49.0019C216.411 49.7019 216.661 50.452 216.661 51.252C216.661 52.252 216.311 53.2519 215.611 54.2519C214.811 55.752 212.661 58.452 209.161 62.352C205.761 66.152 201.811 69.852 197.311 73.452C192.911 76.952 188.911 78.702 185.311 78.702C184.011 78.702 182.761 78.352 181.561 77.652C181.461 77.652 181.311 77.502 181.111 77.202L180.661 78.252C178.561 81.752 177.511 85.402 177.511 89.202C177.511 90.402 177.611 91.502 177.811 92.502C178.111 93.402 178.511 94.252 179.011 95.052C179.511 95.852 180.211 96.402 181.111 96.702C182.111 96.902 183.061 97.002 183.961 97.002C186.561 97.002 189.161 96.452 191.761 95.352C194.361 94.252 196.711 93.102 198.811 91.902L200.311 91.002C210.211 85.102 219.311 78.202 227.611 70.302C227.811 70.102 227.911 69.952 227.911 69.852C228.011 69.752 228.161 69.702 228.361 69.702C229.961 64.002 232.211 58.452 235.111 53.052C240.211 43.6519 245.261 35.652 250.261 29.052C253.261 25.052 256.811 20.852 260.911 16.4519C270.711 5.75195 278.561 0.401949 284.461 0.401949C286.861 0.401949 288.911 1.50195 290.611 3.70195C291.011 4.10195 291.211 4.70195 291.211 5.50195C291.211 8.70195 288.261 13.8019 282.361 20.8019C273.361 31.5019 259.611 45.6519 241.111 63.2519L235.561 68.652C235.461 68.952 235.311 69.352 235.111 69.852C234.911 70.252 234.761 70.752 234.661 71.352C232.761 77.052 231.811 82.052 231.811 86.352C231.811 89.452 232.361 92.502 233.461 95.502C235.061 97.202 236.811 98.052 238.711 98.052C240.511 98.052 242.361 97.602 244.261 96.702C253.961 91.502 264.911 82.202 277.111 68.802C289.411 55.4019 300.611 42.0519 310.711 28.752C320.811 15.352 327.361 6.15195 330.361 1.15195L330.511 1.00195C330.911 1.00195 331.461 1.45195 332.161 2.35195C332.961 3.15195 333.361 3.90195 333.361 4.60195C333.361 6.60195 331.911 10.2019 329.011 15.402L327.811 17.502C326.311 20.5019 321.011 30.2519 311.911 46.752L302.011 65.052C296.811 74.452 293.161 81.352 291.061 85.752L286.411 95.052C283.911 99.452 281.861 104.002 280.261 108.702C278.661 114.302 277.861 118.452 277.861 121.152C277.861 122.852 278.011 124.102 278.311 124.902C278.611 125.802 278.861 126.352 279.061 126.552C279.261 126.852 279.411 127.052 279.511 127.152C279.711 127.252 279.811 127.402 279.811 127.602C279.911 127.802 279.961 127.952 279.961 128.052C279.961 128.352 279.811 128.502 279.511 128.502ZM183.511 76.302C184.611 76.302 185.711 76.102 186.811 75.702C187.911 75.202 188.911 74.652 189.811 74.052C193.911 71.552 198.061 67.902 202.261 63.102C206.461 58.302 209.561 53.8519 211.561 49.7519C208.761 49.7519 205.811 50.802 202.711 52.902C193.911 58.602 186.911 66.302 181.711 76.002C182.311 76.202 182.911 76.302 183.511 76.302ZM238.861 60.702L252.211 47.502L257.161 42.4019C275.961 23.8019 286.261 10.9019 288.061 3.70195C284.761 3.70195 281.211 5.35195 277.411 8.65195C273.711 11.9519 270.661 14.9519 268.261 17.652L267.211 18.7019C262.711 23.502 257.811 29.652 252.511 37.152C247.311 44.552 242.761 52.402 238.861 60.702ZM326.372 101.052C323.172 101.052 320.172 98.952 317.372 94.752C315.272 91.452 314.222 88.102 314.222 84.702C314.222 78.902 316.522 72.602 321.122 65.802C327.922 55.702 335.722 48.952 344.522 45.5519C346.122 45.0519 347.672 44.8019 349.172 44.8019C351.772 44.8019 354.122 45.702 356.222 47.502C357.322 48.402 357.872 49.552 357.872 50.952C357.872 53.052 355.722 56.502 351.422 61.302C347.722 65.502 343.422 69.452 338.522 73.152C333.722 76.752 329.572 78.552 326.072 78.552C324.772 78.552 323.672 78.252 322.772 77.652C322.672 77.652 322.572 77.602 322.472 77.502C322.472 77.402 322.422 77.302 322.322 77.202C320.122 81.702 319.022 85.602 319.022 88.902C319.022 91.102 319.572 93.302 320.672 95.502L320.822 95.652C320.922 95.852 321.072 96.002 321.272 96.102C321.572 96.202 322.222 96.252 323.222 96.252C325.922 96.252 329.272 95.102 333.272 92.802C342.672 87.002 354.372 77.052 368.372 62.952L381.422 49.902C381.422 49.8019 381.522 49.7519 381.722 49.7519C382.122 49.7519 382.622 50.002 383.222 50.502C383.822 51.002 384.372 51.602 384.872 52.302C385.372 52.902 385.622 53.452 385.622 53.952C385.622 54.152 385.572 54.3019 385.472 54.402C382.672 59.102 380.422 63.252 378.722 66.852C373.222 78.252 370.172 87.252 369.572 93.852C373.272 89.152 376.872 84.352 380.372 79.452C385.672 71.952 391.322 64.752 397.322 57.852C401.322 53.052 404.972 50.052 408.272 48.852C408.772 48.652 409.272 48.552 409.772 48.552C411.172 48.552 412.422 49.052 413.522 50.0519C414.622 50.9519 415.172 52.152 415.172 53.652C414.872 56.552 414.122 59.352 412.922 62.052L410.522 68.352C408.122 74.252 406.572 80.352 405.872 86.652C405.872 88.352 405.922 89.602 406.022 90.402V90.552C406.522 93.052 407.922 94.302 410.222 94.302C415.522 94.102 425.672 86.802 440.672 72.402C442.972 70.202 444.372 68.952 444.872 68.652H445.172C445.572 68.652 446.072 69.002 446.672 69.702C446.872 70.002 446.972 70.302 446.972 70.602C446.672 71.202 445.422 72.752 443.222 75.252C438.022 81.152 433.372 86.052 429.272 89.952C422.172 96.352 416.972 99.552 413.672 99.552C411.472 99.552 409.372 98.702 407.372 97.002C403.172 93.202 401.072 88.652 401.072 83.352C401.072 80.152 401.622 77.002 402.722 73.902C403.822 70.702 405.072 67.602 406.472 64.602L407.222 62.802L409.022 58.7519C410.222 56.6519 411.122 54.502 411.722 52.302C405.122 54.602 395.022 66.102 381.422 86.802C379.522 89.602 377.772 92.052 376.172 94.152C374.672 96.152 373.222 98.302 371.822 100.602L371.522 100.752L371.222 100.602C369.522 100.102 368.072 99.102 366.872 97.602C365.772 96.102 365.072 94.552 364.772 92.952L364.622 91.152C364.622 84.652 367.522 75.602 373.322 64.002L361.622 75.702C354.922 82.102 349.872 86.752 346.472 89.652C342.072 93.352 337.272 96.602 332.072 99.402C329.972 100.502 328.072 101.052 326.372 101.052ZM325.172 76.452C328.672 76.452 332.472 74.452 336.572 70.452C340.772 66.352 344.422 62.202 347.522 58.0019C350.622 53.802 352.422 51.0519 352.922 49.7519H352.472C347.672 49.7519 342.022 53.0519 335.522 59.652C330.922 63.752 326.722 69.202 322.922 76.002C323.522 76.302 324.272 76.452 325.172 76.452ZM451.044 101.352C448.444 101.352 446.144 100.252 444.144 98.052C440.344 93.952 438.444 89.502 438.444 84.702C438.444 79.602 439.894 74.602 442.794 69.702C444.794 66.002 447.644 61.952 451.344 57.552C455.044 53.152 459.144 49.352 463.644 46.152C468.244 42.852 472.694 41.202 476.994 41.202C478.594 41.202 480.194 41.802 481.794 43.002C483.494 44.202 484.444 45.5019 484.644 46.9019C484.644 50.302 483.244 54.102 480.444 58.302C477.744 62.402 475.044 65.652 472.344 68.052C472.044 68.052 471.694 67.952 471.294 67.752C470.494 67.052 470.094 66.452 470.094 65.952L470.244 65.652C472.844 63.452 475.694 59.752 478.794 54.5519C480.694 51.3519 481.644 48.4019 481.644 45.702C481.344 45.602 480.844 45.5519 480.144 45.5519C477.744 45.5519 475.144 46.402 472.344 48.102C468.444 50.502 465.344 52.902 463.044 55.3019C456.144 61.7019 450.894 68.552 447.294 75.852C445.294 79.452 443.994 83.302 443.394 87.402L443.244 89.502C443.244 90.502 443.344 91.552 443.544 92.652L443.844 93.552C444.344 95.852 446.094 97.002 449.094 97.002C450.894 97.002 452.594 96.702 454.194 96.102C462.094 93.402 472.644 86.702 485.844 76.002L496.044 68.052C496.344 68.052 496.694 68.252 497.094 68.652C497.494 68.952 497.844 69.352 498.144 69.852C498.444 70.252 498.594 70.602 498.594 70.902L498.444 71.202L490.944 77.202C479.744 86.502 470.694 93.252 463.794 97.452C459.494 100.052 455.244 101.352 451.044 101.352ZM503.507 101.352C500.307 101.352 497.557 100.152 495.257 97.752C491.757 93.952 490.007 89.502 490.007 84.402C490.007 79.002 491.507 73.902 494.507 69.102C497.607 64.202 501.057 59.802 504.857 55.902C507.257 53.4019 510.307 50.902 514.007 48.402C517.707 45.902 521.307 44.652 524.807 44.652C528.507 44.652 531.357 46.452 533.357 50.0519C533.557 50.352 533.657 50.752 533.657 51.252C533.657 53.452 531.657 56.7519 527.657 61.1519C523.757 65.452 519.257 69.402 514.157 73.002C509.057 76.602 504.757 78.402 501.257 78.402C500.257 78.402 499.307 78.152 498.407 77.652C498.307 77.652 498.157 77.502 497.957 77.202C495.657 81.902 494.507 86.102 494.507 89.802C494.507 94.702 496.507 97.152 500.507 97.152C502.007 97.152 503.407 96.952 504.707 96.552C510.107 94.852 516.307 91.602 523.307 86.802C528.607 83.102 533.757 79.252 538.757 75.252L547.757 68.052C548.057 68.052 548.407 68.252 548.807 68.652C549.207 68.952 549.557 69.352 549.857 69.852C550.157 70.252 550.307 70.602 550.307 70.902L550.157 71.202L542.507 77.352C536.407 82.452 530.157 87.302 523.757 91.902L521.957 93.102C519.157 95.102 516.257 96.902 513.257 98.502C510.257 100.102 507.007 101.052 503.507 101.352ZM500.507 76.302C503.107 76.302 505.957 75.052 509.057 72.552C512.257 69.952 515.257 67.002 518.057 63.702C520.957 60.302 523.357 57.252 525.257 54.5519C527.157 51.852 528.207 50.252 528.407 49.7519C525.607 49.7519 522.407 51.0019 518.807 53.5019C510.207 59.3019 503.457 66.802 498.557 76.002C499.157 76.202 499.807 76.302 500.507 76.302Z" fill="#001242"/>
</svg>
