<?xml version="1.0" encoding="UTF-8"?>
<svg id="Layer_2" data-name="Layer 2" xmlns="http://www.w3.org/2000/svg" viewBox="0 0 994.45 327.75">
  <defs>
    <style>
      .cls-1 {
        fill: #fc4551;
      }

      .cls-2 {
        fill: #fc4853;
      }

      .cls-3 {
        fill: #fe010e;
      }

      .cls-4 {
        fill: #fd3f49;
      }

      .cls-5 {
        fill: #fd404a;
      }

      .cls-6 {
        fill: #fe000e;
      }

      .cls-7 {
        fill: #fd404b;
      }

      .cls-8 {
        fill: #fcbec1;
      }

      .cls-9 {
        fill: #fe4049;
      }

      .cls-10 {
        fill: #fcbbc0;
      }

      .cls-11 {
        fill: #fbb8bc;
      }

      .cls-12 {
        fill: #fcbfc3;
      }

      .cls-13 {
        fill: #fcb6b9;
      }

      .cls-14 {
        fill: #fd434e;
      }

      .cls-15 {
        fill: #fd424b;
      }

      .cls-16 {
        fill: #fdbec1;
      }

      .cls-17 {
        fill: #fdbfc2;
      }
    </style>
  </defs>
  <g id="Layer_1-2" data-name="Layer 1">
    <g id="krkvTO">
      <g>
        <path class="cls-6" d="m280.98,201.43c1.2-.02,2.41,0,3.61-.09.47-.04.93-.32,1.39-.49.14-.11.28-.21.42-.32,1.18-.28,2.54.35,3.56-.85.23-.28,1.01-.08,1.53-.13.63-.06,1.4.24,1.69-.7.04-.13.37-.22.57-.26,3.79-.7,6.96-2.68,10.11-4.73,2.74-1.78,5.49-3.56,7.72-5.96,1.15-1.23,2.16-2.63,3.03-4.07.34-.57.16-1.47.16-2.21,0-21.35,0-42.71,0-64.06v-2.75h24.42v2.42c0,28.95,0,57.9.01,86.85,0,1.07-.38,2.27.73,3.12.14.1.11.42.15.64,1.2,6.19,4.27,9.77,8.54,12.65,1.66,1.12,3.17,1.79,5.1,1.64,2.52,1.71,5.35.59,8.02.87.69.07,1.5.27,2.04-.57.15-.23.7-.36,1.01-.28,2,.48,3.72-.66,5.53-1.07,2.09-.48,4.06-1.59,6.02-2.58,2.38-1.2,4.78-2.39,6.98-3.87,2.08-1.41,3.91-3.19,5.82-4.83,1.35-1.16,2.35-2.71,4.18-3.34.58-.2,1.16-.82,1.43-1.4,1.31-2.83,3.94-4.46,5.9-6.71,1.74-2,3.36-4.09,4.7-6.38.18-.32.46-.59.72-.85,1.84-1.76,2.99-4,4.26-6.15.34-.58.29-1.43.29-2.15.02-11.43.01-22.86.01-34.29,0-10.6,0-21.2,0-31.81,0-.59.06-1.18.09-1.89h24.26c.04,4.74.07,9.51.11,14.29.16.02.33.04.49.06,3.23-1.92,5.88-4.61,9.07-6.64,2.96-1.88,6.25-3.08,9.11-5.07,2.56.02,4.44-2.44,7.14-1.96.14.02.33-.26.49-.41.14-.11.28-.21.42-.32,1.03-.35,2.28.44,3.19-.59.14-.11.28-.21.43-.32,1.43-.02,2.86,0,4.28-.1.55-.03,1.07-.32,1.61-.49.15-.11.3-.22.44-.33,1.51.07,3.02-.46,4.47.71.6.48,1.92.27,2.86.1,2.14-.41,3.96.87,5.98.99,1.49,1.98,4.18,1.22,5.97,2.64,2.43,1.93,5.36,3.31,7.2,5.88,1.7,2.38,3.16,4.95,4.54,7.53,1.05,1.97,1.83,4.1,2.68,6.17.16.39.02.9.11,1.33.13.62.4,1.21.53,1.84.16.79.28,1.59.35,2.39.1,1.16-.17,2.31.68,3.42.42.54.22,1.59.23,2.41,0,18.41,0,36.83.01,55.24,0,1.31.06,2.53.67,3.86.71,1.54.6,3.44.8,4.8.85,1.12,1.47,2.01,2.17,2.84,1.97,2.36,4.03,4.64,6.88,5.98,1.24.58,2.43,1.44,3.94,1.04,2.67,1.69,5.65.6,8.47.86.52.05,1.07-.31,1.61-.48.14-.11.29-.21.43-.32.3-.02.6-.06.9-.07,2.73-.04,2.64-.27,6.07-1.63,1.6-.63,3.29-1.08,4.88-1.84,3.29-1.58,6.27-3.54,9.22-5.71,5.86-4.31,10.29-10.04,15.64-14.83.75-2.72,3.87-3.73,4.67-6.45.13-.45.7-.76,1.06-1.15.5-.53.99-1.08,1.29-1.41-.66-2.09-1.06-3.94-1.82-5.64-1.11-2.5-.96-5.39-2.51-7.75-.22-.33-.14-.87-.16-1.32-.06-1.16.28-2.39-.78-3.35-.2-.18-.1-.72-.12-1.09-.05-.79.22-1.68-.66-2.24-.1-.06-.18-.28-.16-.4.45-2.28-.83-4.28-1.07-6.46-.25-2.24-1.1-4.41-.88-6.72-1.31-1.38-.73-3.09-.84-4.68-.07-.87.19-1.76-.67-2.49-.29-.25-.22-.99-.23-1.5-.03-1.2.02-2.41-.02-3.61-.03-1.08.27-2.22-.71-3.15-.29-.27-.17-1-.18-1.52-.02-1.8.02-3.61-.02-5.41-.02-1.01.2-2.03-.67-2.95-.36-.38-.21-1.29-.22-1.95-.02-4.51,0-9.02-.02-13.53,0-.85.22-1.72-.6-2.51-.37-.35-.27-1.27-.28-1.94-.03-2.77-.01-5.54-.01-8.55h-27.91v-22.59h28.82v-2.55c0-2.56-.02-5.11.01-7.67.01-.93-.27-1.92.66-2.72.29-.25.21-.99.22-1.5.02-1.8-.02-3.61.02-5.41.02-1.08-.31-2.23.73-3.14.25-.22.16-.85.16-1.3.02-1.35-.02-2.71.02-4.06.03-.93-.24-1.9.66-2.72.33-.3.17-1.13.23-1.72.17-1.65-.52-3.43.84-4.91.19-.21.04-.73.07-1.1.09-1.08-.34-2.28.76-3.12.09-.07.14-.29.11-.42-.51-2.14.92-3.96.99-6.02.04-1.05.55-2.08.88-3.11.62-1.92,1.27-3.83,1.9-5.74.02-.07.09-.13.1-.2.57-3.64,2.94-6.49,4.5-9.67,1.15-2.33,3.02-4.49,5.06-6.13,2-1.62,4.13-3.41,6.95-3.72.2-.02.35-.54.52-.82,4.22,0,8.44,0,12.66,0-.26.72.23.81.76,1.04,2.65,1.16,4.93,2.89,7.08,4.78.48.42.75,1.07,1.11,1.61.89,1.31,1.79,2.62,2.67,3.93.36.55.82,1.09,1,1.7.46,1.6,1.02,3.14,1.82,4.6.12.15.24.29.36.44.11.11.28.2.31.32.56,2.34,1.1,4.68,1.64,7.01.05.21.08.58.19.61,1.53.39.96,1.62,1.08,2.58.04.37,0,.88.21,1.07.91.77.65,1.77.69,2.71.03.52-.16,1.24.11,1.53,1.02,1.08.74,2.35.8,3.59.02.43,0,1.01.26,1.27.76.75.62,1.64.63,2.53.02,1.05-.36,2.31.09,3.11,1.32,2.35.6,4.81.82,7.21.04.44-.1,1.07.14,1.3,1.14,1.13.72,2.52.76,3.82.05,1.87-.04,3.75.04,5.63.03.7.36,1.38.55,2.07l.27.55v12.77h32.51v22.48h-31.55c0,1.57,0,2.91,0,4.25,0,.52.19,1.26-.08,1.54-1.29,1.35-.75,2.96-.8,4.47-.08,2.25-.02,4.51-.02,6.76,0,.45.17,1.06-.06,1.33-1.44,1.71-.63,3.72-.84,5.59-.08.66.15,1.63-.21,1.94-.94.81-.63,1.77-.69,2.69-.05.82-.05,1.65-.07,2.48-.11.15-.22.29-.33.44-.17.46-.46.91-.49,1.38-.09,1.19-.06,2.39-.09,3.59-.11.15-.22.3-.32.44-.17.39-.43.76-.49,1.17-.11.73.18,1.75-.21,2.18-.85.92-.68,1.91-.72,2.93-.03.8-.12,1.48-.6,2.27-.68,1.13-.86,2.58-1.2,3.9-.4,1.53-.48,3.23-1.21,4.57-.47.87-.75,1.68-.56,2.48.31,1.31-1.25,1.39-1.32,2.37-.01.22.03.46-.02.67-.13.57-.14,1.25-.46,1.69-.99,1.34-.42,3.41-2.11,4.41-.13.07-.13.42-.13.64,0,2.3-1.21,4.22-2.06,6.21-1.48,3.49-3.14,6.92-4.97,10.24-1.32,2.39-2.15,5.04-4.07,7.16-1.4,1.54-1.78,3.6-.3,5.44,1.35,1.68,2.01,3.74,3.35,5.47,1.48,1.91,2.52,4.15,4.34,5.83.33.3.73.62.87,1.01.8,2.35,2.87,3.56,4.58,5.04,1.78,1.54,3.77,2.87,5.76,4.16,1.79,1.16,3.59,2.59,5.58,3.06,1.72.4,3.34,1.59,5.26,1.17.14-.03.36-.03.43.06,1.05,1.2,2.45.75,3.74.84.36.02.91,0,1.05.21.65.95,1.59.67,2.45.67,2.56.03,5.12.05,7.68-.01.69-.02,1.38-.32,2.07-.49.14-.11.29-.21.43-.32,1.04-.32,2.27.42,3.19-.58.14-.11.29-.21.43-.32,1.02-.14,2.21.02,3.04-.46,3.4-1.96,7.19-3.16,10.37-5.59,2.4-1.84,5.04-3.36,7.18-5.56,1.73-1.78,3.41-3.63,5.29-5.24,3.49-2.99,5.96-6.88,9.19-10.09.95-.94.76-2.19.36-3.17-.73-1.8-1.96-3.37-2.35-5.36-.27-1.38-1.04-2.65-1.43-4.01-.41-1.46-.56-2.95-1.26-4.39-.68-1.38-.74-3.06-1.11-4.6-.1-.42-.34-.8-.48-1.21-.45-1.29-1.16-2.57-1.25-3.89-.15-2.13-1.47-4.05-1.02-6.25.04-.18-.18-.4-.24-.61-.21-.68-.44-1.35-.61-2.04-.1-.43.08-1.08-.16-1.3-1.02-.91-.7-2.06-.76-3.15-.02-.37.12-.88-.08-1.1-1.19-1.35-.73-2.95-.84-4.48-.03-.44-.15-.87-.26-1.3-.2-.76-.52-1.5-.62-2.27-.21-1.65.47-3.44-.86-4.92-.16-.17-.04-.58-.07-.88-.14-1.89.47-3.87-.84-5.61-.22-.29-.06-.88-.06-1.33,0-1.65,0-3.31,0-4.96,0-.45.13-1.05-.11-1.32-1.21-1.37-.74-2.98-.78-4.5-.06-2.33.02-4.66-.03-6.99-.03-1.38.37-2.84-.77-4.06-.24-.25-.12-.87-.12-1.31,0-6.32,0-12.63,0-18.95,0-.52-.08-1.24.21-1.51.95-.87.67-1.93.68-2.94.02-5.04,0-10.07.02-15.11,0-.66-.08-1.54.29-1.93.68-.72.59-1.49.6-2.28.01-1.95,0-3.91,0-5.86,0-.45-.14-1.04.09-1.33,1.38-1.73.61-3.73.81-5.6.07-.67-.12-1.58.24-1.95.9-.92.61-1.94.66-2.95.05-1.05-.32-2.35.17-3.1.82-1.27.68-2.52.76-3.82.03-.43.22-.84.35-1.26.17-.54.42-1.06.52-1.61.36-2,.25-4.23,1.12-5.96,1.26-2.51,1.45-5.26,2.4-7.82.81-2.17,1.8-4.27,2.6-6.44.86-2.34,1.95-4.61,3.66-6.57,1.59-1.82,2.65-4.1,4.3-5.85,2.37-2.51,5.49-4.03,8.61-5.45.52-.24.98-.35.91-1.04h13.56v.91c1.67.54,3.11.88,4.43,1.47,1.92.86,4.79,3.58,6.36,5.39,1.34,1.54,3.01,2.76,3.88,4.74.67,1.53,1.75,2.87,2.5,4.37.7,1.42,1.2,2.94,1.78,4.42.11.14.22.28.33.42,0,0,.11.09.11.09.09.11.18.23.27.34.06.63.12,1.26.18,1.89.11.13.22.26.33.39.17.23.46.44.5.69.23,1.29.3,2.61.63,3.87.16.62,1.07,1.08,1.14,1.67.22,1.8,1.45,3.4,1.03,5.34-.09.4.34.92.54,1.38.09.18.18.37.26.55.06.82-.18,1.87.23,2.41.96,1.24.65,2.55.73,3.86.03.45-.16,1.06.07,1.32,1.25,1.42.72,3.11.84,4.7.03.37-.03.88.19,1.07,1.02.91.67,2.08.71,3.16.05,1.27-.41,2.84.17,3.76.96,1.52.67,3,.73,4.51.07,1.72,0,3.45.02,5.18,0,.51-.07,1.24.23,1.5.91.8.66,1.79.66,2.73.02,5.1,0,10.21.02,15.31,0,.65.16,1.3.3,1.94.16.69.55,1.37.56,2.05.05,4.73.03,9.46.02,14.19,0,.52.12,1.27-.17,1.51-1.05.91-.69,2.06-.72,3.13-.05,2.1,0,4.2-.02,6.3,0,.52.08,1.28-.2,1.5-.98.77-.63,1.77-.68,2.7-.06,1.12.37,2.53-.16,3.31-.88,1.28-.66,2.52-.76,3.81-.03.37,0,.92-.21,1.06-1.01.64-.61,1.6-.68,2.45-.05.6.2,1.43-.11,1.75-1.29,1.35-.58,2.99-.87,4.47-.11.15-.22.3-.32.45-.99.91-.27,2.13-.58,3.16-.11.15-.22.29-.33.44-.06.04-.15.07-.18.13-.63,1.47.06,3.41-1.6,4.51-.16,2.79-1.27,5.3-2.25,7.87-.84,2.2-1.3,4.55-1.94,6.83-.06.2-.17.49-.32.54-1.52.54-.59,2.01-1.14,2.92-.59.97-1.15,1.97-1.57,3.03-.4,1.02-.45,2.2-.93,3.17-.84,1.66-1.98,3.17-2.23,5.09-.07.5-.37.97-.59,1.43-1.92,4.02-3.95,7.98-6.33,11.76-1.36,2.15-2.54,4.41-3.87,6.73.65,1.85,1.94,3.49,3.13,5.25,1.67,2.45,3.19,4.97,5.48,6.93,1.01.87,2.07,1.76,1.89,2.84,1.17.83,2.17,1.34,2.92,2.09,2.39,2.4,5.16,4.23,8.16,5.73.4.2.81.41,1.12.71.8.76,1.7,1.14,2.8,1.09.37-.02.8-.04,1.1.13,1.9,1.08,3.88,1.79,6.11,1.67.37-.02.94-.06,1.08.14.77,1.1,1.88.71,2.88.74,1.2.04,2.42-.1,3.61.03,2.85.32,5.4-1.33,8.22-1.11.09,0,.19-.21.29-.32.14-.11.29-.22.43-.32,1.6.14,3.03-.37,4.44-1.08,1.1-.55,2.37-.77,3.43-1.38,2.48-1.43,4.88-3.01,7.31-4.53,2.57-1.62,5.07-3.33,7.22-5.51,2.69-2.73,5.44-5.41,8.14-8.14.52-.53.97-1.13,1.42-1.72.48-.65.87-1.37,1.38-1.99,1.55-1.89,3.2-3.7,4.68-5.64,1.29-1.69,2.19-3.71,3.64-5.23,1.1-1.15,1.2-2.28,1.2-3.65-.01-21.73,0-43.46,0-65.19,0-.8,0-1.59,0-2.54,8.32.08,16.32-.09,24.41.1v2.77c0,28.65,0,57.29-.01,85.94,0,2.75.55,5.25,2.02,7.64.95,1.55,1.97,2.97,3.36,4.1.69.56,1.6.86,2.22,1.48.71.71,1.46.95,2.41.91.5-.02,1.26-.05,1.48.24.64.85,1.47.53,2.25.65,1.32.21,2.46-.86,3.5-.79,2.02.13,3.69-.81,5.54-1.09,1.25-.19,2.49-.71,3.63-1.3,2.56-1.31,5.08-2.7,7.55-4.16,1.33-.79,2.65-1.67,3.77-2.72,2.42-2.26,4.68-4.68,7.06-6.98,1.59-1.54,2.3-3.31,2.29-5.54-.04-26.17-.03-52.33-.03-78.5,0-.87,0-1.74,0-2.62h24.41v108.93c.46.05.74.17.89.08,1.41-.84,2.94-.88,4.51-.82.22,0,.54,0,.64-.14.82-1.17,2.04-.67,3.1-.74,1.05-.08,2.41.34,3.09-.18,1.19-.92,2.37-.7,3.59-.72,3.31-.04,6.64.11,9.94-.06,2.29-.12,4.49-1,6.8-1.2.05,0,.09-.11.14-.17.14-.11.29-.21.43-.32,2.05.28,4.04-.53,5.65-1.34,2.95-1.48,6.07-2.68,8.78-4.74,2.18-1.64,4.59-2.96,6.52-4.97,2.87-2.98,5.85-5.86,8.78-8.78.42-.42,1.03-.83,1.17-1.34.36-1.35,1.45-2.05,2.26-3.01,1.39-1.63,2.71-3.32,4.06-4.99.05-.06.07-.14.11-.2,1.03-1.6,2.07-3.19,3.1-4.79.91-1.41,1.83-2.81,2.91-4.48.55.26,1.63.47,1.7.87.27,1.44,1.54,1.96,2.28,2.94.78,1.04,1.4,2.24,2.32,3.13,1.76,1.71,2.61,4.14,4.62,5.63.16.12.22.39.28.6.36,1.3,1.31,2.08,2.4,2.75v3.61c-1.02.96-2.26,1.75-2.48,3.31,0,.07-.05.15-.11.2-1.42,1.23-2.29,2.89-3.43,4.33-1.32,1.67-3.03,2.93-4.1,4.95-.9,1.72-2.8,2.9-4.18,4.38-.65.69-1.1,1.56-1.7,2.29-1.27,1.55-2.46,3.15-4.37,4.06-.78.37-1.47,1.02-2.08,1.65-1.51,1.55-2.94,3.12-4.89,4.21-1.45.81-2.69,2.01-4.08,2.98-2.99,2.08-6.01,4.04-9.36,5.48-1.06.45-2.01,1.3-3.33,1.03-.22-.04-.54.37-.81.57-1.03.77-2.12,1.35-3.47,1.28-.72-.04-1.47-.17-2.03.61-.19.26-.82.24-1.26.27-.86.07-1.75-.2-2.46.69-.23.29-.98.17-1.5.22-1.43.13-2.95-.41-4.22.81-.28.27-1.02.09-1.54.09-4.52,0-9.04-.01-13.56.01-.93,0-1.93-.29-2.69.68-.19.25-.84.17-1.28.21-1.5.14-3.14-.49-4.43.84-.12.12-.43.06-.66.07-1.38.03-2.78-.24-4,.83-.35.31-1.15.1-2.02.15,0,.86,0,1.66,0,2.46,0,11.73,0,23.47-.01,35.2,0,1.15.2,2.28-.7,3.38-.46.56-.12,1.74-.2,2.64-.14,1.57.5,3.26-.79,4.69-.27.3-.07,1.02-.11,1.54-.07.93.31,1.96-.69,2.68-.18.13-.15.55-.21.84-.32,1.55-.25,3.36-1.05,4.6-1.04,1.61-1.39,3.37-2.12,5.04-.74,1.69-1.44,3.42-2.4,5-1.63,2.68-3.51,5.23-6.04,7.12-2.65,1.99-5.65,3.44-8.62,4.9-.44.22-1.04.08-1.54.19-.62.14-1.22.38-1.84.55-.49.14-1,.32-1.5.33-4.75.02-9.49.03-14.24,0-.48,0-.96-.3-1.43-.46-.11-.09-.22-.19-.32-.28-2.75-.7-5.36-1.52-7.81-3.18-2.23-1.5-4.14-3.27-5.8-5.22-2.22-2.62-4.41-5.36-5.03-8.98-.22-1.3-1.04-2.49-1.55-3.75-.14-.34-.17-.73-.19-1.1-.09-1.6.33-3.27-.83-4.73-.26-.33-.08-1.02-.08-1.55,0-3.16-.04-6.32.01-9.47.02-1.44-.44-2.98.8-4.25.23-.24.05-.87.09-1.32.13-1.36-.47-2.86.81-4.01.16-.14.09-.58.08-.87-.06-1.87.87-3.43,1.51-5.09.21-.54.25-1.14.35-1.72.31-1.8,1.02-3.43,1.96-4.98.95-1.57,1.9-3.15,2.86-4.72.83-1.38,1.6-2.8,2.52-4.12,1.1-1.57,2.21-3.17,3.53-4.55,2.9-3.05,5.97-5.94,8.92-8.96,2.04-2.09,4.48-3.64,6.9-5.22,2.9-1.9,5.76-3.85,8.66-5.75.48-.32,1.06-.49,1.64-.76v-2.89c-.07-.15-.14-.31-.2-.46-.19.13-.38.27-.58.4-2.08,1.38-4.07,2.92-6.25,4.1-3.87,2.09-7.85,3.97-11.79,5.94-.2.1-.39.26-.6.3-.96.17-1.93-.08-2.8.89-.49.55-1.87-.08-2.56.93-.15.23-.85.08-1.3.11-.71.06-1.54-.27-2,.62-.06.11-.27.23-.38.2-2.21-.51-4.08,1.02-6.21.99-2.18-.04-4.36.04-6.54-.03-1.28-.04-2.71.49-3.75-.79-.1-.12-.43-.08-.65-.09-4.66-.25-8.51-2.38-12.28-4.93-1.5-1.02-2.98-2.01-4.12-3.37-2.57-3.08-4.92-6.33-6.46-10.06-.63-1.52-.93-3.19-1.38-4.79-.15-.17-.29-.35-.44-.52-.15-.23-.31-.47-.55-.84-1.27,1.35-2.43,2.6-3.62,3.82-1.09,1.11-2.15,2.22-3.65,2.88-.84.37-1.48,1.23-2.15,1.93-1.28,1.33-2.34,2.91-4.24,3.51-.34.11-.65.39-.89.66-1.54,1.73-3.63,2.71-5.54,3.9-3.13,1.96-6.27,3.93-9.75,5.23-1.62.61-3.29,1.12-4.93,1.67-.87.29-1.73.6-2.6.9-.87.3-1.72.7-2.61.87-.85.17-1.75-.13-2.45.74-.23.28-.99.13-1.51.19-1.71.2-3.57-.57-5.12.82-.26.23-.87.07-1.33.08-2.34,0-4.67.02-7.01,0-1.16-.01-2.28.13-3.4-.69-.66-.48-1.89-.14-2.87-.21-1.15-.08-2.42.39-3.37-.74-.15-.17-.57-.13-.86-.15-.94-.06-1.99.26-2.63-.79-2.28.36-4.06-1.27-6.18-1.55-.36-.05-.75-.08-1.05-.24-2.24-1.2-4.48-2.38-6.67-3.66-1.46-.85-2.79-1.95-4.28-2.76-2.55-1.41-4.34-3.64-6.43-5.55-.33-.3-.74-.5-1.09-.77-.87-.68-2.08-1.2-2.51-2.1-.89-1.84-2.46-2.99-3.71-4.47-1.72-2.04-3.26-4.23-4.88-6.35-.31-.41-.65-.79-1.09-1.31-.48.35-.92.6-1.26.95-3.14,3.13-6.24,6.32-9.42,9.41-.89.86-2.02,1.48-3.02,2.23-.48.36-1,.7-1.36,1.16-1.83,2.33-4.37,3.69-6.87,5.14-1.39.8-2.55,1.99-3.91,2.86-1.37.88-2.83,1.62-4.29,2.36-2.18,1.12-4.38,2.2-6.59,3.26-.39.19-.85.26-1.28.29-.65.05-1.31-.11-1.7.72-.11.24-.81.23-1.24.27-.86.08-1.83-.27-2.42.72-.06.1-.27.16-.41.15-2.44-.19-4.62,1.49-7.13.97-.83-.17-1.74-.18-2.46.67-.24.29-.99.2-1.51.2-2.79.02-5.58.02-8.36,0-.72,0-1.44.14-2.04-.61-.27-.33-1.1-.23-1.69-.28-1.66-.16-3.45.48-4.92-.84-.13-.12-.46-.12-.66-.06-1.94.59-3.49-.86-5.32-1.04-1.26-.12-2.39-1.35-3.66-1.51-2.56-.33-4.56-1.77-6.74-2.87-1.38-.7-2.65-1.62-3.93-2.49-1.94-1.33-3.86-2.7-5.77-4.08-.42-.31-.79-.7-1.16-1.07-1.28-1.27-2.6-2.51-3.81-3.85-2.26-2.48-4.58-4.93-6.64-7.57-1.62-2.09-2.86-4.47-4.33-6.67-.38-.58-.99-1.01-1.68-1.45.11,1.86-1.08,2.79-2.14,3.84-4.11,4.08-8.18,8.21-12.31,12.27-.65.64-1.62.96-2.36,1.53-1.77,1.34-3.47,2.75-5.23,4.1-1.16.89-2.32,1.8-3.58,2.55-2.52,1.5-4.96,3.33-7.7,4.2-3.12.98-5.74,3.4-9.24,3.23-1.2,1.2-2.94.41-4.14.97-2.16,1.01-4.53.17-6.44.94-3.03,1.22-6.01.52-8.99.74-1.19.09-2.39.25-3.58-.69-.66-.52-2.03-.12-3.08-.18-1-.06-2.14.37-2.91-.71-.07-.1-.27-.15-.41-.15-2.23.03-4.12-1.11-6.17-1.69-1.61-.45-3.11-.97-4.48-1.83-1.81-1.14-3.51-2.46-5.26-3.69-.96-.68-2.13-1.18-2.87-2.04-1.74-2.02-3.28-4.21-4.89-6.34-.62-.83-1.22-1.68-1.78-2.55-1.44-2.24-1.79-4.9-2.82-7.27-.63-1.46-.38-2.93-.85-4.23-1.67-4.53-.73-9.16-.78-13.73-.15-14.74-.05-29.48-.07-44.22,0-1.08.31-2.26-.73-3.14-.13-.11-.18-.44-.14-.64.42-1.92-.33-3.81-1.08-5.3-1.21-2.38-2.58-4.94-5.19-6.24-3.07-1.53-6.34-2.18-9.77-1.82-.4.04-.78.29-1.17.45-.33.14-.67.44-.98.41-3.59-.32-6.41,1.7-9.44,3.05-1.64.73-3.3,1.44-4.83,2.35-1.58.94-3.15,1.97-4.48,3.22-3.17,3-6.16,6.18-9.29,9.22-.61.59-.87,1.16-.83,1.96.03.6,0,1.2,0,1.8,0,26.47,0,52.94,0,79.41v2.78c-8.12.04-16.13,0-24.37.02-.04-8.07-.07-16.01-.11-23.95-.07-.16-.13-.31-.2-.47-.19.14-.38.28-.57.42-1.89,1.94-3.76,3.89-5.67,5.81-1.19,1.2-2.21,2.58-3.94,3.16-.59.2-1.09.78-1.55,1.27-1.61,1.67-3.64,2.72-5.58,3.92-1.99,1.24-3.84,2.71-5.88,3.85-1.7.95-3.26,2.34-5.41,2.34-.35,0-.69.41-1.06.56-1.13.47-2.16,1.06-3.43,1.34-1.16.26-2.35.82-3.58,1.14-.6.15-1.17.52-1.77.6-1.14.15-2.32-.23-3.34.79-.35.35-1.3.08-1.97.14-1.49.14-3.11-.49-4.44.8-.24.23-.87.09-1.32.09-2.11,0-4.22.04-6.32-.01-1.07-.03-2.08.13-3.16-.66-.75-.55-2.18-.15-3.3-.23-1-.07-2.12.38-2.91-.7-.13-.18-.56-.18-.85-.18-2,0-3.65-1.2-5.48-1.6-1.81-.4-3.41-1.04-4.91-1.98-1.75-1.1-3.39-2.37-5.07-3.56-1.02-.72-2.23-1.28-3.03-2.19-2.14-2.45-4.36-4.86-5.66-7.93-.2-.47-.57-.86-.89-1.28-.18-.24-.51-.4-.61-.66-.72-1.98-1.14-4.12-2.16-5.93-.97-1.71-.65-3.43-.9-5.15-.2-.81-.48-.49-.77-.06-.9.64-1.76,1.36-2.72,1.9-1.41.79-2.82,1.75-4.35,2.06-1.13.23-2.01.57-2.88,1.24-.4.31-.94.6-1.42.61-2.55.06-4.56,2.01-7.12,2-.86,1.17-2.36.43-3.23.95-1.54.94-3.36.25-4.63.94-1.96,1.05-3.89.6-5.83.77-.22.02-.53-.07-.66.05-1.68,1.49-3.7.81-5.56.83-7.31.08-14.61.04-21.92.02-.87,0-1.72.15-2.5-.63-.36-.37-1.27-.19-1.93-.26-1.58-.17-3.27.5-4.7-.8-.3-.27-1.02-.07-1.54-.1-.94-.06-1.98.3-2.69-.7-.1-.14-.41-.17-.63-.18-2.19-.09-4.13-.94-6.15-1.7-1.11-.42-2.52-.08-3.97-.08-.03,2.35-1.12,4.13-2.96,5.46-1.58,3.65-4.97,5.72-7.52,8.51-1.2,1.31-2.96,2.11-4.49,3.11-.96.63-1.96,1.21-2.96,1.79-1.46.84-3.09,1.34-4.6,2-2.14.94-4.61.98-6.53,2.44-.2.15-.58.08-.88.1-1.29.07-2.65-.33-3.78.8-.27.27-1.01.1-1.54.1-5.57,0-11.15,0-16.72,0-.8,0-1.63.19-2.29-.58-.23-.27-.86-.38-1.25-.29-2.15.5-4.13-.4-5.97-1.05-3.68-1.3-7.5-2.38-10.87-4.48-1-.62-2.02-1.23-2.97-1.92-3.67-2.7-7.26-5.47-9.73-9.43-.9-1.44-2.09-2.7-3.05-4.11-.9-1.32-1.66-2.72-2.56-4.2-.19.16-.6.45-.94.8-1.78,1.84-3.51,3.71-5.31,5.54-1.08,1.1-2.03,2.37-3.64,2.83-.46.13-.87.58-1.21.97-1.67,1.95-4.15,2.81-6,4.4-1.8,1.54-4.18,2.02-5.75,3.78-.14.16-.33.38-.51.39-2.32.14-4.02,1.74-6.05,2.53-1.41.55-3.19.47-4.34,1.31-1.59,1.16-3.58.25-5.11,1.55-.62.53-2.04.1-3.09.17-1.06.07-2.2-.34-3.13.72-.28.32-1.14.17-1.74.17-4.22.01-8.44,0-12.65.02-.93,0-1.87-.23-2.7.65-.35.37-1.28.17-1.94.24-1.57.17-3.29-.54-4.66.83-.12.12-.44.1-.66.07-1.83-.25-3.46.31-5.13,1.31,0,.74,0,1.56,0,2.38,0,9.47,0,18.95-.01,28.42,0,.86.2,1.74-.62,2.49-.33.31-.26,1.12-.27,1.71-.03,2.1.01,4.21-.02,6.31-.02,1,.31,2.09-.73,2.89-.21.16-.13.71-.16,1.08-.12,1.58.43,3.28-.85,4.67-.16.17-.07.58-.05.88.16,2.19-1.14,4.01-1.5,6-.31,1.68-2,2.76-1.61,4.57-1.49,2.18-2.01,4.8-3.54,7.06-1.85,2.74-4.18,4.95-6.6,6.96-1.86,1.54-3.81,3.37-6.62,3.67-.96.1-1.94.97-3.11.92-.15.1-.3.21-.46.31-.7.17-1.4.49-2.1.5-4.67.04-9.34.07-14.02,0-1.83-.03-3.64-.26-5.2-1.48-.75-.58-1.76-.82-2.61-1.29-2.88-1.58-5.81-3.19-7.79-5.87-2.32-3.14-4.51-6.36-5.58-10.26-.37-1.37-.48-2.75-.84-4.06-1.79-6.51-.38-13.11-.83-19.65-.07-.95-.14-1.92.65-2.75.29-.3.2-.99.24-1.51.08-1.09-.26-2.26.77-3.14.17-.15.14-.57.14-.86-.02-2.03.92-3.76,1.73-5.54.12-.27.22-.56.28-.85.63-3,2.59-5.31,3.95-7.93,1.24-2.39,2.88-4.47,4.36-6.63,2.65-3.88,5.92-7.31,9.42-10.48,2.66-.86,3.78-3.85,6.48-4.66,1.95-2.45,5.03-3.4,7.3-5.43.7-.63,1.64-1.08,2.55-1.36,1.62-.49,2.06-1.56,1.93-3.08-.05-.6,0-1.2,0-1.8,0-37.16,0-74.32,0-111.48v-2.77h25.31c.02,7.27,0,14.53,0,21.79,0,7.22,0,14.44,0,21.66v65.26c1.38-.18,2.65-.35,3.92-.51.3-.04.71.09.88-.06,1.54-1.37,3.39-.69,5.12-.85.71-.07,1.44.17,2.05-.59.27-.34,1.11-.3,1.69-.3,3.84-.02,7.69.01,11.53-.03.69,0,1.38-.32,2.07-.49.14-.11.28-.21.43-.32.53-.02,1.05-.1,1.58-.07,2.29.13,4.23-1.09,6.31-1.58,2.11-.49,3.82-1.85,5.97-2.09.9-.1,1.91-.52,2.57-1.12,2.22-1.99,4.84-3.41,7.23-5.14,3.02-2.18,5.41-4.93,8.12-7.38.93-.84,1.98-1.63,2.23-3.02.06-.32.43-.61.72-.84,2.06-1.65,3.47-3.85,5.03-5.93.09-.12.27-.23.27-.35-.01-2.29.62-4.62-.41-6.83-.58-1.25-.48-5.16.15-6.46.24-.5.35-1.12.36-1.68.04-2.56-.02-5.11.03-7.67.02-1.22-.36-2.53.74-3.6.28-.27.1-1.01.15-1.52.14-1.36-.45-2.83.81-4.01.27-.26.06-1.01.09-1.54.06-.94-.27-1.97.71-2.69.18-.13.18-.56.18-.85,0-1.95.87-3.64,1.58-5.39.38-.94.89-1.89.97-2.87.23-2.71,1.98-4.74,3.01-7.08,1.04-2.35,2.29-4.67,3.82-6.73,2.53-3.41,5.14-6.88,8.57-9.4,2.18-1.6,4.07-3.72,6.84-4.53.87-.25,1.51-1.22,2.36-1.64,1.96-.96,3.97-1.8,5.99-2.63.46-.19,1.04-.06,1.55-.16.55-.11,1.08-.33,1.62-.5.14-.11.28-.21.42-.32,1.03-.35,2.28.44,3.19-.59.14-.11.28-.21.43-.32,1.87-.02,3.75-.01,5.62-.09,1.14-.04,2.18-.02,3.36-.64,1.17-.62,3.17-.65,4.33-.03,1.32.7,2.52.61,3.8.68,1.12.06,2.25-.04,3.37.04.54.04,1.06.33,1.58.53.2.08.37.29.56.3,1.29.1,2.67-.2,3.71.92,1.92-.47,3.41,1.13,5.25,1.06.11.09.22.19.33.28,2.04,1.05,4.11,2.05,6.11,3.16,1.34.74,2.67,1.54,3.89,2.46,2.86,2.16,5.77,4.27,8.14,7.01.31,2.29,2.85,3.05,3.49,5.25.4,1.37,1.85,2.4,2.63,3.7,1.38,2.31,3.01,4.5,3.53,7.28.2,1.09,1.02,2.08,1.55,3.11.2.39.55.78.55,1.16,0,2.11.76,3.95,1.74,5.76.16.3.09.74.1,1.11.03,1.24-.01,2.41.72,3.62.5.84.15,2.19.19,3.32.03.95-.14,1.9.63,2.75.33.36.26,1.14.26,1.72.02,5.56.02,11.12,0,16.68,0,.7.22,1.45-.56,2.05-.31.23-.3.96-.32,1.46-.04,1.35,0,2.71-.02,4.06-.02.95-.05,1.8-.64,2.74-1,1.58.04,3.34,1.91,3.27,1.29-.05,2.18.68,3.28.93,1.04.24,2.24-.27,3.07.84.12.16.57.08.87.1.93.08,1.83-.15,2.69.7.43.43,1.58.12,2.39.21,1.35.15,2.84-.52,4.01.78.22.24.86.11,1.31.11,6.4,0,12.8.02,19.2-.02.61,0,1.23-.32,1.84-.49.14-.11.29-.21.43-.32Zm-65.71-17.78c.02-4.66.29-9.33-.06-13.96-.16-2.13-.9-4.27-.89-6.48,0-.13-.15-.25-.2-.39-.21-.68-.5-1.35-.59-2.05-.09-.76-.09-1.47-.89-1.92-.24-.13-.41-.62-.39-.92.1-1.27-.5-2.31-1.02-3.37-.72-1.47-1.39-2.97-2.19-4.39-1.73-3.05-4.44-5.22-7.09-7.4-1.01-.83-2.22-1.44-3.42-1.99-1.26-.58-2.8-.43-4.01-1.97,0,1.7.02,2.9,0,4.09-.02,1.2.36,2.24.76,3.38.61,1.74.13,3.68.9,5.6.76,1.89.46,4.12,1.83,6.01.75,1.03.69,2.62,1.06,3.94.19.7.37,1.47.8,2.03,2.22,2.88,2.98,6.59,5.4,9.37,1.18,1.36,1.91,3.11,3.11,4.44,1.9,2.12,4.03,4.04,6.06,6.05.25.17.5.34.75.51l.08-.59Zm-176.23,75.85c-1.56,1.61-3.14,3.22-4.68,4.85-.3.32-.5.73-.75,1.09-.46.66-.93,1.32-1.39,1.98-1.05,1.48-2.32,2.86-3.11,4.47-1.09,2.22-2.48,4.29-3.04,6.83-.4,1.83-1.56,3.51-1.56,5.51,0,.29-.02.73-.19.84-.98.62-.66,1.58-.7,2.43-.05,1.2-.05,2.39-.07,3.59-.11.14-.22.29-.32.43-.17.38-.4.75-.5,1.16-.59,2.36.57,4.55,1.11,6.67,1.2,4.65,3.58,6.02,8.26,5.83.15,0,.33.05.45,0,.94-.46,1.97-.82,2.77-1.46.59-.47.93-1.28,1.31-1.98.52-.96,1.19-1.91,1.41-2.94.39-1.76,1.42-3.41,1-5.34-.06-.28.31-.63.43-.97.17-.47.41-.95.41-1.43,0-10.5-.02-20.99-.04-31.49-.07-.16-.14-.31-.2-.47-.19.14-.39.28-.58.42Zm824.6,27.07c-.11.15-.22.3-.32.45-.17.61-.47,1.22-.5,1.84-.07,1.95.07,3.91-.05,5.86-.14,2.38.35,4.47,1.67,6.54,1.54,2.41,3.1,4.4,6.33,3.93.44-.06.91-.04,1.35.01.82.09,1.4-.21,1.98-.8,2.23-2.26,3.97-4.74,4.07-8.06,0-.22-.02-.54.11-.65,1.23-1.07.66-2.49.79-3.77.16-1.5-.5-3.15.83-4.45.16-.15.07-.58.07-.88-.02-9.01-.04-18.02-.06-27.04-.21-.84-.47-.47-.74-.03-2.1,2.14-4.27,4.21-6.28,6.43-1.33,1.46-2.81,2.96-3.59,4.72-1.31,2.94-3.11,5.62-4.01,8.81-.66,2.35-1.74,4.57-1.66,7.09ZM189.23,222.51c.14-.11.28-.21.43-.32,1.13-.02,2.26-.03,3.38-.08.44-.02,1.14,0,1.26-.23.44-.91,1.2-.67,1.91-.76.42-.05.84-.23,1.25-.38,2.88-1.06,5.03-3.11,7.04-5.32,1.44-1.58,3.23-2.82,4.13-4.95.42-.99.36-1.49-.29-2.12-.49-.47-.92-1.05-1.5-1.35-2.65-1.41-5.02-3.17-7.05-5.38-.35-.38-.73-.83-1.19-1.01-2.43-.96-3.85-3.09-5.48-4.88-2.19-2.41-4.07-5.1-6.04-7.7-1.17-1.53-2.42-3.02-3.36-4.69-1.65-2.95-3.09-6.02-4.6-9.05-.6-1.19-1.37-2.34-1.69-3.61-.42-1.69-.99-3.28-1.67-4.87-.51-1.18-.81-2.46-1.09-3.72-.39-1.78-.3-3.77-1.1-5.31-.77-1.47-.62-2.84-.73-4.29-.04-.45.1-1.09-.14-1.3-1.1-.97-.7-2.21-.75-3.36-.06-1.57-.05-3.15-.08-4.73-.07-.15-.14-.3-.2-.46-.19.14-.38.27-.57.41-1.76,1.85-3.7,3.56-5.22,5.58-1.15,1.52-1.63,3.52-2.66,5.14-1.01,1.59-.82,3.74-2.46,4.99-.08.06-.04.29-.05.43-.2,1.83-.4,3.66-.6,5.5-.11.15-.21.3-.32.45-.99,1.26-.34,2.73-.52,4.09-.1.73.11,1.72-.29,2.13-.72.73-.61,1.48-.61,2.27-.02,5.31-.01,10.61,0,15.92,0,.52-.13,1.24.15,1.52,1.08,1.07.66,2.36.75,3.58.07.86-.26,1.82.58,2.5.09.18.18.37.26.55.02.37.01.75.06,1.12.18,1.3-.07,3.08.68,3.78,1.34,1.23.96,2.83,1.68,4.11.11.19.21.37.33.56,1.93,3.18,4.11,6.15,6.92,8.64,2.14,1.89,3.98,4.21,7.12,4.52.12.01.22.2.35.25,1.72.63,3.35,1.54,5.3,1.47.94-.03,2.01-.03,2.8.38,1.38.72,2.59.77,3.88-.01Zm511.38-86.75c.09.18.17.37.26.55.02,1.88.03,3.76.07,5.63.01.51-.05,1.21.24,1.5.84.82.62,1.8.66,2.75.04,1.12-.32,2.49.19,3.31.81,1.3.64,2.56.71,3.87.04.59-.11,1.41.21,1.74.89.9.63,1.94.69,2.96.02.45-.13,1.08.1,1.31,1.09,1.05.73,2.34.81,3.58.03.44,0,1.03.26,1.27.81.74.57,1.65.64,2.52.03.37.15.74.31,1.53,1.25-2.42,2.34-4.38,2.8-6.62.16-.78.03-1.84.5-2.28,1.09-1.04,1.4-2.21,1.46-3.6.01-.39.22-.93.51-1.1.73-.43.73-1.05.75-1.74.02-.59-.03-1.25.2-1.77.8-1.78,1.62-3.54,1.62-5.56,0-.29.05-.69.24-.84.86-.69.59-1.62.64-2.49.03-.6-.16-1.4.15-1.75.91-1.03.62-2.22.78-3.36.15-1.05.68-2.05.84-3.1.16-1.11.07-2.25.11-3.37,0-.14.07-.33.17-.4.9-.65.62-1.61.65-2.48.04-1.2-.38-2.68.18-3.54.9-1.36.67-2.69.71-4.05.06-2.1-.03-4.21.04-6.31.02-.69.38-1.36.55-2.05.14-.56.31-1.14.32-1.71.02-11.73.02-23.45,0-35.18,0-.51.05-1.22-.24-1.49-.87-.81-.64-1.79-.64-2.72-.02-4.74,0-9.47-.02-14.21,0-.66-.13-1.32-.27-1.97-.17-.77-.52-1.51-.6-2.28-.26-2.32.37-4.66-.8-7-.66-1.32.24-3.24-1-4.62.38-2.29-1.22-3.92-2.05-5.77-1.06-2.36-4.36-3.45-6.31-2.1-1.31.91-2.54,2.15-3.35,3.51-1.17,1.98-2.1,4.16-1.89,6.61.03.36.03.91-.18,1.07-1.07.8-.64,1.91-.71,2.91-.08,1.12.33,2.55-.22,3.29-.85,1.15-.66,2.24-.68,3.38-.05,2.63,0,5.26-.02,7.89,0,.52.1,1.27-.18,1.51-.86.71-.71,1.59-.71,2.47,0,18.79,0,37.58,0,56.38,0,.52-.14,1.25.14,1.53,1.09,1.07.73,2.37.75,3.59.04,2.25-.03,4.51.04,6.76.02.69.36,1.38.55,2.06Zm-112.59-35.44c-.05.54-.12.9-.12,1.27,0,8.95-.01,17.9,0,26.85,0,.51-.04,1.2.26,1.5.82.84.62,1.81.63,2.76.02,1.95,0,3.91,0,5.87,0,.6-.22,1.4.07,1.77,1.4,1.75.63,3.75.82,5.63.09.89-.27,2.06.18,2.64,1.03,1.32.63,2.71.73,4.08.05.67-.25,1.56.08,1.99,1.27,1.69.66,3.59.86,5.39.02.21.14.41.24.7.51-.08,1-.15,1.46-.22.07-.73-.05-1.43.23-1.9.77-1.31,1.42-2.6,1.33-4.17-.01-.22.25-.56.47-.67.87-.43.73-1.21.78-1.95.04-.58.02-1.25.3-1.73.91-1.6.81-3.46,1.44-5.15.62-1.65.72-3.49,1.05-5.25.01-.07.02-.17.07-.21,1.11-.92.67-2.2.75-3.35.04-.6-.19-1.38.11-1.77,1.34-1.76.6-3.74.8-5.61.07-.67-.15-1.59.21-1.96.9-.91.67-1.93.69-2.94.03-1.88,0-3.76.02-5.64,0-.51-.04-1.23.26-1.49.76-.67.63-1.46.63-2.26,0-4.14,0-8.27,0-12.41,0-.57-.11-1.14-.17-1.75h-14.17Zm14.26-22.71c0-1.79.46-3.56-.13-4.85-.58-1.25-.66-2.38-.67-3.61-.03-5.11-.01-10.21-.02-15.32,0-.6.19-1.42-.12-1.76-1.13-1.23-.67-2.67-.78-4.04-.17-2.18.15-4.32-.74-6.53-.58-1.44-.28-3.32-1.07-4.87-.55-1.1-1.09-2.2-1.69-3.27-.12-.21-.48-.33-.75-.39-1.59-.36-3.6.92-3.85,2.56-.12.76-.08,1.47-.91,1.87-.2.1-.36.46-.39.72-.21,1.61-.37,3.22-.55,4.84-.04.37.04.91-.17,1.07-1.14.87-.64,2.06-.72,3.12-.08,1.04.31,2.4-.22,3.07-.88,1.13-.64,2.24-.68,3.38-.06,1.73,0,3.45-.02,5.18,0,.52.08,1.27-.21,1.5-.97.78-.67,1.77-.68,2.7-.03,4.28-.02,8.56,0,12.84,0,.58.06,1.15.1,1.8h14.28Z"/>
        <path class="cls-3" d="m322.58,51.6c2.99-.03,5.98-.05,8.98-.08.22,0,.61-.04.65.05.74,1.71,2.6.84,3.72,1.64,1.19.87,2.29,1.88,3.55,2.63,2.37,1.4,3.51,3.72,4.82,5.93.09.18.18.36.27.53.03.17.07.34.1.51.1.14.21.27.31.41.06.05.16.08.17.14.9,3.26,2.03,6.64,1.15,9.94-.59,2.24-.98,4.62-2.26,6.76-.84,1.4-2.01,2.38-2.97,3.59-1.71,2.17-3.98,3.6-6.48,4.48-1.82.64-3.6,1.74-5.73,1.34-.95-.18-1.96-.08-2.93-.02-2.17.14-4.05-.72-5.95-1.59-.39-.18-.86-.15-1.29-.24-.36-.07-.78-.08-1.05-.29-1.58-1.23-3.19-2.42-4.65-3.79-.85-.8-1.45-1.86-2.12-2.84-.58-.85-1.14-1.72-1.63-2.63-.31-.57-.66-1.22-.67-1.84-.08-3.75-.06-7.51-.07-11.27,1.48-2.19,1.9-4.96,3.85-6.93,2.06-2.08,4.14-4.1,6.98-5.1.95-.33,1.89-.68,2.83-1.02.14-.11.28-.21.42-.32Z"/>
        <path class="cls-3" d="m53.32,51.52c1.28,0,2.56-.02,3.84,0,.71.01,1.57-.23,1.79.87.03.15.29.34.47.37.78.15,1.75.01,2.34.42,2.56,1.77,5.24,3.53,7.03,6.09.8,1.14,1.55,2.5,2.01,4.02.46,1.52.67,2.96.75,4.49.01.28.1.65.29.8.89.7.66,1.67.56,2.51-.1.82-.68,1.58-.82,2.4-.16.88-.02,1.8-.09,2.7-.02.23-.32.46-.51.66-.2.21-.63.41-.62.58.12,1.45-.77,2.42-1.4,3.6-1.36,2.51-3.2,4.37-5.7,5.68-1.49.78-2.81,1.97-4.68,1.75-2.61,1.94-5.69,1.17-8.35.8-3.54-.5-7.29-1.3-9.86-4.34-1.58-1.87-3.17-3.74-4.71-5.65-.65-.8.14-2.17-1.02-2.82-.02-2.58-1.93-5.06-.95-7.54.67-1.7.31-3.63,1.53-5.17.46-.57.27-1.62.66-2.29,2.03-3.49,4.87-6.14,8.42-8.11,2.85-1.59,5.8-2.27,9.02-1.83Z"/>
        <path class="cls-11" d="m879.14,229.71c.19-.13.38-.27.58-.4.07.15.14.31.2.46-.26-.02-.52-.04-.78-.06Z"/>
        <path class="cls-17" d="m409.81,219.78c.19-.14.38-.28.57-.42.07.16.13.31.2.47-.26-.02-.52-.03-.78-.05Z"/>
        <path class="cls-10" d="m314.86,213.46c.29-.43.58-.75.77.06-.26-.02-.52-.04-.77-.06Z"/>
        <path class="cls-11" d="m860.58,326.96c.11.09.22.19.32.28-.11-.09-.22-.19-.32-.28Z"/>
        <path class="cls-5" d="m435.62,129.18c-.16-.02-.33-.04-.49-.06.16.02.33.04.49.06Z"/>
        <path class="cls-15" d="m461.85,114.79c-.14.11-.28.21-.42.32.14-.11.28-.21.42-.32Z"/>
        <path class="cls-15" d="m172.47,114.79c-.14.11-.28.21-.42.32.14-.11.28-.21.42-.32Z"/>
        <path class="cls-7" d="m465.46,113.88c-.14.11-.28.21-.43.32.14-.11.28-.21.43-.32Z"/>
        <path class="cls-7" d="m176.09,113.88c-.14.11-.28.21-.43.32.14-.11.28-.21.43-.32Z"/>
        <path class="cls-2" d="m471.8,112.96c-.15.11-.3.22-.44.33.15-.11.3-.22.44-.33Z"/>
        <path class="cls-15" d="m286.41,200.54c-.14.11-.28.21-.42.32.14-.11.28-.21.42-.32Z"/>
        <path class="cls-2" d="m344.98,63.23c-.1-.14-.21-.27-.31-.41.1.14.21.27.31.41Z"/>
        <path class="cls-7" d="m280.98,201.43c-.14.11-.29.21-.43.32.14-.11.29-.21.43-.32Z"/>
        <path class="cls-2" d="m344.57,62.31c-.09-.18-.18-.36-.27-.53.09.18.18.36.27.53Z"/>
        <path class="cls-14" d="m322.58,51.6c-.14.11-.28.21-.42.32.14-.11.28-.21.42-.32Z"/>
        <path class="cls-13" d="m809.62,219.22l.44.52c-.15-.17-.29-.35-.44-.52Z"/>
        <path class="cls-7" d="m92.89,220.39c-.14.11-.28.21-.43.32.14-.11.28-.21.43-.32Z"/>
        <path class="cls-7" d="m532.38,222.19c-.14.11-.29.21-.43.32.14-.11.29-.21.43-.32Z"/>
        <path class="cls-12" d="m39.08,327.21c.15-.1.3-.21.46-.31-.15.1-.3.21-.46.31Z"/>
        <path class="cls-2" d="m208,116.93c-.11-.09-.22-.19-.33-.28.11.09.22.19.33.28Z"/>
        <path class="cls-10" d="m214.44,183.72l.83-.07c-.03.2-.05.39-.08.59-.25-.17-.5-.34-.75-.51Z"/>
        <path class="cls-16" d="m879.92,259.55c-.25-.01-.49-.02-.74-.03.27-.44.53-.8.74.03Z"/>
        <path class="cls-16" d="m39.83,259.55c-.26-.02-.52-.04-.78-.05.19-.14.39-.28.58-.42.07.16.14.31.2.47Z"/>
        <path class="cls-8" d="m171.85,143.11c-.26-.02-.51-.03-.77-.05.19-.14.38-.27.57-.41.07.15.14.3.2.46Z"/>
        <path class="cls-5" d="m739.76,141.24c-.11.15-.22.29-.33.44.11-.15.22-.29.33-.44Z"/>
        <path class="cls-5" d="m624.01,131.31c-.11.15-.22.29-.33.44.11-.15.22-.29.33-.44Z"/>
        <path class="cls-5" d="m700.61,135.77c.09.18.17.37.26.55-.09-.18-.17-.37-.26-.55Z"/>
        <path class="cls-4" d="m623.1,136.73c-.11.15-.22.3-.32.44.11-.15.22-.3.32-.44Z"/>
        <path class="cls-5" d="m740.66,137.63c-.11.15-.22.3-.32.45.11-.15.22-.3.32-.45Z"/>
        <path class="cls-4" d="m160.09,164.71c-.11.15-.21.3-.32.45.11-.15.21-.3.32-.45Z"/>
        <path class="cls-9" d="m625.54,64.47c.09.18.18.36.27.55-.09-.18-.18-.36-.27-.55Z"/>
        <path class="cls-7" d="m159.83,197.15c.09.18.18.37.26.55-.09-.18-.18-.37-.26-.55Z"/>
        <path class="cls-15" d="m937.08,219.81c.14-.11.29-.21.43-.32-.14.11-.29.21-.43.32Z"/>
        <path class="cls-2" d="m653.13,221.61c.14-.11.29-.21.43-.32-.14.11-.29.21-.43.32Z"/>
        <path class="cls-1" d="m765.26,221.61c.14-.11.29-.22.43-.32-.14.11-.29.22-.43.32Z"/>
        <path class="cls-7" d="m189.23,222.51c.14-.11.28-.21.43-.32-.14.11-.28.21-.43.32Z"/>
        <path class="cls-7" d="m649.51,222.51c.14-.11.29-.21.43-.32-.14.11-.29.21-.43.32Z"/>
        <path class="cls-15" d="m739.49,37.39c.09.18.18.37.26.55-.09-.18-.18-.37-.26-.55Z"/>
        <path class="cls-2" d="m735.31,24.04c.11.13.22.26.33.39-.11-.13-.22-.26-.33-.39Z"/>
        <path class="cls-2" d="m734.86,21.81c.09.11.18.23.27.34-.09-.11-.18-.23-.27-.34Z"/>
        <path class="cls-2" d="m734.42,21.3c.11.14.22.28.33.42-.11-.14-.22-.28-.33-.42Z"/>
        <path class="cls-2" d="m616.87,17.66c.12.15.24.29.36.44-.12-.15-.24-.29-.36-.44Z"/>
        <path class="cls-9" d="m863.64,286.56c-.11.15-.22.3-.32.45.11-.15.22-.3.32-.45Z"/>
        <path class="cls-4" d="m23.55,291.08c-.11.14-.22.29-.32.43.11-.14.22-.29.32-.43Z"/>
      </g>
    </g>
  </g>
</svg>