<?xml version="1.0" encoding="UTF-8"?>
<svg width="363px" height="77px" viewBox="0 0 363 77" version="1.1" xmlns="http://www.w3.org/2000/svg" xmlns:xlink="http://www.w3.org/1999/xlink">
    <!-- Generator: Sketch 61 (89581) - https://sketch.com -->
    <title>oncare-logo-white</title>
    <desc>Created with Sketch.</desc>
    <g id="Page-1" stroke="none" stroke-width="1" fill="none" fill-rule="evenodd">
        <g id="oncare-logo-white" fill="#F2700F">
            <path d="M16.4,44 C16.4,45.1 16.9,46 17.8,46.7 C18.7,47.4 20.9,47.8 24.3,47.8 C27.7,47.8 29.9,47.4 30.8,46.7 C31.7,46 32.2,45.1 32.2,44 L32.2,22.6 C32.2,21.6 31.7,20.7 30.8,20 C29.9,19.3 27.7,18.9 24.3,18.9 C20.9,18.9 18.7,19.3 17.8,20 C16.9,20.7 16.4,21.6 16.4,22.6 L16.4,44 Z M48.1,47.1 C48.1,49.6 47.8,51.8 47.1,53.8 C46.4,55.8 45.2,57.5 43.4,58.9 C41.6,60.3 39.2,61.4 36.1,62.2 C33,63 29.1,63.4 24.3,63.4 C19.5,63.4 15.6,63 12.5,62.2 C9.4,61.4 6.9,60.3 5.2,58.9 C3.5,57.5 2.2,55.8 1.5,53.8 C0.8,51.8 0.5,49.6 0.5,47.1 L0.5,19.6 C0.5,17.1 0.8,14.9 1.5,12.9 C2.2,10.9 3.4,9.2 5.2,7.7 C7,6.3 9.4,5.1 12.5,4.3 C15.6,3.5 19.5,3.1 24.3,3.1 C29.1,3.1 33,3.5 36.1,4.3 C39.2,5.1 41.6,6.2 43.4,7.7 C45.2,9.1 46.4,10.9 47.1,12.9 C47.8,14.9 48.1,17.1 48.1,19.6 L48.1,47.1 Z M93.1,63.4 C92.1,63.4 91.3,63.2 90.7,62.9 C90.3,62.8 89.1,62 88.7,61.2 L71.9,30.2 L72,60.5 C72,61.5 71.8,62.2 71.4,62.7 C71,63.1 70.3,63.4 69.3,63.4 L58.8,63.4 C57.8,63.4 57.2,63.2 56.7,62.7 C56.3,62.3 56.1,61.5 56.1,60.5 L56.1,6 C56.1,5 56.3,4.3 56.7,3.8 C57.1,3.4 57.8,3.1 58.8,3.1 L67.4,3.1 C68.4,3.1 69.2,3.3 69.9,3.6 C70.6,3.9 71.3,4.6 71.9,5.3 C72.4,6 88.1,30.9 88.1,30.9 L88.1,6.1 C88.1,5.1 88.3,4.4 88.7,3.9 C89.1,3.5 89.8,3.2 90.8,3.2 L101.1,3.2 C102.1,3.2 102.7,3.4 103.2,3.9 C103.7,4.4 103.8,5.1 103.8,6.1 L103.8,60.7 C103.8,61.7 103.6,62.4 103.2,62.9 C102.8,63.3 102.1,63.6 101.1,63.6 L93.1,63.6 L93.1,63.4 Z M103.6,69.1 L103.6,76.2 C103.6,76.4 103.4,76.6 103.2,76.6 L1,76.6 C0.8,76.6 0.6,76.4 0.6,76.2 L0.6,69.1 C0.6,68.9 0.8,68.7 1,68.7 L103.3,68.7 C103.5,68.7 103.6,68.9 103.6,69.1 Z M359,76.6 L313.3,76.6 C312.1,76.6 311.1,76.3 310.6,75.7 C310,75.1 309.8,74.1 309.8,72.8 L309.8,4.4 C309.8,3.1 310.1,2.1 310.6,1.5 C311.2,0.9 312.1,0.6 313.3,0.6 L359,0.6 C360.2,0.6 361.2,0.9 361.7,1.5 C362.3,2.1 362.5,3.1 362.5,4.4 L362.5,16.7 C362.5,18 362.2,19 361.7,19.6 C361.1,20.2 360.2,20.5 359,20.5 L331.8,20.5 L331.8,28.6 L351,28.6 C352.2,28.6 353.2,28.9 353.7,29.5 C354.3,30.1 354.5,31.1 354.5,32.4 L354.5,43.7 C354.5,45 354.2,46 353.7,46.6 C353.1,47.2 352.2,47.5 351,47.5 L331.8,47.5 L331.8,56.6 L359,56.6 C360.2,56.6 361.2,56.9 361.7,57.5 C362.3,58.1 362.5,59.1 362.5,60.4 L362.5,72.7 C362.5,74 362.2,75 361.7,75.6 C361.2,76.3 360.3,76.6 359,76.6 Z M264.8,21.5 L264.8,34.6 L271.5,34.6 C273,34.6 274.1,34.1 274.6,33.2 C275.1,32.3 275.4,31.1 275.4,29.8 L275.4,26.3 C275.4,24.9 275.1,23.8 274.6,22.9 C274.1,22 273,21.5 271.5,21.5 L264.8,21.5 L264.8,21.5 Z M262.3,76.5 L247.2,76.5 C246,76.5 245.1,76.2 244.5,75.7 C243.9,75.1 243.7,74.2 243.7,73 L243.7,4.1 C243.7,2.8 244,1.9 244.5,1.4 C245.1,0.8 246,0.6 247.2,0.6 L279.8,0.6 C287.1,0.6 292.2,2.1 294.9,5.2 C297.7,8.3 299.1,12.3 299.1,17.2 L299.1,30 C299.1,32.8 298.7,35.2 297.9,37.1 C297.1,39.1 294.6,42 285.7,42.3 C290.6,42.8 293.6,43.3 295.8,45.8 C298,48.3 299.1,51.7 299.1,55.9 L299.1,72.9 C299.1,74.2 298.8,75.1 298.3,75.6 C297.7,76.2 296.8,76.4 295.6,76.4 L280.4,76.4 C279.2,76.4 278.3,76.1 277.7,75.6 C277.1,75 276.9,74.1 276.9,72.9 L276.9,55.7 C276.9,54.2 276.6,53.2 276.1,52.5 C275.5,51.8 274.6,51.5 273.2,51.5 L265.8,51.5 L265.8,73 C265.8,74.3 265.5,75.2 265,75.7 C264.4,76.2 263.5,76.5 262.3,76.5 Z M202.6,21.7 L198.7,39.8 L209.2,39.8 L205.3,21.7 C205.3,21.6 205.1,21.5 205,21.5 L202.9,21.5 C202.8,21.5 202.7,21.6 202.6,21.7 Z M193.7,73 C193.7,74.3 193,75.2 192.4,75.7 C191.9,76.3 191,76.5 189.8,76.5 L175.8,76.5 C174.6,76.5 173.7,76.2 173.2,75.6 C172.7,75 172.4,74.1 172.4,72.8 L184.4,3.7 C184.8,2.6 185.4,1.7 186.2,1.2 C187,0.7 188,0.4 189.3,0.4 L219,0.4 C220.2,0.4 221.2,0.7 222,1.2 C222.8,1.7 223.4,2.6 223.8,3.7 L235.8,72.8 C235.8,74.1 235.5,75 235,75.6 C234.5,76.2 233.6,76.5 232.4,76.5 L218.9,76.5 C217.6,76.5 216.7,76.2 216.1,75.7 C215.5,75.1 214.5,74.2 214.5,73 L211.5,56.6 L196.5,56.6 L193.7,73 Z M160.8,76.6 L136.3,76.6 C127.9,76.6 121.7,74.9 117.7,71.6 C113.7,68.3 111.6,63.1 111.6,56.2 L111.6,21.1 C111.6,14.2 113.6,9 117.7,5.7 C121.7,2.3 128,0.6 136.3,0.6 L160.8,0.6 C162.1,0.6 163,0.9 163.6,1.4 C164.2,2 164.5,2.9 164.5,4.1 L164.5,16.9 C164.5,18.2 164.2,19.1 163.6,19.7 C163,20.3 162.1,20.6 160.8,20.6 L138.1,20.6 C136,20.6 134.5,21 133.5,21.8 C132.5,22.6 132,23.9 132,25.6 L131.9,51.9 C131.9,53.6 132.4,54.8 133.4,55.6 C134.4,56.4 135.9,56.8 138,56.8 L160.7,56.8 C162,56.8 162.9,57.1 163.5,57.6 C164.1,58.2 164.4,59.1 164.4,60.4 L164.5,73.1 C164.5,74.4 164.2,75.3 163.6,75.9 C162.9,76.3 162,76.6 160.8,76.6 Z" id="Shape"></path>
        </g>
    </g>
</svg>