<svg width="425" height="128" viewBox="0 0 425 128" fill="none" xmlns="http://www.w3.org/2000/svg">
<path d="M9.35078 127.55C3.65078 126.65 0.800781 122.1 0.800781 113.9C0.800781 108.8 1.65078 103.05 3.35078 96.6499C6.05078 86.8499 9.65078 76.6999 14.1508 66.1999C19.6508 52.7999 25.5508 40.3999 31.8508 28.9999L32.7508 27.3499C33.8508 25.1499 35.2008 23.1999 36.8008 21.4999C36.9008 21.3999 37.0508 21.3499 37.2508 21.3499C37.6508 21.3499 38.1008 21.5999 38.6008 22.0999C39.1008 22.5999 39.5508 23.1499 39.9508 23.7499C40.4508 24.3499 40.7008 24.8499 40.7008 25.2499C39.9008 27.4499 38.9008 29.4999 37.7008 31.3999L30.6508 46.0999C35.3508 39.3999 40.6508 33.2499 46.5508 27.6499C51.2508 23.1499 55.5008 20.7499 59.3008 20.4499C62.3008 20.4499 64.7508 21.6499 66.6508 24.0499C68.6508 26.3499 70.0508 28.7499 70.8508 31.2499C71.2508 33.2499 71.4508 35.2999 71.4508 37.3999C79.0508 32.9999 87.0508 29.5499 95.4508 27.0499C97.7508 26.4499 100.101 26.1499 102.501 26.1499L105.651 26.2999C106.151 26.2999 106.701 26.6499 107.301 27.3499L107.451 27.4999C107.551 27.5999 107.651 27.7999 107.751 28.0999C107.951 28.2999 108.051 28.5499 108.051 28.8499C108.051 28.9499 108.001 28.9999 107.901 28.9999H107.751C103.251 28.9999 97.6008 30.3499 90.8008 33.0499C84.1008 35.6499 77.3508 39.0499 70.5508 43.2499C69.1508 48.8499 66.7508 54.2499 63.3508 59.4499C60.0508 64.6499 56.6508 68.9499 53.1508 72.3499C51.2508 74.4499 48.9508 76.0499 46.2508 77.1499C45.6508 77.4499 44.9508 77.5999 44.1508 77.5999C42.0508 77.5999 40.1008 76.5999 38.3008 74.5999C36.5008 72.5999 35.6008 70.6499 35.6008 68.7499L35.7508 67.3999C36.5508 64.9999 37.8508 62.8999 39.6508 61.0999C41.4508 59.1999 43.3508 57.4499 45.3508 55.8499L47.9008 53.7499C53.1008 49.5499 58.5508 45.5499 64.2508 41.7499C64.3508 41.7499 64.4008 41.6499 64.4008 41.4499C64.5008 41.2499 64.6008 40.9999 64.7008 40.6999C64.8008 40.2999 64.8508 39.9499 64.8508 39.6499C65.8508 36.9499 66.3508 33.8499 66.3508 30.3499C66.3508 27.4499 65.6508 25.4999 64.2508 24.4999C63.7508 24.0999 62.8508 23.8999 61.5508 23.8999C60.3508 23.8999 59.2008 24.1499 58.1008 24.6499C53.4008 26.7499 48.2508 31.0499 42.6508 37.5499C39.2508 41.4499 36.0008 45.5499 32.9008 49.8499L24.9508 60.3499C24.5508 61.0499 24.0508 61.7499 23.4508 62.4499L22.4008 63.6499C10.8008 89.7499 5.00078 108.15 5.00078 118.85C5.00078 120.45 5.15078 121.9 5.45078 123.2L5.60078 123.65C5.80078 123.85 6.10078 124.05 6.50078 124.25C7.70078 124.45 8.60078 125.05 9.20078 126.05C9.50078 126.35 9.65078 126.75 9.65078 127.25C9.65078 127.45 9.55078 127.55 9.35078 127.55ZM41.6008 71.2999C42.7008 70.8999 43.8008 70.2499 44.9008 69.3499C50.4008 64.9499 55.6008 58.4999 60.5008 49.9999C50.8008 57.1999 44.5008 64.2999 41.6008 71.2999Z" fill="#001242"/>
<path d="M120.779 78.6499C118.679 78.6499 116.829 77.6999 115.229 75.7999C113.429 73.4999 112.529 71.0999 112.529 68.5999C112.529 65.4999 113.829 61.3499 116.429 56.1499L118.679 51.1999C121.179 45.9999 122.529 43.0499 122.729 42.3499C117.329 46.4499 112.229 50.9499 107.429 55.8499C103.829 59.2499 100.179 62.5499 96.4785 65.7499C93.3785 68.5499 90.8785 69.9499 88.9785 69.9499C87.0785 69.9499 84.9785 68.5499 82.6785 65.7499C81.5785 64.1499 81.0285 62.2999 81.0285 60.1999C81.0285 55.3999 83.1285 49.9999 87.3285 43.9999C91.6285 37.8999 96.6785 32.5999 102.479 28.0999C108.379 23.5999 113.779 21.3499 118.679 21.3499C122.279 21.3499 125.179 22.8999 127.379 25.9999C127.679 26.2999 127.829 26.6499 127.829 27.0499L127.679 27.3499C126.979 27.3499 126.479 27.0499 126.179 26.4499C125.079 25.4499 123.779 24.9499 122.279 24.9499C121.379 24.9499 120.529 25.0499 119.729 25.2499C112.129 27.3499 103.879 34.1499 94.9785 45.6499C90.1785 51.9499 87.2285 58.2499 86.1285 64.5499C88.5285 64.0499 90.7785 62.9499 92.8785 61.2499C97.5785 57.8499 101.979 54.1499 106.079 50.1499C109.879 46.6499 113.829 43.3499 117.929 40.2499L118.679 39.7999C120.379 38.4999 121.729 37.8499 122.729 37.8499C123.829 37.9499 124.729 38.5499 125.429 39.6499C126.129 40.6499 126.479 41.6499 126.479 42.6499C126.479 43.9499 125.329 47.5499 123.029 53.4499C120.029 60.6499 118.179 67.2499 117.479 73.2499C125.479 72.2499 137.829 63.1499 154.529 45.9499C156.229 44.2499 157.129 43.3999 157.229 43.3999C157.529 43.3999 157.879 43.5999 158.279 43.9999C158.779 44.2999 159.179 44.6999 159.479 45.1999C159.779 45.5999 159.929 45.9999 159.929 46.3999C159.929 46.5999 159.879 46.7499 159.779 46.8499C151.679 55.9499 142.829 64.2999 133.229 71.8999C130.429 74.2999 127.279 76.2999 123.779 77.8999C122.879 78.3999 121.879 78.6499 120.779 78.6499Z" fill="#001242"/>
<path d="M150.323 91.3999C148.323 91.3999 146.573 90.7499 145.073 89.4499C143.573 88.1499 142.823 86.5999 142.823 84.7999C142.823 83.0999 143.673 81.1499 145.373 78.9499C150.073 73.1499 155.473 67.9999 161.573 63.4999L171.923 55.5499L169.823 54.3499C166.223 52.5499 162.923 50.2499 159.923 47.4499C156.423 43.6499 154.673 40.2499 154.673 37.2499C154.673 33.3499 157.623 29.2999 163.523 25.0999C172.723 18.3999 181.023 14.6499 188.423 13.8499C190.223 13.8499 191.623 14.4499 192.623 15.6499C193.623 16.7499 194.123 17.8499 194.123 18.9499C194.123 19.8499 193.923 20.7499 193.523 21.6499C191.423 26.9499 188.423 31.8499 184.523 36.3499C183.923 36.3499 183.273 35.8999 182.573 34.9999C182.373 34.5999 182.273 34.2499 182.273 33.9499C184.073 31.7499 185.673 29.4499 187.073 27.0499L187.673 25.9999C189.473 23.3999 190.573 20.6499 190.973 17.7499C188.373 18.2499 185.873 19.2499 183.473 20.7499L182.123 21.4999C176.023 24.9999 171.373 28.0499 168.173 30.6499C163.173 34.2499 160.673 37.5499 160.673 40.5499C160.673 41.8499 161.023 43.0499 161.723 44.1499C162.923 46.0499 164.273 47.4499 165.773 48.3499C168.873 49.9499 171.773 51.7499 174.473 53.7499H174.623C184.723 46.6499 195.073 39.6999 205.673 32.8999C211.673 28.9999 214.923 26.8499 215.423 26.4499C215.923 26.0499 216.273 25.8499 216.473 25.8499C216.773 25.8499 217.023 25.9499 217.223 26.1499C217.523 26.3499 217.773 26.5999 217.973 26.8999C218.273 27.0999 218.473 27.2999 218.573 27.4999C218.673 27.5999 218.773 27.7499 218.873 27.9499C219.073 28.0499 219.173 28.2999 219.173 28.6999C219.173 29.3999 218.023 30.3999 215.723 31.6999L206.723 37.5499L196.823 44.2999C191.223 47.9999 184.973 52.2499 178.073 57.0499C180.173 59.7499 181.223 62.5499 181.223 65.4499C181.223 73.0499 175.123 80.3999 162.923 87.4999C158.523 90.0999 154.323 91.3999 150.323 91.3999ZM147.023 87.1999C148.423 87.1999 149.873 86.9499 151.373 86.4499C155.773 84.8499 160.223 82.3999 164.723 79.0999C172.623 73.2999 176.573 67.4999 176.573 61.6999C176.573 60.5999 176.423 59.5999 176.123 58.6999L175.973 58.5499C157.973 71.4499 148.173 80.9999 146.573 87.1999H147.023Z" fill="#001242"/>
<path d="M200.274 91.3999C198.274 91.3999 196.524 90.7499 195.024 89.4499C193.524 88.1499 192.774 86.5999 192.774 84.7999C192.774 83.0999 193.624 81.1499 195.324 78.9499C200.024 73.1499 205.424 67.9999 211.524 63.4999L221.874 55.5499L219.774 54.3499C216.174 52.5499 212.874 50.2499 209.874 47.4499C206.374 43.6499 204.624 40.2499 204.624 37.2499C204.624 33.3499 207.574 29.2999 213.474 25.0999C222.674 18.3999 230.974 14.6499 238.374 13.8499C240.174 13.8499 241.574 14.4499 242.574 15.6499C243.574 16.7499 244.074 17.8499 244.074 18.9499C244.074 19.8499 243.874 20.7499 243.474 21.6499C241.374 26.9499 238.374 31.8499 234.474 36.3499C233.874 36.3499 233.224 35.8999 232.524 34.9999C232.324 34.5999 232.224 34.2499 232.224 33.9499C234.024 31.7499 235.624 29.4499 237.024 27.0499L237.624 25.9999C239.424 23.3999 240.524 20.6499 240.924 17.7499C238.324 18.2499 235.824 19.2499 233.424 20.7499L232.074 21.4999C225.974 24.9999 221.324 28.0499 218.124 30.6499C213.124 34.2499 210.624 37.5499 210.624 40.5499C210.624 41.8499 210.974 43.0499 211.674 44.1499C212.874 46.0499 214.224 47.4499 215.724 48.3499C218.824 49.9499 221.724 51.7499 224.424 53.7499H224.574C234.674 46.6499 245.024 39.6999 255.624 32.8999C261.624 28.9999 264.874 26.8499 265.374 26.4499C265.874 26.0499 266.224 25.8499 266.424 25.8499C266.724 25.8499 266.974 25.9499 267.174 26.1499C267.474 26.3499 267.724 26.5999 267.924 26.8999C268.224 27.0999 268.424 27.2999 268.524 27.4999C268.624 27.5999 268.724 27.7499 268.824 27.9499C269.024 28.0499 269.124 28.2999 269.124 28.6999C269.124 29.3999 267.974 30.3999 265.674 31.6999L256.674 37.5499L246.774 44.2999C241.174 47.9999 234.924 52.2499 228.024 57.0499C230.124 59.7499 231.174 62.5499 231.174 65.4499C231.174 73.0499 225.074 80.3999 212.874 87.4999C208.474 90.0999 204.274 91.3999 200.274 91.3999ZM196.974 87.1999C198.374 87.1999 199.824 86.9499 201.324 86.4499C205.724 84.8499 210.174 82.3999 214.674 79.0999C222.574 73.2999 226.524 67.4999 226.524 61.6999C226.524 60.5999 226.374 59.5999 226.074 58.6999L225.924 58.5499C207.924 71.4499 198.124 80.9999 196.524 87.1999H196.974Z" fill="#001242"/>
<path d="M273.741 15.3499H273.591C273.491 15.3499 273.241 15.2499 272.841 15.0499C272.441 14.8499 272.141 14.5999 271.941 14.2999C271.241 13.2999 270.891 12.3499 270.891 11.4499C270.891 9.9499 271.791 7.9999 273.591 5.5999C274.791 4.0999 275.641 2.5499 276.141 0.949898C276.141 0.7499 276.241 0.649902 276.441 0.649902C276.741 0.649902 277.241 0.899903 277.941 1.3999C278.041 1.4999 278.191 1.64989 278.391 1.84989C278.591 1.9499 278.891 2.2499 279.291 2.74989C279.691 3.14989 279.891 3.69989 279.891 4.39989C279.191 5.99989 278.241 7.3999 277.041 8.5999C275.841 9.6999 274.891 10.8999 274.191 12.1999C273.691 12.6999 273.441 13.2999 273.441 13.9999L273.891 15.1999C273.891 15.2999 273.841 15.3499 273.741 15.3499ZM262.041 74.2999C261.041 74.2999 259.991 74.1499 258.891 73.8499C255.291 72.3499 252.541 69.8999 250.641 66.4999C249.341 63.2999 248.691 59.5999 248.691 55.3999C249.291 48.2999 252.241 41.1499 257.541 33.9499C260.341 30.2499 263.291 27.4999 266.391 25.6999L266.841 25.5499C267.241 25.5499 267.691 25.7499 268.191 26.1499C268.691 26.5499 269.141 27.0499 269.541 27.6499C269.941 28.1499 270.141 28.6499 270.141 29.1499C270.141 29.6499 269.091 31.0499 266.991 33.3499C262.591 38.1499 259.341 42.8999 257.241 47.5999C255.341 51.6999 254.241 55.3999 253.941 58.6999C253.741 59.7999 253.641 61.4999 253.641 63.7999C253.641 68.0999 255.641 70.2499 259.641 70.2499C264.941 70.2499 272.691 65.1499 282.891 54.9499L287.691 50.4499C290.091 47.9499 292.691 45.7499 295.491 43.8499L295.791 43.6999C296.091 43.6999 296.441 43.8499 296.841 44.1499C297.241 44.4499 297.541 44.7999 297.741 45.1999C298.041 45.5999 298.191 45.9499 298.191 46.2499L298.041 46.5499C296.841 48.0499 295.491 49.3999 293.991 50.5999C289.591 54.6999 285.491 58.6999 281.691 62.5999L280.041 64.0999C273.241 70.8999 267.241 74.2999 262.041 74.2999Z" fill="#001242"/>
<path d="M307.054 76.6999C304.254 76.6999 301.354 75.4499 298.354 72.9499C294.354 69.4499 292.354 64.2999 292.354 57.4999C292.354 49.7999 294.654 42.0499 299.254 34.2499C303.954 26.3499 309.554 21.4499 316.054 19.5499C316.454 19.5499 316.904 19.7999 317.404 20.2999C317.904 20.7999 318.354 21.3499 318.754 21.9499C319.254 22.5499 319.504 23.0499 319.504 23.4499C319.504 23.6499 319.454 23.7499 319.354 23.7499C318.754 23.9499 318.104 24.2499 317.404 24.6499L316.804 24.9499L322.954 24.6499C326.654 24.5499 330.804 24.4999 335.404 24.4999H344.104C349.104 24.4999 352.754 24.8499 355.054 25.5499C359.954 26.8499 362.404 30.2999 362.404 35.8999C362.104 39.7999 361.154 43.5999 359.554 47.2999C358.054 50.8999 356.404 54.5999 354.604 58.3999L352.354 63.3499L358.054 55.5499C363.454 47.8499 369.254 40.4499 375.454 33.3499C379.454 28.5499 383.104 25.5499 386.404 24.3499C386.904 24.1499 387.404 24.0499 387.904 24.0499C389.304 24.0499 390.554 24.5499 391.654 25.5499C392.754 26.4499 393.304 27.6499 393.304 29.1499C392.904 32.1499 392.104 35.0499 390.904 37.8499L389.104 42.4999C387.604 46.5999 386.254 50.6999 385.054 54.7999L384.754 56.5999C384.154 58.6999 383.854 60.7999 383.854 62.8999C383.854 63.2999 383.954 64.0999 384.154 65.2999C384.354 66.3999 384.754 67.4499 385.354 68.4499C385.954 69.4499 386.854 69.9499 388.054 69.9499L388.804 69.7999C392.504 68.9999 395.904 67.4999 399.004 65.2999C402.104 62.9999 405.054 60.5499 407.854 57.9499L413.254 52.9999C418.354 48.2999 421.604 45.3499 423.004 44.1499C423.004 44.0499 423.104 43.9999 423.304 43.9999C423.704 43.9999 424.154 44.3999 424.654 45.1999C424.854 45.4999 424.954 45.7999 424.954 46.0999C424.654 46.7999 423.004 48.7499 420.004 51.9499C412.004 60.8499 405.204 67.3999 399.604 71.5999L398.404 72.3499C396.904 73.5499 395.154 74.3999 393.154 74.8999L391.804 75.0499C389.604 75.0499 387.504 74.1999 385.504 72.4999C381.304 68.6999 379.204 64.2499 379.204 59.1499C379.204 57.0499 379.454 54.9499 379.954 52.8499C381.554 46.8499 383.704 41.0999 386.404 35.5999L388.504 31.0999C389.004 30.0999 389.404 28.9999 389.704 27.7999C383.904 29.5999 375.604 38.4999 364.804 54.4999L358.804 63.1999C355.804 67.3999 352.854 71.6999 349.954 76.0999L349.654 76.2499L349.204 76.0999C348.104 75.7999 347.154 75.1999 346.354 74.2999C345.554 73.3999 345.004 72.5499 344.704 71.7499C344.404 70.8499 344.254 69.9499 344.254 69.0499C344.254 66.8499 345.204 63.7499 347.104 59.7499L348.154 57.3499L350.404 52.6999C352.804 47.8999 354.854 42.8999 356.554 37.6999C357.554 34.6999 358.054 32.4499 358.054 30.9499C358.054 30.0499 357.904 29.3999 357.604 28.9999C354.704 28.6999 343.604 28.5499 324.304 28.5499C328.804 32.3499 331.054 37.0999 331.054 42.7999C331.054 47.3999 329.654 52.6499 326.854 58.5499C324.654 63.3499 321.804 67.5999 318.304 71.2999C314.904 74.8999 311.154 76.6999 307.054 76.6999ZM303.904 71.8999C306.504 71.8999 308.854 71.1499 310.954 69.6499C313.154 68.0499 315.104 66.3499 316.804 64.5499C319.504 61.5499 321.904 57.7999 324.004 53.2999C326.204 48.7999 327.304 44.3499 327.304 39.9499C327.304 37.3499 326.754 34.8999 325.654 32.5999C325.554 32.2999 325.354 32.0499 325.054 31.8499L324.604 31.3999C323.704 30.7999 322.654 30.3499 321.454 30.0499C320.354 29.6499 319.154 29.3499 317.854 29.1499C317.054 29.1499 316.204 28.5499 315.304 27.3499C315.104 27.1499 314.904 26.8499 314.704 26.4499C311.104 29.2499 308.104 32.6999 305.704 36.7999C302.804 41.4999 300.554 46.5999 298.954 52.0999C298.054 55.1999 297.604 58.2499 297.604 61.2499C297.604 62.5499 297.654 63.9999 297.754 65.5999C297.954 67.1999 298.354 68.5999 298.954 69.7999C299.454 70.4999 300.154 71.0499 301.054 71.4499C302.054 71.7499 303.004 71.8999 303.904 71.8999Z" fill="#001242"/>
</svg>
