<svg width="144" height="112" viewBox="0 0 144 112" fill="none" xmlns="http://www.w3.org/2000/svg">
<path d="M95.6495 111.271L91.5216 110.584C81.4311 105.08 75.0099 96.8238 72.258 85.8161L71.57 81.0002L72.258 76.1843C72.7166 72.515 73.6339 69.3044 75.0099 66.5525C83.2657 46.3716 95.8788 29.8599 112.849 17.0175C127.067 6.00976 136.47 0.505859 141.057 0.505859C142.891 0.505859 143.808 1.42318 143.808 3.25781C143.808 6.46842 138.534 12.431 127.985 21.1455C122.022 26.1907 116.518 31.4652 111.473 36.9691C106.428 42.0143 103.905 47.2889 103.905 52.7928C103.905 56.0033 105.511 59.4433 108.721 63.1125L113.537 67.9284C120.417 74.3496 123.857 80.0828 123.857 85.1281C123.857 89.256 121.334 93.8426 116.289 98.8878C111.702 103.933 107.116 107.144 102.529 108.52C101.153 108.52 100.236 108.29 99.7774 107.832C99.7774 110.125 98.4014 111.271 95.6495 111.271ZM24.099 111.271L19.9711 110.584C9.88064 105.08 3.45945 96.8238 0.707506 85.8161L0.0195312 81.0002L0.707506 76.1843C1.16616 72.515 2.08349 69.3044 3.45946 66.5525C13.5499 40.8677 32.8135 19.7695 61.2502 3.25781C64.4608 1.42318 67.2127 0.505859 69.506 0.505859C71.3407 0.505859 72.258 1.42318 72.258 3.25781C72.258 6.46842 66.9834 12.431 56.4343 21.1455C50.4718 26.1907 44.9679 31.4652 39.9227 36.9691C34.8774 42.0143 32.3548 47.2889 32.3548 52.7928C32.3548 56.0033 33.9601 59.4433 37.1707 63.1125C47.2612 72.7443 52.3064 80.5415 52.3064 86.504C50.9304 91.0906 47.9492 95.6772 43.3626 100.264C39.2347 104.392 34.8775 107.144 30.2909 108.52C29.3736 108.52 28.6856 108.29 28.2269 107.832C28.2269 110.125 26.8509 111.271 24.099 111.271Z" fill="#001242"/>
</svg>
